<svg xmlns="http://www.w3.org/2000/svg" xmlns:xlink="http://www.w3.org/1999/xlink" width="20" height="20" viewBox="0 0 20 20">
  <defs>
    <linearGradient id="linear-gradient" x1="0.5" x2="0.5" y2="1" gradientUnits="objectBoundingBox">
      <stop offset="0" stop-color="#f3c65d"/>
      <stop offset="1" stop-color="#e59f00"/>
    </linearGradient>
  </defs>
  <g id="Group_13949" data-name="Group 13949" transform="translate(-647 -121)">
    <path id="Path_21437" data-name="Path 21437" d="M4.76.466A4.963,4.963,0,0,1,9.725,5.457a5.031,5.031,0,0,1-4.965,5.07A5.189,5.189,0,0,1-.389,5.457,5.121,5.121,0,0,1,4.76.466Z" transform="translate(657 130)" fill="url(#linear-gradient)"/>
    <path id="video-duration" d="M7.5,15.417a.417.417,0,0,1-.417.417H3.75A3.755,3.755,0,0,1,0,12.083V3.75A3.755,3.755,0,0,1,3.75,0H15.417a3.755,3.755,0,0,1,3.75,3.75V8.333a.417.417,0,1,1-.833,0V3.75A2.92,2.92,0,0,0,15.417.833H3.75A2.92,2.92,0,0,0,.833,3.75v8.333A2.92,2.92,0,0,0,3.75,15H7.083A.417.417,0,0,1,7.5,15.417ZM20,14.583a5.417,5.417,0,1,1-5.417-5.417A5.423,5.423,0,0,1,20,14.583Zm-.833,0a4.583,4.583,0,1,0-4.583,4.583A4.589,4.589,0,0,0,19.167,14.583ZM15,14.411V12.083a.417.417,0,0,0-.833,0v2.5a.42.42,0,0,0,.122.3l1.667,1.667a.417.417,0,1,0,.59-.589ZM12.2,8.74,8.748,10.655A1.4,1.4,0,0,1,6.667,9.431V5.6A1.4,1.4,0,0,1,8.748,4.375L12.2,6.29a1.4,1.4,0,0,1,0,2.45Zm-.113-1.225a.561.561,0,0,0-.292-.5L8.342,5.1a.561.561,0,0,0-.276-.073.568.568,0,0,0-.287.08A.553.553,0,0,0,7.5,5.6V9.43a.567.567,0,0,0,.843.5l3.448-1.915a.561.561,0,0,0,.292-.5Z" transform="translate(647 121)"/>
  </g>
</svg>
