<svg xmlns="http://www.w3.org/2000/svg" width="30" height="30" viewBox="0 0 30 30">
  <g id="Group_11397" data-name="Group 11397" transform="translate(-0.227 0.241)">
    <g id="Ellipse_310" data-name="Ellipse 310" transform="translate(0.227 -0.241)" fill="#fff" stroke="#d9dfe3" strokeWidth="1">
      <circle cx="15" cy="15" r="15" stroke="none"/>
      <circle cx="15" cy="15" r="14.5" fill="none"/>
    </g>
    <path id="Path_13726" data-name="Path 13726" d="M7.9,15.26a.584.584,0,0,1,.81-.162l2.082,1.388c.639.426,1.08.719,1.448.911a1.742,1.742,0,0,0,.821.248,1.742,1.742,0,0,0,.821-.248c.368-.191.809-.485,1.448-.911L17.411,15.1a.584.584,0,0,1,.648.973L15.95,17.476a18.047,18.047,0,0,1-1.53.957,2.886,2.886,0,0,1-1.36.38,2.886,2.886,0,0,1-1.36-.38,18.04,18.04,0,0,1-1.53-.957L8.06,16.071A.584.584,0,0,1,7.9,15.26Z" transform="translate(1.521 -2.335)" fill="#063354" fill-rule="evenodd"/>
    <path id="Path_13727" data-name="Path 13727" d="M5.817,5.4h4.761a21.365,21.365,0,0,1,2.6.091,2.9,2.9,0,0,1,1.761.765A2.9,2.9,0,0,1,15.7,8.017a21.376,21.376,0,0,1,.091,2.6v1.644a21.377,21.377,0,0,1-.091,2.6,2.9,2.9,0,0,1-.765,1.761,2.9,2.9,0,0,1-1.761.765,21.377,21.377,0,0,1-2.6.091H5.817a21.377,21.377,0,0,1-2.6-.091,2.9,2.9,0,0,1-1.761-.765,2.9,2.9,0,0,1-.765-1.761,21.364,21.364,0,0,1-.091-2.6V10.617a21.364,21.364,0,0,1,.091-2.6,2.9,2.9,0,0,1,.765-1.761,2.9,2.9,0,0,1,1.761-.765A21.364,21.364,0,0,1,5.817,5.4ZM3.373,6.649a1.757,1.757,0,0,0-1.09.433,1.757,1.757,0,0,0-.433,1.09,20.931,20.931,0,0,0-.08,2.487v1.558a20.932,20.932,0,0,0,.08,2.487,1.757,1.757,0,0,0,.433,1.09,1.757,1.757,0,0,0,1.09.433,20.943,20.943,0,0,0,2.487.08h4.675a20.944,20.944,0,0,0,2.487-.08,1.757,1.757,0,0,0,1.09-.433,1.757,1.757,0,0,0,.433-1.09,20.945,20.945,0,0,0,.08-2.487V10.66a20.944,20.944,0,0,0-.08-2.487,1.757,1.757,0,0,0-.433-1.09,1.757,1.757,0,0,0-1.09-.433,20.933,20.933,0,0,0-2.487-.08H5.86A20.932,20.932,0,0,0,3.373,6.649Z" transform="translate(6.506 3.573)" fill="#063354" fill-rule="evenodd"/>
  </g>
</svg>
