<svg id="Group_9789" data-name="Group 9789" xmlns="http://www.w3.org/2000/svg" xmlns:xlink="http://www.w3.org/1999/xlink" width="44.451" height="42.156" viewBox="0 0 44.451 42.156">
  <defs>
    <linearGradient id="linear-gradient" x1="0.5" x2="0.5" y2="1" gradientUnits="objectBoundingBox">
      <stop offset="0" stop-color="#f3c65d"/>
      <stop offset="1" stop-color="#e59f00"/>
    </linearGradient>
  </defs>
  <path id="Path_13704" data-name="Path 13704" d="M44.451,17.958c0-6.243,0-9.365-1.5-11.607A8.89,8.89,0,0,0,40.5,3.9c-2.242-1.5-5.364-1.5-11.607-1.5H15.558c-6.243,0-9.365,0-11.607,1.5A8.894,8.894,0,0,0,1.5,6.351C0,8.593,0,11.715,0,17.958V20.18c0,4.142,0,6.213.677,7.847a8.891,8.891,0,0,0,4.811,4.811c1.634.677,3.7.677,7.847.677a18.8,18.8,0,0,1,2.906.115,8.888,8.888,0,0,1,2.7.9,18.779,18.779,0,0,1,2.393,1.652l7.112,5.334c3.1,2.327,4.655,3.491,5.884,2.877s1.229-2.554,1.229-6.433V35.294a1.778,1.778,0,0,1,1.778-1.778" transform="translate(0 -2.4)" fill="#fff"/>
  <path id="Path_13705" data-name="Path 13705" d="M15.558,5.734H28.893c3.191,0,5.333,0,6.966.17a5.913,5.913,0,0,1,2.788.766A5.556,5.556,0,0,1,40.181,8.2a5.913,5.913,0,0,1,.766,2.788c.166,1.633.17,3.775.17,6.966V26.4a3.778,3.778,0,0,1-3.778,3.778,5.112,5.112,0,0,0-5.112,5.112v2.667c0,.887,0,1.606-.012,2.2-.48-.346-1.056-.777-1.766-1.309l-7.112-5.334-.173-.13a20.067,20.067,0,0,0-2.674-1.808,12.23,12.23,0,0,0-3.715-1.238,20.085,20.085,0,0,0-3.224-.158h-.216c-2.117,0-3.537,0-4.637-.077a6.13,6.13,0,0,1-1.934-.346,5.556,5.556,0,0,1-3.007-3.007,6.13,6.13,0,0,1-.346-1.934c-.075-1.1-.077-2.521-.077-4.637V17.958c0-3.191,0-5.333.17-6.966A5.914,5.914,0,0,1,4.27,8.2,5.556,5.556,0,0,1,5.8,6.67,5.912,5.912,0,0,1,8.592,5.9C10.225,5.738,12.367,5.734,15.558,5.734Zm27.395.617c1.5,2.242,1.5,5.364,1.5,11.607V26.4a7.112,7.112,0,0,1-7.112,7.112,1.778,1.778,0,0,0-1.778,1.778v2.667c0,3.879,0,5.819-1.229,6.433s-2.78-.549-5.884-2.877l-7.112-5.334a18.779,18.779,0,0,0-2.393-1.652,8.881,8.881,0,0,0-2.7-.9,18.766,18.766,0,0,0-2.906-.115c-4.142,0-6.213,0-7.847-.677A8.891,8.891,0,0,1,.677,28.028C0,26.394,0,24.323,0,20.18V17.958C0,11.715,0,8.593,1.5,6.351A8.894,8.894,0,0,1,3.951,3.9C6.193,2.4,9.315,2.4,15.558,2.4H28.893c6.243,0,9.365,0,11.607,1.5A8.89,8.89,0,0,1,42.953,6.351Z" transform="translate(0 -2.4)" fill="#063354" fill-rule="evenodd"/>
  <path id="Path_13706" data-name="Path 13706" d="M9.6,18.934A3.334,3.334,0,1,0,12.934,15.6,3.334,3.334,0,0,0,9.6,18.934Z" transform="translate(19.293 -3.376)" fill="url(#linear-gradient)"/>
  <path id="Path_13707" data-name="Path 13707" d="M20.4,18.934A3.334,3.334,0,1,0,23.734,15.6,3.334,3.334,0,0,0,20.4,18.934Z" transform="translate(-1.508 -3.376)" fill="url(#linear-gradient)"/>
  <path id="Path_13708" data-name="Path 13708" d="M34.534,22.268a3.334,3.334,0,1,1,3.334-3.334A3.334,3.334,0,0,1,34.534,22.268Z" transform="translate(-22.31 -3.376)" fill="url(#linear-gradient)"/>
</svg>
