<svg id="whatsapp" xmlns="http://www.w3.org/2000/svg" width="12.589" height="12.646" viewBox="0 0 12.589 12.646">
  <g id="Group_11398" data-name="Group 11398" transform="translate(0 0)">
    <path id="Path_15911" data-name="Path 15911" d="M10.75,1.838A6.208,6.208,0,0,0,6.318,0,6.271,6.271,0,0,0,.886,9.4L0,12.646l3.323-.871a6.27,6.27,0,0,0,3,.763h0a6.265,6.265,0,0,0,4.428-10.7ZM6.318,11.477a5.2,5.2,0,0,1-2.653-.727l-.19-.114L1.5,11.153,2.031,9.23l-.123-.2a5.206,5.206,0,1,1,4.41,2.445Zm2.857-3.9C9.02,7.5,8.251,7.12,8.106,7.066s-.249-.078-.352.078-.405.511-.5.613-.183.117-.34.04a4.276,4.276,0,0,1-1.258-.779,4.778,4.778,0,0,1-.872-1.084c-.09-.156-.009-.24.07-.319s.156-.183.234-.273a1,1,0,0,0,.156-.261.291.291,0,0,0-.012-.274c-.04-.078-.352-.85-.484-1.162S4.5,3.38,4.4,3.376s-.2-.006-.3-.006a.576.576,0,0,0-.418.2,1.755,1.755,0,0,0-.546,1.307,3.034,3.034,0,0,0,.64,1.619A6.962,6.962,0,0,0,6.451,8.857a8.711,8.711,0,0,0,.892.33,2.151,2.151,0,0,0,.985.063,1.622,1.622,0,0,0,1.058-.745,1.311,1.311,0,0,0,.09-.745c-.039-.066-.144-.105-.3-.183Z" transform="translate(0 0.001)" fill="#fff"/>
  </g>
</svg>
