
<svg xmlns="http://www.w3.org/2000/svg" xmlns:xlink="http://www.w3.org/1999/xlink" width="37.727" height="40.629" viewBox="0 0 37.727 40.629">
  <defs>
    <linearGradient id="linear-gradient" x1="0.5" x2="0.5" y2="1" gradientUnits="objectBoundingBox">
      <stop offset="0" stop-color="#f3c65d"/>
      <stop offset="1" stop-color="#e59f00"/>
    </linearGradient>
  </defs>
  <g id="Group_10310" data-name="Group 10310" transform="translate(-601 -313)">
    <g id="license-third-party" transform="translate(601 313)">
      <path id="Path_15597" data-name="Path 15597" d="M12,21h8.706v2.9H12Z" transform="translate(-6.196 -3.588)"/>
      <path id="Path_15604" data-name="Path 15604" d="M12,21h8.706v2.9H12Z" transform="translate(-6.196 2.217)" fill="url(#linear-gradient)"/>
      <path id="Path_15598" data-name="Path 15598" d="M12,9H29.412v2.9H12Z" transform="translate(-6.196 -3.196)"/>
      <path id="Path_15599" data-name="Path 15599" d="M12,15H29.412v2.9H12Z" transform="translate(-6.196 -3.392)"/>
      <path id="Path_15600" data-name="Path 15600" d="M12,36h8.706v2.9H12Z" transform="translate(-6.196 -4.077)" fill="url(#linear-gradient)"/>
      <path id="Path_15601" data-name="Path 15601" d="M40.059,37.5H31.353A4.353,4.353,0,0,0,27,41.853v2.9h2.9v-2.9A1.451,1.451,0,0,1,31.353,40.4h8.706a1.451,1.451,0,0,1,1.451,1.451v2.9h2.9v-2.9A4.353,4.353,0,0,0,40.059,37.5Z" transform="translate(-6.686 -4.126)" fill="url(#linear-gradient)"/>
      <path id="Path_15602" data-name="Path 15602" d="M35.8,35.608A5.8,5.8,0,1,0,30,29.8,5.8,5.8,0,0,0,35.8,35.608Zm0-8.706a2.9,2.9,0,1,1-2.9,2.9A2.9,2.9,0,0,1,35.8,26.9Z" transform="translate(-6.783 -3.686)" fill="url(#linear-gradient)"/>
      <path id="Path_15603" data-name="Path 15603" d="M20.51,43.629H8.9a2.9,2.9,0,0,1-2.9-2.9V5.9A2.9,2.9,0,0,1,8.9,3H32.119a2.9,2.9,0,0,1,2.9,2.9v14.51h-2.9V5.9H8.9V40.727H20.51Z" transform="translate(-6 -3)"/>
    </g>
  </g>
</svg>