<svg xmlns="http://www.w3.org/2000/svg" width="18.131" height="18.135" viewBox="0 0 18.131 18.135">
  <g id="Group_10030" data-name="Group 10030" transform="translate(-22.781 -18.609)">
    <g id="Component_15_1" data-name="Component 15 – 1" transform="translate(22.781 18.609)">
      <circle id="Ellipse_157" data-name="Ellipse 157" cx="5.368" cy="5.368" r="5.368" transform="translate(7.394 7.398)" fill="#f3c65d"/>
      <path id="at" d="M8.1,0a8.1,8.1,0,1,0,4.655,14.719.675.675,0,1,0-.777-1.1A6.774,6.774,0,0,1,1.349,8.1a6.747,6.747,0,0,1,13.493,0V9.445a1.349,1.349,0,1,1-2.7,0V8.1a4.027,4.027,0,1,0-1,2.653,2.7,2.7,0,0,0,5.047-1.3V8.1A8.1,8.1,0,0,0,8.1,0Zm0,10.795a2.7,2.7,0,1,1,2.7-2.7A2.7,2.7,0,0,1,8.1,10.795Z" transform="translate(0.001)" fill="#063354"/>
    </g>
  </g>
</svg>
