<svg xmlns="http://www.w3.org/2000/svg" width="29.583" height="26.518" viewBox="0 0 29.583 26.518">
  <g id="filters-1_broken" transform="translate(1 1)">
    <path id="Path_13604" data-name="Path 13604" d="M30.518,8v4.6m0,10.727v9.194m0-9.194a3.065,3.065,0,1,0-3.065-3.065A3.065,3.065,0,0,0,30.518,23.324Zm-10.727-6.13v9.194m0,0a3.065,3.065,0,1,0,3.065,3.065A3.065,3.065,0,0,0,19.791,26.389ZM19.791,8v4.6M9.065,18.727V32.518M12.13,11.065A3.065,3.065,0,1,1,9.065,8,3.065,3.065,0,0,1,12.13,11.065Z" transform="translate(-6 -8)" fill="none" stroke="#063354" stroke-linecap="round" strokeWidth="2"/>
  </g>
</svg>
