<svg xmlns="http://www.w3.org/2000/svg" width="18.033" height="14.406" viewBox="0 0 18.033 14.406">
  <g id="Group_10397" data-name="Group 10397" transform="translate(0.844 -6.549)">
    <circle id="Ellipse_138" data-name="Ellipse 138" cx="4.574" cy="4.574" r="4.574" transform="translate(8.041 11.807)" fill="#f3c65d"/>
    <g id="square-dollar_duoline" transform="translate(-0.844 6.549)">
      <path id="Path_15614" data-name="Path 15614" d="M3.984,12.74c.71.064,1.625.065,2.938.065s2.228,0,2.938-.065a3.286,3.286,0,0,0,1.388-.352,3.114,3.114,0,0,0,1.14-1.14A3.286,3.286,0,0,0,12.74,9.86c.064-.71.065-1.625.065-2.938s0-2.228-.065-2.938A3.286,3.286,0,0,0,12.388,2.6a3.114,3.114,0,0,0-1.14-1.14A3.287,3.287,0,0,0,9.86,1.1c-.71-.064-1.625-.065-2.938-.065s-2.228,0-2.938.065A3.287,3.287,0,0,0,2.6,1.456,3.115,3.115,0,0,0,1.456,2.6,3.287,3.287,0,0,0,1.1,3.984c-.064.71-.065,1.625-.065,2.938s0,2.228.065,2.938a3.287,3.287,0,0,0,.352,1.388,3.114,3.114,0,0,0,1.14,1.14A3.286,3.286,0,0,0,3.984,12.74ZM.556,2.077C0,3.04,0,4.334,0,6.922S0,10.8.556,11.767a4.154,4.154,0,0,0,1.52,1.52c.964.556,2.258.556,4.845.556s3.882,0,4.845-.556a4.154,4.154,0,0,0,1.52-1.52c.556-.964.556-2.258.556-4.845s0-3.882-.556-4.845a4.154,4.154,0,0,0-1.52-1.52C10.8,0,9.51,0,6.922,0S3.04,0,2.077.556A4.153,4.153,0,0,0,.556,2.077Z" fill="#063354" fill-rule="evenodd"/>
      <path id="Path_15615" data-name="Path 15615" d="M19.3,10.2a.519.519,0,0,1,.519.519V11.2a1.958,1.958,0,0,1,.75.348,1.611,1.611,0,0,1,.636,1.311.519.519,0,1,1-1.038,0,.575.575,0,0,0-.23-.488,1.147,1.147,0,0,0-1.27,0,.575.575,0,0,0-.23.487.5.5,0,0,0,.228.448,3.362,3.362,0,0,0,.82.384l.033.012a4.134,4.134,0,0,1,1.051.517,1.536,1.536,0,0,1,.638,1.275,1.611,1.611,0,0,1-.636,1.311,1.958,1.958,0,0,1-.75.348v.484a.519.519,0,1,1-1.038,0v-.485a1.958,1.958,0,0,1-.749-.348A1.611,1.611,0,0,1,17.4,15.5a.519.519,0,1,1,1.038,0,.575.575,0,0,0,.23.487,1.147,1.147,0,0,0,1.27,0,.575.575,0,0,0,.23-.488.5.5,0,0,0-.228-.448,3.36,3.36,0,0,0-.82-.384l-.033-.012a4.131,4.131,0,0,1-1.051-.517,1.536,1.536,0,0,1-.638-1.275,1.611,1.611,0,0,1,.634-1.31,1.957,1.957,0,0,1,.749-.348v-.485A.519.519,0,0,1,19.3,10.2Z" transform="translate(-12.382 -7.258)" fill="#063354" fill-rule="evenodd"/>
    </g>
  </g>
</svg>
