<svg id="cloud-up_duoline" xmlns="http://www.w3.org/2000/svg" xmlns:xlink="http://www.w3.org/1999/xlink" width="28.103" height="22.483" viewBox="0 0 28.103 22.483">
  <defs>
    <linearGradient id="linear-gradient" x1="0.5" x2="0.5" y2="1" gradientUnits="objectBoundingBox">
      <stop offset="0" stop-color="#f3c65d"/>
      <stop offset="1" stop-color="#e59f00"/>
    </linearGradient>
  </defs>
  <path id="Path_13664" data-name="Path 13664" d="M7.763,17.9l-2.685.432a3.373,3.373,0,0,0,.543,6.7H19.672a6.183,6.183,0,0,0,.695-12.327l-1.411-.157-.464-1.342A6.185,6.185,0,1,0,6.834,15.345Zm12.853-7.428a8.432,8.432,0,0,0-16.4,2.758q0,.345.027.683a8.388,8.388,0,0,0,.478,2.2,5.621,5.621,0,0,0,.9,11.17H19.672a8.431,8.431,0,0,0,.944-16.81Z" transform="translate(0 -4.8)" fill="#063354" fill-rule="evenodd"/>
  <path id="Path_13665" data-name="Path 13665" d="M19.524,15.309a1.054,1.054,0,0,1,1.49,0l4.215,4.216a1.054,1.054,0,0,1-1.49,1.49L21.323,18.6v7.573a1.054,1.054,0,0,1-2.108,0V18.6L16.8,21.015a1.054,1.054,0,0,1-1.49-1.49Z" transform="translate(-6.218 -9.028)" fill-rule="evenodd" fill="url(#linear-gradient)"/>
</svg>
