<svg xmlns="http://www.w3.org/2000/svg" width="19.442" height="17.404" viewBox="0 0 19.442 17.404">
  <g id="Group_10375" data-name="Group 10375" transform="translate(-674.992 -3086.615)">
    <circle id="Ellipse_671" data-name="Ellipse 671" cx="5.422" cy="5.422" r="5.422" transform="translate(683.591 3093.176)" fill="#f3c65d"/>
    <g id="basketball_broken" transform="translate(675.492 3087.115)">
      <path id="Path_15610" data-name="Path 15610" d="M6,13.928a7.892,7.892,0,0,1,1.544-4.7M6,13.928a7.892,7.892,0,0,0,1.537,4.691M6,13.928h4.4m-2.86-4.7A7.916,7.916,0,0,1,13.928,6M7.544,9.226A5.768,5.768,0,0,1,10,11.905a5.285,5.285,0,0,1,.4,2.022M13.928,6A7.916,7.916,0,0,1,20.32,9.238M13.928,6V18.332m-6.391.287a7.929,7.929,0,0,0,12.766.022M7.537,18.619A5.853,5.853,0,0,0,10,15.95a5.285,5.285,0,0,0,.4-2.022M20.32,9.238a7.891,7.891,0,0,1,1.535,4.689M20.32,9.238a5.827,5.827,0,0,0-2.467,2.667,5.285,5.285,0,0,0,0,4.045A6.248,6.248,0,0,0,20.3,18.641m1.553-4.713A7.892,7.892,0,0,1,20.3,18.641m1.553-4.713H13.928" transform="translate(-6 -6)" fill="none" stroke="#063354" stroke-linecap="round" stroke-linejoin="round" strokeWidth="1"/>
    </g>
  </g>
</svg>
