<svg xmlns="http://www.w3.org/2000/svg" xmlns:xlink="http://www.w3.org/1999/xlink" width="43.25" height="43.038" viewBox="0 0 43.25 43.038">
  <defs>
    <filter id="Line_25" x="0" y="9.751" width="33.083" height="33.287" filterUnits="userSpaceOnUse">
      <feOffset dy="3" input="SourceAlpha"/>
      <feGaussianBlur stdDeviation="3" result="blur"/>
      <feFlood flood-opacity="0.161"/>
      <feComposite operator="in" in2="blur"/>
      <feComposite in="SourceGraphic"/>
    </filter>
    <linearGradient id="linear-gradient" x1="0.5" x2="0.5" y2="1" gradientUnits="objectBoundingBox">
      <stop offset="0" stop-color="#f3c65d"/>
      <stop offset="1" stop-color="#e59f00"/>
    </linearGradient>
    <filter id="Line_26" x="11.226" y="0.001" width="31.812" height="31.607" filterUnits="userSpaceOnUse">
      <feOffset dy="3" input="SourceAlpha"/>
      <feGaussianBlur stdDeviation="3" result="blur-2"/>
      <feFlood flood-opacity="0.161"/>
      <feComposite operator="in" in2="blur-2"/>
      <feComposite in="SourceGraphic"/>
    </filter>
    <filter id="Path_15159" x="0.212" y="0" width="43.038" height="43.037" filterUnits="userSpaceOnUse">
      <feOffset dy="3" input="SourceAlpha"/>
      <feGaussianBlur stdDeviation="3" result="blur-3"/>
      <feFlood flood-opacity="0.161"/>
      <feComposite operator="in" in2="blur-3"/>
      <feComposite in="SourceGraphic"/>
    </filter>
  </defs>
  <g id="Group_10631" data-name="Group 10631" transform="translate(-1592.635 -27.772)">
    <g transform="matrix(1, 0, 0, 1, 1592.63, 27.77)" filter="url(#Line_25)">
      <path id="Line_25-2" data-name="Line 25" d="M-.571,12.787a1.922,1.922,0,0,1-1.351-.553,1.929,1.929,0,0,1-.025-2.727L9.278-1.923a1.929,1.929,0,0,1,2.727-.025A1.929,1.929,0,0,1,12.03.78L.8,12.21A1.923,1.923,0,0,1-.571,12.787Z" transform="translate(11.5 18.25)" fill="#063354"/>
    </g>
    <g transform="matrix(1, 0, 0, 1, 1592.63, 27.77)" filter="url(#Line_26)">
      <path id="Line_26-2" data-name="Line 26" d="M-.571,11.107a1.923,1.923,0,0,1-1.378-.579A1.929,1.929,0,0,1-1.921,7.8l9.955-9.75a1.929,1.929,0,0,1,2.727.028A1.929,1.929,0,0,1,10.733.806L.778,10.557A1.922,1.922,0,0,1-.571,11.107Z" transform="translate(22.73 8.5)" fill="url(#linear-gradient)"/>
    </g>
    <g transform="matrix(1, 0, 0, 1, 1592.63, 27.77)" filter="url(#Path_15159)">
      <path id="Path_15159-2" data-name="Path 15159" d="M20.609,22.537a1.923,1.923,0,0,1-1.364-.565L-1.935.792a1.929,1.929,0,0,1,0-2.728,1.929,1.929,0,0,1,2.728,0l21.181,21.18a1.929,1.929,0,0,1-1.364,3.292Z" transform="translate(11.71 8.5)" fill="#063354"/>
    </g>
  </g>
</svg>
