<svg xmlns="http://www.w3.org/2000/svg" xmlns:xlink="http://www.w3.org/1999/xlink" width="22" height="24" viewBox="0 0 22 24">
  <defs>
    <linearGradient id="linear-gradient" x1="0.5" x2="0.5" y2="1" gradientUnits="objectBoundingBox">
      <stop offset="0" stop-color="#f3c65d"/>
      <stop offset="1" stop-color="#e59f00"/>
    </linearGradient>
  </defs>
  <g id="Group_13887" data-name="Group 13887" transform="translate(-176 -678)">
    <circle id="Ellipse_809" data-name="Ellipse 809" cx="3" cy="3" r="3" transform="translate(185 684)" fill="url(#linear-gradient)"/>
    <path id="address-book" d="M18.5,0H7.5A4.508,4.508,0,0,0,3.257,3H1.5a.5.5,0,0,0,0,1H3.028A4.583,4.583,0,0,0,3,4.5V7H1.5a.5.5,0,0,0,0,1H3v3.5H1.5a.5.5,0,0,0,0,1H3V16H1.5a.5.5,0,0,0,0,1H3v2.5a4.583,4.583,0,0,0,.028.5H1.5a.5.5,0,0,0,0,1H3.257A4.508,4.508,0,0,0,7.5,24h11A4.505,4.505,0,0,0,23,19.5V4.5A4.505,4.505,0,0,0,18.5,0ZM22,19.5A3.5,3.5,0,0,1,18.5,23H7.5A3.5,3.5,0,0,1,4,19.5V4.5A3.5,3.5,0,0,1,7.5,1h11A3.5,3.5,0,0,1,22,4.5ZM13,12a3,3,0,1,0-3-3A3,3,0,0,0,13,12Zm0-5a2,2,0,1,1-2,2A2,2,0,0,1,13,7Zm5,11v.5a.5.5,0,0,1-1,0V18a4,4,0,0,0-8,0v.5a.5.5,0,0,1-1,0V18a5,5,0,0,1,10,0Z" transform="translate(175 678)"/>
  </g>
</svg>
