<svg xmlns="http://www.w3.org/2000/svg" xmlns:xlink="http://www.w3.org/1999/xlink" width="24" height="24" viewBox="0 0 24 24">
  <defs>
    <linearGradient id="linear-gradient" x1="0.5" x2="0.5" y2="1" gradientUnits="objectBoundingBox">
      <stop offset="0" stop-color="#f3c65d"/>
      <stop offset="1" stop-color="#e59f00"/>
    </linearGradient>
  </defs>
  <g id="Group_13872" data-name="Group 13872" transform="translate(-194 -194)">
    <rect id="Rectangle_9295" data-name="Rectangle 9295" width="5" height="5" rx="2.5" transform="translate(199 209)" fill="url(#linear-gradient)"/>
    <path id="house-building" d="M18,13.5a.5.5,0,0,1,.5-.5h1a.5.5,0,0,1,0,1h-1A.5.5,0,0,1,18,13.5Zm.5,4.5h1a.5.5,0,0,0,0-1h-1a.5.5,0,0,0,0,1Zm-4-12h1a.5.5,0,0,0,0-1h-1a.5.5,0,0,0,0,1Zm4,0h1a.5.5,0,0,0,0-1h-1a.5.5,0,0,0,0,1Zm0,4h1a.5.5,0,0,0,0-1h-1a.5.5,0,0,0,0,1Zm-3-1h-1a.5.5,0,0,0,0,1h1a.5.5,0,0,0,0-1Zm4-9h-5A4.505,4.505,0,0,0,10,4.5v3a.5.5,0,0,0,1,0v-3A3.5,3.5,0,0,1,14.5,1h5A3.5,3.5,0,0,1,23,4.5v15A3.5,3.5,0,0,1,19.5,23h-3a.5.5,0,0,0,0,1h3A4.505,4.505,0,0,0,24,19.5V4.5A4.505,4.505,0,0,0,19.5,0ZM15,15.848V20a4,4,0,0,1-4,4H4a4,4,0,0,1-4-4V15.848A4.475,4.475,0,0,1,1.727,12.3l3-2.348a4.493,4.493,0,0,1,5.546,0l3,2.348A4.475,4.475,0,0,1,15,15.848Zm-1,0a3.479,3.479,0,0,0-1.344-2.757l-3-2.348a3.494,3.494,0,0,0-4.313,0l-3,2.348A3.482,3.482,0,0,0,1,15.848V20a3,3,0,0,0,3,3h7a3,3,0,0,0,3-3ZM10,16.5v2A1.5,1.5,0,0,1,8.5,20h-2A1.5,1.5,0,0,1,5,18.5v-2A1.5,1.5,0,0,1,6.5,15h2A1.5,1.5,0,0,1,10,16.5Zm-1,0a.5.5,0,0,0-.5-.5h-2a.5.5,0,0,0-.5.5v2a.5.5,0,0,0,.5.5h2a.5.5,0,0,0,.5-.5Z" transform="translate(194 194)"/>
  </g>
</svg>
