<svg xmlns="http://www.w3.org/2000/svg" xmlns:xlink="http://www.w3.org/1999/xlink" width="47.783" height="42.142" viewBox="0 0 47.783 42.142">
  <defs>
    <filter id="Line_103" x="0" y="0" width="44.075" height="22.26" filterUnits="userSpaceOnUse">
      <feOffset dy="3" input="SourceAlpha"/>
      <feGaussianBlur stdDeviation="3" result="blur"/>
      <feFlood flood-opacity="0.161"/>
      <feComposite operator="in" in2="blur"/>
      <feComposite in="SourceGraphic"/>
    </filter>
    <linearGradient id="linear-gradient" x1="0.5" x2="0.5" y2="1" gradientUnits="objectBoundingBox">
      <stop offset="0" stop-color="#f3c65d"/>
      <stop offset="1" stop-color="#e59f00"/>
    </linearGradient>
    <filter id="Line_104" x="0" y="9.897" width="47.783" height="22.26" filterUnits="userSpaceOnUse">
      <feOffset dy="3" input="SourceAlpha"/>
      <feGaussianBlur stdDeviation="3" result="blur-2"/>
      <feFlood flood-opacity="0.161"/>
      <feComposite operator="in" in2="blur-2"/>
      <feComposite in="SourceGraphic"/>
    </filter>
    <filter id="Line_105" x="0" y="19.795" width="40.21" height="22.347" filterUnits="userSpaceOnUse">
      <feOffset dy="3" input="SourceAlpha"/>
      <feGaussianBlur stdDeviation="3" result="blur-3"/>
      <feFlood flood-opacity="0.161"/>
      <feComposite operator="in" in2="blur-3"/>
      <feComposite in="SourceGraphic"/>
    </filter>
  </defs>
  <g id="Group_8372" data-name="Group 8372" transform="translate(-1576.194 -29.832)" opacity="0">
    <g id="Group_8260" data-name="Group 8260" transform="translate(1585.194 35.832)">
      <g transform="matrix(1, 0, 0, 1, -9, -6)" filter="url(#Line_103)">
        <path id="Line_103-2" data-name="Line 103" d="M21.62,1.76H-.545A2.048,2.048,0,0,1-2.5-.37,2.048,2.048,0,0,1-.545-2.5H21.62A2.048,2.048,0,0,1,23.575-.37,2.048,2.048,0,0,1,21.62,1.76Z" transform="translate(11.5 8.5)" fill="#063354"/>
      </g>
      <g transform="matrix(1, 0, 0, 1, -9, -6)" filter="url(#Line_104)">
        <path id="Line_104-2" data-name="Line 104" d="M25.716,1.76H-.933C-1.8,1.76-2.5.806-2.5-.37S-1.8-2.5-.933-2.5H25.716c.865,0,1.567.954,1.567,2.13S26.582,1.76,25.716,1.76Z" transform="translate(11.5 18.4)" fill="url(#linear-gradient)"/>
      </g>
      <g transform="matrix(1, 0, 0, 1, -9, -6)" filter="url(#Line_105)">
        <path id="Line_105-2" data-name="Line 105" d="M17.576,1.847h-.011L-.376,1.76A2.132,2.132,0,0,1-2.5-.38,2.132,2.132,0,0,1-.355-2.5l17.942.087A2.132,2.132,0,0,1,19.71-.272,2.132,2.132,0,0,1,17.576,1.847Z" transform="translate(11.5 28.29)" fill="#063354"/>
      </g>
    </g>
  </g>
</svg>
