<svg xmlns="http://www.w3.org/2000/svg" xmlns:xlink="http://www.w3.org/1999/xlink" width="58" height="58" viewBox="0 0 58 58">
  <defs>
    <filter id="Path_15552" x="0" y="0" width="58" height="58" filterUnits="userSpaceOnUse">
      <feOffset dy="3" input="SourceAlpha"/>
      <feGaussianBlur stdDeviation="3" result="blur"/>
      <feFlood flood-opacity="0.161"/>
      <feComposite operator="in" in2="blur"/>
      <feComposite in="SourceGraphic"/>
    </filter>
    <linearGradient id="linear-gradient" x1="0.5" x2="0.5" y2="1" gradientUnits="objectBoundingBox">
      <stop offset="0" stopColor="#f3c65d"/>
      <stop offset="1" stopColor="#e59f00"/>
    </linearGradient>
    <filter id="Path_15162" x="5.566" y="5.711" width="46.868" height="46.868" filterUnits="userSpaceOnUse">
      <feOffset dy="3" input="SourceAlpha"/>
      <feGaussianBlur stdDeviation="3" result="blur-2"/>
      <feFlood flood-opacity="0.161"/>
      <feComposite operator="in" in2="blur-2"/>
      <feComposite in="SourceGraphic"/>
    </filter>
  </defs>
  <g id="diamond-arrow-down_duo" transform="translate(49 6) rotate(90)">
    <g transform="matrix(0, -1, 1, 0, -6, 49)" filter="url(#Path_15552)">
      <path id="Path_15552-2" data-name="Path 15552" d="M24.874,38.079A7.9,7.9,0,0,1,20,40a7.9,7.9,0,0,1-4.874-1.922,58.3,58.3,0,0,1-5.192-4.841L6.763,30.066a58.3,58.3,0,0,1-4.841-5.192A7.9,7.9,0,0,1,0,20a7.9,7.9,0,0,1,1.921-4.874A58.294,58.294,0,0,1,6.763,9.935L9.935,6.763a58.3,58.3,0,0,1,5.192-4.841A7.9,7.9,0,0,1,20,0a7.9,7.9,0,0,1,4.874,1.921,58.3,58.3,0,0,1,5.192,4.841l3.172,3.172a58.3,58.3,0,0,1,4.841,5.192A7.9,7.9,0,0,1,40,20a7.9,7.9,0,0,1-1.921,4.874,58.312,58.312,0,0,1-4.841,5.192l-3.172,3.172A58.279,58.279,0,0,1,24.874,38.079Z" transform="translate(49 6) rotate(90)" fillRule="evenodd" opacity="0.4"/>
    </g>
    <g transform="matrix(0, -1, 1, 0, -6, 49)" filter="url(#Path_15162)">
      <path id="Path_15162-2" data-name="Path 15162" d="M17.951,27.481a5.7,5.7,0,0,1-3.517,1.387,5.7,5.7,0,0,1-3.517-1.387A42.074,42.074,0,0,1,7.17,23.987L4.881,21.7a42.078,42.078,0,0,1-3.494-3.747A5.7,5.7,0,0,1,0,14.434a5.7,5.7,0,0,1,1.387-3.517A42.07,42.07,0,0,1,4.881,7.17L7.17,4.881a42.072,42.072,0,0,1,3.747-3.494A5.7,5.7,0,0,1,14.434,0a5.7,5.7,0,0,1,3.517,1.387A42.075,42.075,0,0,1,21.7,4.881L23.987,7.17a42.074,42.074,0,0,1,3.494,3.747,5.7,5.7,0,0,1,1.387,3.517,5.7,5.7,0,0,1-1.387,3.517A42.084,42.084,0,0,1,23.987,21.7L21.7,23.987A42.059,42.059,0,0,1,17.951,27.481Z" transform="translate(43.43 11.71) rotate(90)" fillRule="evenodd" fill="url(#linear-gradient)"/>
    </g>
    <path id="Path_15163" data-name="Path 15163" d="M5.459,0A1.092,1.092,0,0,1,6.55,1.092V8.936l2.5-2.5A1.092,1.092,0,0,1,10.6,7.977L6.231,12.344a1.092,1.092,0,0,1-1.544,0L.32,7.977A1.092,1.092,0,0,1,1.864,6.433l2.5,2.5V1.092A1.092,1.092,0,0,1,5.459,0Z" transform="translate(14.541 13.668)" fill="#063354" fillRule="evenodd"/>
  </g>
</svg>
