<svg id="Icon_feather-search" data-name="Icon feather-search" xmlns="http://www.w3.org/2000/svg" width="18" height="18.862" viewBox="0 0 18 18.862">
  <path id="Path_11587" data-name="Path 11587" d="M11.958,4A7.958,7.958,0,1,1,4,11.958,7.967,7.967,0,0,1,11.958,4Zm0,14.716A6.758,6.758,0,1,0,5.2,11.958,6.766,6.766,0,0,0,11.958,18.716Z" transform="translate(-4 -4)" fill="#7e7e7e"/>
  <path id="Path_11588" data-name="Path 11588" d="M29.69,30.369a.678.678,0,0,1-.481-.2l-4.535-4.535a.68.68,0,0,1,.961-.961l4.535,4.535a.68.68,0,0,1-.481,1.16Z" transform="translate(-12.369 -11.507)" fill="#7e7e7e"/>
</svg>
