<svg id="Icon_ionic-ios-notifications-outline" data-name="Icon ionic-ios-notifications-outline" xmlns="http://www.w3.org/2000/svg" width="23.737" height="29.711" viewBox="0 0 23.737 29.711">
  <path id="Path_11489" data-name="Path 11489" d="M20.688,28.336a.962.962,0,0,0-.943.757,1.861,1.861,0,0,1-.371.809,1.4,1.4,0,0,1-1.2.438,1.427,1.427,0,0,1-1.2-.438,1.861,1.861,0,0,1-.371-.809.962.962,0,0,0-.943-.757h0a.968.968,0,0,0-.943,1.181,3.318,3.318,0,0,0,3.453,2.755,3.312,3.312,0,0,0,3.453-2.755.972.972,0,0,0-.943-1.181Z" transform="translate(-6.33 -2.561)" fill="#063354"/>
  <path id="Path_11490" data-name="Path 11490" d="M30.214,25.933c-1.144-1.507-3.394-2.391-3.394-9.141,0-6.928-3.059-9.713-5.911-10.381-.267-.067-.46-.156-.46-.438V5.757A1.821,1.821,0,0,0,18.667,3.93h-.045A1.821,1.821,0,0,0,16.84,5.757v.215c0,.275-.193.371-.46.438-2.859.676-5.911,3.453-5.911,10.381,0,6.75-2.25,7.626-3.394,9.141a1.474,1.474,0,0,0,1.181,2.361h20.8A1.475,1.475,0,0,0,30.214,25.933Zm-2.9.431H10a.326.326,0,0,1-.245-.542,9,9,0,0,0,1.559-2.48,16.828,16.828,0,0,0,1.062-6.55,11.388,11.388,0,0,1,1.552-6.446A4.765,4.765,0,0,1,16.8,8.3a2.6,2.6,0,0,0,1.381-.78.587.587,0,0,1,.884-.015,2.69,2.69,0,0,0,1.4.795,4.765,4.765,0,0,1,2.874,2.05,11.388,11.388,0,0,1,1.552,6.446,16.828,16.828,0,0,0,1.062,6.55,9.1,9.1,0,0,0,1.6,2.517A.307.307,0,0,1,27.318,26.364Z" transform="translate(-6.775 -3.93)" fill="#063354"/>
</svg>
