<svg xmlns="http://www.w3.org/2000/svg" width="17.138" height="17.137" viewBox="0 0 17.138 17.137">
  <g id="Icon_feather-search" data-name="Icon feather-search" transform="translate(-0.862 -0.862)">
    <path id="Path_11587" data-name="Path 11587" d="M11.1,4A7.1,7.1,0,1,1,4,11.1,7.1,7.1,0,0,1,11.1,4Zm0,13.121A6.026,6.026,0,1,0,5.069,11.1,6.033,6.033,0,0,0,11.1,17.121Z" transform="translate(-3.138 -3.138)" fill="#7e7e7e"/>
    <path id="Path_11588" data-name="Path 11588" d="M29.69,30.369a.678.678,0,0,1-.481-.2l-4.535-4.535a.68.68,0,0,1,.961-.961l4.535,4.535a.68.68,0,0,1-.481,1.16Z" transform="translate(-12.369 -12.37)" fill="#7e7e7e"/>
  </g>
</svg>
