<svg id="Group_13925" data-name="Group 13925" xmlns="http://www.w3.org/2000/svg" xmlns:xlink="http://www.w3.org/1999/xlink" width="20" height="20" viewBox="0 0 20 20">
  <defs>
    <linearGradient id="linear-gradient" x1="0.5" x2="0.5" y2="1" gradientUnits="objectBoundingBox">
      <stop offset="0" stop-color="#f3c65d"/>
      <stop offset="1" stop-color="#e59f00"/>
    </linearGradient>
  </defs>
  <circle id="Ellipse_812" data-name="Ellipse 812" cx="2.342" cy="2.342" r="2.342" transform="translate(7.658 8.582)" fill="url(#linear-gradient)"/>
  <path id="Rectangle_9305" data-name="Rectangle 9305" d="M2,0H2A2,2,0,0,1,4,2V4.667A1.333,1.333,0,0,1,2.667,6H1.333A1.333,1.333,0,0,1,0,4.667V2A2,2,0,0,1,2,0Z" transform="translate(8)" fill="url(#linear-gradient)"/>
  <path id="id-card-clip-alt" d="M16.25,3.333H12.5V2.5a2.5,2.5,0,0,0-5,0v.833H3.75A3.755,3.755,0,0,0,0,7.083V16.25A3.755,3.755,0,0,0,3.75,20h12.5A3.755,3.755,0,0,0,20,16.25V7.083A3.755,3.755,0,0,0,16.25,3.333ZM8.333,2.5a1.667,1.667,0,1,1,3.333,0V5.417a.417.417,0,0,1-.417.417H8.75a.417.417,0,0,1-.417-.417ZM19.167,16.25a2.92,2.92,0,0,1-2.917,2.917H3.75A2.92,2.92,0,0,1,.833,16.25V7.083A2.92,2.92,0,0,1,3.75,4.167H7.5v1.25a1.252,1.252,0,0,0,1.25,1.25h2.5a1.252,1.252,0,0,0,1.25-1.25V4.167h3.75a2.92,2.92,0,0,1,2.917,2.917ZM10,13.333a2.5,2.5,0,1,0-2.5-2.5A2.5,2.5,0,0,0,10,13.333Zm0-4.167a1.667,1.667,0,1,1-1.667,1.667A1.668,1.668,0,0,1,10,9.167ZM14.154,17.4a.416.416,0,0,1-.3.5.423.423,0,0,1-.1.012.417.417,0,0,1-.4-.317,3.453,3.453,0,0,0-6.692,0,.417.417,0,0,1-.809-.2,4.285,4.285,0,0,1,8.308,0Z"/>
</svg>
