<svg xmlns="http://www.w3.org/2000/svg" xmlns:xlink="http://www.w3.org/1999/xlink" width="20" height="20.001" viewBox="0 0 20 20.001">
  <defs>
    <linearGradient id="linear-gradient" x1="0.5" x2="0.5" y2="1" gradientUnits="objectBoundingBox">
      <stop offset="0" stop-color="#f3c65d"/>
      <stop offset="1" stop-color="#e59f00"/>
    </linearGradient>
  </defs>
  <g id="Group_13931" data-name="Group 13931" transform="translate(0 0)">
    <g id="Group_13929" data-name="Group 13929" transform="translate(9.001 9)">
      <g id="Group_13928" data-name="Group 13928">
        <g id="Group_13928-2" data-name="Group 13928">
          <rect id="Rectangle_9307" data-name="Rectangle 9307" width="2" height="2" rx="1" fill="url(#linear-gradient)"/>
        </g>
      </g>
    </g>
    <path id="function-process" d="M17.5,7.5c-.072,0-.14.015-.21.022L15.643,4.509A2.494,2.494,0,1,0,11.71,2.085H8.293A2.5,2.5,0,1,0,4.36,4.509L2.711,7.522C2.64,7.517,2.573,7.5,2.5,7.5a2.5,2.5,0,0,0,0,5c.07,0,.136-.015.2-.021l1.653,3.014a2.494,2.494,0,1,0,3.933,2.424h3.418a2.5,2.5,0,1,0,3.919-2.437l1.668-3c.069.006.135.021.205.021a2.5,2.5,0,1,0,0-5ZM14.168.834A1.667,1.667,0,1,1,12.5,2.5,1.668,1.668,0,0,1,14.168.834Zm-8.334,0A1.667,1.667,0,1,1,4.167,2.5,1.668,1.668,0,0,1,5.834.834ZM.834,10A1.667,1.667,0,1,1,2.5,11.668,1.668,1.668,0,0,1,.834,10Zm5,9.167A1.667,1.667,0,1,1,7.5,17.5,1.668,1.668,0,0,1,5.834,19.168Zm8.334,0A1.667,1.667,0,1,1,15.835,17.5,1.668,1.668,0,0,1,14.168,19.168Zm.709-4.052A2.472,2.472,0,0,0,14.168,15a2.5,2.5,0,0,0-2.458,2.084H8.293a2.453,2.453,0,0,0-3.186-1.963L3.54,12.268a2.489,2.489,0,0,0,0-4.533L5.106,4.879A2.457,2.457,0,0,0,5.835,5,2.5,2.5,0,0,0,8.293,2.916H11.71A2.453,2.453,0,0,0,14.9,4.879l1.562,2.856a2.489,2.489,0,0,0,0,4.531l-1.583,2.849ZM17.5,11.668A1.667,1.667,0,1,1,19.168,10,1.668,1.668,0,0,1,17.5,11.668ZM10,8.334A1.667,1.667,0,1,0,11.668,10,1.668,1.668,0,0,0,10,8.334Zm0,2.5A.833.833,0,1,1,10.834,10,.834.834,0,0,1,10,10.834Zm4.08-2.223a1.25,1.25,0,0,0-1.849-1.384l-.218.129a3.275,3.275,0,0,0-.763-.432V6.668a1.25,1.25,0,0,0-2.5,0v.257a3.275,3.275,0,0,0-.763.432L7.77,7.227A1.251,1.251,0,0,0,6.495,9.379l.215.127a2.859,2.859,0,0,0,0,.992l-.215.127A1.25,1.25,0,1,0,7.77,12.775l.218-.128a3.3,3.3,0,0,0,.763.432v.257a1.25,1.25,0,1,0,2.5,0v-.257a3.305,3.305,0,0,0,.763-.432l.218.128a1.25,1.25,0,1,0,1.275-2.15l-.215-.127a2.859,2.859,0,0,0,0-.992l.215-.127a1.24,1.24,0,0,0,.574-.767ZM12.5,10a2.428,2.428,0,0,1-.083.6.419.419,0,0,0,.192.459l.471.279a.418.418,0,0,1-.11.763.422.422,0,0,1-.316-.047l-.47-.278a.419.419,0,0,0-.5.052,2.481,2.481,0,0,1-.978.553.416.416,0,0,0-.3.4v.552a.417.417,0,1,1-.833,0v-.552a.418.418,0,0,0-.3-.4,2.481,2.481,0,0,1-.978-.553.419.419,0,0,0-.283-.11.414.414,0,0,0-.213.058l-.47.279a.43.43,0,0,1-.316.046.416.416,0,0,1-.11-.763l.471-.279a.418.418,0,0,0,.192-.459A2.462,2.462,0,0,1,7.5,10a2.427,2.427,0,0,1,.083-.6.419.419,0,0,0-.192-.459L6.918,8.66a.417.417,0,0,1,.426-.718l.47.279a.419.419,0,0,0,.5-.052,2.482,2.482,0,0,1,.977-.552.416.416,0,0,0,.3-.4V6.667a.417.417,0,1,1,.833,0v.553a.417.417,0,0,0,.3.4,2.482,2.482,0,0,1,.977.552.415.415,0,0,0,.5.052l.47-.279a.417.417,0,1,1,.426.718l-.471.278a.418.418,0,0,0-.192.459,2.462,2.462,0,0,1,.083.6Z" transform="translate(-0.001 -0.001)"/>
  </g>
</svg>
