<svg id="Group_4092" data-name="Group 4092" xmlns="http://www.w3.org/2000/svg" width="26.45" height="23.5" viewBox="0 0 26.45 23.5">
  <circle id="Ellipse_139" data-name="Ellipse 139" cx="8.111" cy="8.111" r="8.111" transform="translate(10.228 7.278)" fill="#f3c65d"/>
  <path id="city" d="M13.637,11.932a.853.853,0,0,1-.852.852h-.852a.852.852,0,0,1,0-1.7h.852A.853.853,0,0,1,13.637,11.932Zm2.557-.852h-.852a.852.852,0,0,0,0,1.7h.852a.852.852,0,0,0,0-1.7Zm-3.409,3.409h-.852a.852.852,0,0,0,0,1.7h.852a.852.852,0,1,0,0-1.7Zm3.409,0h-.852a.852.852,0,0,0,0,1.7h.852a.852.852,0,1,0,0-1.7ZM12.785,4.262h-.852a.852.852,0,0,0,0,1.7h.852a.852.852,0,1,0,0-1.7Zm3.409,0h-.852a.852.852,0,0,0,0,1.7h.852a.852.852,0,1,0,0-1.7ZM12.785,7.671h-.852a.852.852,0,0,0,0,1.7h.852a.852.852,0,1,0,0-1.7Zm3.409,0h-.852a.852.852,0,0,0,0,1.7h.852a.852.852,0,0,0,0-1.7Zm4.262-3.409V16.194a4.266,4.266,0,0,1-4.262,4.262H4.262A4.266,4.266,0,0,1,0,16.194v-8.3A4.283,4.283,0,0,1,1.3,4.822l1.609-1.55a2.548,2.548,0,0,1,3.547,0L7.671,4.437V4.262A4.266,4.266,0,0,1,11.932,0h4.262a4.266,4.266,0,0,1,4.262,4.262ZM7.671,7.891a2.571,2.571,0,0,0-.783-1.842L5.278,4.5A.848.848,0,0,0,4.1,4.5L2.488,6.049A2.569,2.569,0,0,0,1.7,7.891v8.3a2.56,2.56,0,0,0,2.557,2.557H7.671V7.891Zm11.08-3.629A2.56,2.56,0,0,0,16.194,1.7H11.932A2.56,2.56,0,0,0,9.375,4.262V18.751h6.819a2.56,2.56,0,0,0,2.557-2.557V4.262ZM5.114,11.08H4.262a.852.852,0,0,0,0,1.7h.852a.852.852,0,0,0,0-1.7Zm0-3.409H4.262a.852.852,0,0,0,0,1.7h.852a.852.852,0,0,0,0-1.7Zm0,6.819H4.262a.852.852,0,1,0,0,1.7h.852a.852.852,0,1,0,0-1.7Z" transform="translate(0 0)" fill="#063354"/>
</svg>
