<svg id="Group_4092" data-name="Group 4092" xmlns="http://www.w3.org/2000/svg" width="26.45" height="23.5" viewBox="0 0 26.45 23.5">
  <circle id="Ellipse_139" data-name="Ellipse 139" cx="8.111" cy="8.111" r="8.111" transform="translate(10.228 7.278)" fill="#f3c65d"/>
  <path id="house-building_2_" data-name="house-building (2)" d="M16.175,12.769h-.851a.851.851,0,1,1,0-1.7h.851a.851.851,0,1,1,0,1.7Zm.851,2.554a.851.851,0,0,0-.851-.851h-.851a.851.851,0,1,0,0,1.7h.851A.851.851,0,0,0,17.026,15.323ZM13.621,5.108a.851.851,0,0,0-.851-.851h-.851a.851.851,0,0,0,0,1.7h.851A.851.851,0,0,0,13.621,5.108Zm3.405,0a.851.851,0,0,0-.851-.851h-.851a.851.851,0,1,0,0,1.7h.851A.851.851,0,0,0,17.026,5.108Zm0,3.405a.851.851,0,0,0-.851-.851h-.851a.851.851,0,1,0,0,1.7h.851A.851.851,0,0,0,17.026,8.513Zm3.405,7.662V4.256A4.261,4.261,0,0,0,16.175,0H11.918A4.261,4.261,0,0,0,7.662,4.256a.851.851,0,1,0,1.7,0A2.557,2.557,0,0,1,11.918,1.7h4.256a2.557,2.557,0,0,1,2.554,2.554V16.175a2.557,2.557,0,0,1-2.554,2.554h-.851a.851.851,0,1,0,0,1.7h.851A4.261,4.261,0,0,0,20.431,16.175Zm-6.81.426V13.066a4.232,4.232,0,0,0-1.634-3.352l-2.554-2a4.251,4.251,0,0,0-5.246,0l-2.554,2A4.231,4.231,0,0,0,0,13.065V16.6A3.836,3.836,0,0,0,3.831,20.43H9.79A3.836,3.836,0,0,0,13.621,16.6ZM8.384,9.055l2.554,2a2.542,2.542,0,0,1,.98,2.012V16.6A2.13,2.13,0,0,1,9.79,18.729H3.831A2.13,2.13,0,0,1,1.7,16.6V13.066a2.541,2.541,0,0,1,.98-2.012l2.554-2a2.551,2.551,0,0,1,3.148,0Zm.129,6.268v-1.7a.852.852,0,0,0-.851-.851h-1.7a.852.852,0,0,0-.851.851v1.7a.852.852,0,0,0,.851.851h1.7A.852.852,0,0,0,8.513,15.323Z" fill="#063354"/>
</svg>
