<svg xmlns="http://www.w3.org/2000/svg" xmlns:xlink="http://www.w3.org/1999/xlink" width="22" height="22" viewBox="0 0 22 22">
  <defs>
    <linearGradient id="linear-gradient" x1="0.5" x2="0.5" y2="1" gradientUnits="objectBoundingBox">
      <stop offset="0" stop-color="#f3c65d"/>
      <stop offset="1" stop-color="#e59f00"/>
    </linearGradient>
  </defs>
  <g id="Group_13968" data-name="Group 13968" transform="translate(-194 -194)">
    <path id="Path_21438" data-name="Path 21438" d="M1,0H3A1,1,0,0,1,4,1V3c0,.552-.448.392-1,.392H1.266c-.552,0-.738-.056-.738-.608V1C.527.448.448,0,1,0Z" transform="translate(198.489 208.391)" fill="url(#linear-gradient)"/>
    <path id="house-building" d="M16.5,12.375a.458.458,0,0,1,.458-.458h.917a.458.458,0,0,1,0,.917h-.917A.458.458,0,0,1,16.5,12.375Zm.458,4.125h.917a.458.458,0,0,0,0-.917h-.917a.458.458,0,0,0,0,.917Zm-3.667-11h.917a.458.458,0,1,0,0-.917h-.917a.458.458,0,1,0,0,.917Zm3.667,0h.917a.458.458,0,0,0,0-.917h-.917a.458.458,0,0,0,0,.917Zm0,3.667h.917a.458.458,0,0,0,0-.917h-.917a.458.458,0,0,0,0,.917Zm-2.75-.917h-.917a.458.458,0,1,0,0,.917h.917a.458.458,0,1,0,0-.917ZM17.875,0H13.292A4.13,4.13,0,0,0,9.167,4.125v2.75a.458.458,0,1,0,.917,0V4.125A3.212,3.212,0,0,1,13.292.917h4.583a3.212,3.212,0,0,1,3.208,3.208v13.75a3.212,3.212,0,0,1-3.208,3.208h-2.75a.458.458,0,0,0,0,.917h2.75A4.13,4.13,0,0,0,22,17.875V4.125A4.13,4.13,0,0,0,17.875,0ZM13.75,14.527v3.806A3.67,3.67,0,0,1,10.083,22H3.667A3.67,3.67,0,0,1,0,18.333V14.527a4.1,4.1,0,0,1,1.583-3.249l2.75-2.152a4.119,4.119,0,0,1,5.084,0l2.751,2.152a4.1,4.1,0,0,1,1.583,3.249Zm-.917,0A3.189,3.189,0,0,0,11.6,12L8.851,9.848a3.2,3.2,0,0,0-3.954,0L2.149,12A3.192,3.192,0,0,0,.917,14.527v3.806a2.753,2.753,0,0,0,2.75,2.75h6.417a2.753,2.753,0,0,0,2.75-2.75Zm-3.667.6v1.833a1.377,1.377,0,0,1-1.375,1.375H5.958a1.377,1.377,0,0,1-1.375-1.375V15.125A1.377,1.377,0,0,1,5.958,13.75H7.792A1.377,1.377,0,0,1,9.167,15.125Zm-.917,0a.46.46,0,0,0-.458-.458H5.958a.46.46,0,0,0-.458.458v1.833a.46.46,0,0,0,.458.458H7.792a.46.46,0,0,0,.458-.458Z" transform="translate(194 194)"/>
  </g>
</svg>
