<svg xmlns="http://www.w3.org/2000/svg" xmlns:xlink="http://www.w3.org/1999/xlink" width="20" height="20" viewBox="0 0 20 20">
  <defs>
    <linearGradient id="linear-gradient" x1="0.5" x2="0.5" y2="1" gradientUnits="objectBoundingBox">
      <stop offset="0" stop-color="#f3c65d"/>
      <stop offset="1" stop-color="#e59f00"/>
    </linearGradient>
  </defs>
  <g id="Group_13971" data-name="Group 13971" transform="translate(-702 -116)">
    <g id="Group_13971-2" data-name="Group 13971">
      <path id="Rectangle_9314" data-name="Rectangle 9314" d="M5,0H15a5,5,0,0,1,5,5V5a0,0,0,0,1,0,0H0A0,0,0,0,1,0,5V5A5,5,0,0,1,5,0Z" transform="translate(702 118)" fill="url(#linear-gradient)"/>
      <path id="calendar-check" d="M16.25,1.667H15V.417a.417.417,0,0,0-.833,0v1.25H5.833V.417A.417.417,0,1,0,5,.417v1.25H3.75A3.755,3.755,0,0,0,0,5.417V16.25A3.755,3.755,0,0,0,3.75,20h12.5A3.755,3.755,0,0,0,20,16.25V5.417A3.755,3.755,0,0,0,16.25,1.667ZM3.75,2.5h12.5a2.92,2.92,0,0,1,2.917,2.917v1.25H.833V5.417A2.92,2.92,0,0,1,3.75,2.5Zm12.5,16.667H3.75A2.92,2.92,0,0,1,.833,16.25V7.5H19.167v8.75A2.92,2.92,0,0,1,16.25,19.167Zm-.543-9.049a.417.417,0,0,1-.008.589L10.2,16.06a2.085,2.085,0,0,1-2.943,0L4.29,13.222a.417.417,0,1,1,.576-.6L7.84,15.46a1.276,1.276,0,0,0,1.775.007l5.5-5.358a.417.417,0,0,1,.589.008Z" transform="translate(702 116)"/>
    </g>
  </g>
</svg>
