<svg xmlns="http://www.w3.org/2000/svg" xmlns:xlink="http://www.w3.org/1999/xlink" width="20" height="20.001" viewBox="0 0 20 20.001">
  <defs>
    <linearGradient id="linear-gradient" x1="0.5" x2="0.5" y2="1" gradientUnits="objectBoundingBox">
      <stop offset="0" stop-color="#f3c65d"/>
      <stop offset="1" stop-color="#e59f00"/>
    </linearGradient>
  </defs>
  <g id="Group_13969" data-name="Group 13969" transform="translate(-724 -123)">
    <path id="Path_21439" data-name="Path 21439" d="M9.107,3.077c1-.889,1.945-.449,1.7.865l.079.4A1.341,1.341,0,0,0,11.8,5.859l.7.043c1.244.442,1.127,1.427-.117,1.869l-.591.312a1.851,1.851,0,0,0-.966,1.9l.269.573c.247,1.315-.31,1.842-1.31.953l-.385-.414a1.678,1.678,0,0,0-2.053-.169l-.746.742c-1,.889-1.649.144-1.4-1.171l-.023-.678c.127-.679-.6-1.28-1.246-1.512l-.52-.047c-1.244-.442-1.136-1.4.109-1.846l.643-.181c.651-.231.914-1.415.786-2.094l-.11-.315C4.6,2.506,5.362,1.794,6.362,2.683l.283.442a2.316,2.316,0,0,0,2.462-.048Z" transform="matrix(0.891, -0.454, 0.454, 0.891, 723.645, 130.264)" fill="url(#linear-gradient)"/>
    <path id="operation" d="M10.009,8.333A1.667,1.667,0,1,0,11.677,10,1.669,1.669,0,0,0,10.009,8.333Zm0,2.5A.833.833,0,1,1,10.843,10,.835.835,0,0,1,10.009,10.833Zm5.042-3.774a1.253,1.253,0,0,0-1.712-.449l-.535.312a4.14,4.14,0,0,0-1.546-.89V5.417a1.251,1.251,0,0,0-2.5,0v.615a4.133,4.133,0,0,0-1.546.89L6.677,6.61A1.25,1.25,0,1,0,5.415,8.768l.539.314a3.66,3.66,0,0,0,0,1.834l-.539.314A1.25,1.25,0,1,0,6.676,13.39l.535-.312a4.149,4.149,0,0,0,1.546.89v.615a1.251,1.251,0,0,0,2.5,0v-.615a4.144,4.144,0,0,0,1.546-.89l.535.312A1.25,1.25,0,1,0,14.6,11.231l-.539-.314a3.66,3.66,0,0,0,0-1.834l.539-.314a1.251,1.251,0,0,0,.45-1.71Zm-.677.737a.417.417,0,0,1-.193.254l-.817.477a.416.416,0,0,0-.188.485,3.29,3.29,0,0,1,.168.99,3.247,3.247,0,0,1-.168.99.415.415,0,0,0,.188.484l.817.476a.417.417,0,1,1-.42.72l-.81-.473a.418.418,0,0,0-.515.074,3.32,3.32,0,0,1-1.686.971.417.417,0,0,0-.324.406v.933a.417.417,0,0,1-.834,0V13.65a.416.416,0,0,0-.324-.406,3.313,3.313,0,0,1-1.686-.971.418.418,0,0,0-.515-.075l-.81.472a.419.419,0,0,1-.571-.15.417.417,0,0,1,.149-.57l.817-.476a.416.416,0,0,0,.188-.484,3,3,0,0,1,0-1.981.415.415,0,0,0-.188-.484l-.817-.477a.416.416,0,0,1,.105-.762.407.407,0,0,1,.316.043l.81.473a.415.415,0,0,0,.515-.075,3.319,3.319,0,0,1,1.686-.971.416.416,0,0,0,.324-.406V5.417a.417.417,0,0,1,.834,0v.934a.418.418,0,0,0,.324.407,3.312,3.312,0,0,1,1.686.97.416.416,0,0,0,.515.075l.81-.473a.416.416,0,0,1,.613.465ZM20,10.435A10,10,0,0,1,2.505,16.606c0,.022-.013.04-.013.062v2.917a.417.417,0,0,1-.834,0V16.667A1.669,1.669,0,0,1,3.327,15H6.246a.417.417,0,1,1,0,.833H3.327A.831.831,0,0,0,3,15.9a9.163,9.163,0,0,0,16.168-5.5A.424.424,0,0,1,19.6,10a.417.417,0,0,1,.4.434ZM.833,9.6a.417.417,0,0,1-.416.4H.4A.417.417,0,0,1,0,9.566,10,10,0,0,1,17.494,3.395c0-.022.013-.04.013-.062V.417a.417.417,0,0,1,.834,0V3.333A1.669,1.669,0,0,1,16.672,5H13.753a.417.417,0,1,1,0-.833h2.919A.824.824,0,0,0,17,4.1,9.165,9.165,0,0,0,.833,9.6Z" transform="translate(724 123)"/>
  </g>
</svg>
