
<svg xmlns="http://www.w3.org/2000/svg" xmlns:xlink="http://www.w3.org/1999/xlink" width="58.12" height="58.12" viewBox="0 0 58.12 58.12">
  <defs>
    <filter id="Path_15552" x="0" y="0" width="58.12" height="58.12" filterUnits="userSpaceOnUse">
      <feOffset dy="3" input="SourceAlpha"/>
      <feGaussianBlur stdDeviation="3" result="blur"/>
      <feFlood flood-opacity="0.161"/>
      <feComposite operator="in" in2="blur"/>
      <feComposite in="SourceGraphic"/>
    </filter>
    <linearGradient id="linear-gradient" x1="0.5" x2="0.5" y2="1" gradientUnits="objectBoundingBox">
      <stop offset="0" stop-color="#f3c65d"/>
      <stop offset="1" stop-color="#e59f00"/>
    </linearGradient>
  </defs>
  <g id="Group_11520" data-name="Group 11520" transform="translate(9 6)">
    <g id="Group_9211" data-name="Group 9211" transform="translate(0 0)">
      <g transform="matrix(1, 0, 0, 1, -9, -6)" filter="url(#Path_15552)">
        <path id="Path_15552-2" data-name="Path 15552" d="M24.948,38.192A7.927,7.927,0,0,1,20.06,40.12a7.927,7.927,0,0,1-4.888-1.927,58.474,58.474,0,0,1-5.207-4.856L6.783,30.155a58.479,58.479,0,0,1-4.856-5.207A7.927,7.927,0,0,1,0,20.06a7.927,7.927,0,0,1,1.927-4.888A58.468,58.468,0,0,1,6.783,9.964L9.964,6.783a58.47,58.47,0,0,1,5.207-4.856A7.927,7.927,0,0,1,20.06,0a7.927,7.927,0,0,1,4.888,1.927,58.476,58.476,0,0,1,5.207,4.856l3.181,3.181a58.475,58.475,0,0,1,4.856,5.207A7.927,7.927,0,0,1,40.12,20.06a7.927,7.927,0,0,1-1.927,4.888,58.487,58.487,0,0,1-4.856,5.207l-3.181,3.181A58.453,58.453,0,0,1,24.948,38.192Z" transform="translate(9 6)" fill="#f3c65d" fill-rule="evenodd" opacity="0.4"/>
      </g>
      <path id="Path_15162" data-name="Path 15162" d="M17.737,27.154a5.636,5.636,0,0,1-3.475,1.37,5.636,5.636,0,0,1-3.475-1.37,41.574,41.574,0,0,1-3.7-3.452L4.823,21.44a41.578,41.578,0,0,1-3.452-3.7A5.636,5.636,0,0,1,0,14.262a5.636,5.636,0,0,1,1.37-3.475,41.569,41.569,0,0,1,3.452-3.7L7.084,4.823a41.571,41.571,0,0,1,3.7-3.452A5.636,5.636,0,0,1,14.262,0a5.636,5.636,0,0,1,3.475,1.37,41.575,41.575,0,0,1,3.7,3.452L23.7,7.084a41.574,41.574,0,0,1,3.452,3.7,5.636,5.636,0,0,1,1.37,3.475,5.636,5.636,0,0,1-1.37,3.475,41.583,41.583,0,0,1-3.452,3.7L21.44,23.7A41.559,41.559,0,0,1,17.737,27.154Z" transform="translate(5.489 6.038)" fill-rule="evenodd" fill="url(#linear-gradient)"/>
      <path id="Path_15562" data-name="Path 15562" d="M1.607,12.955V6.876H0V4.688H1.607V2.818C1.607,1.349,2.557,0,4.745,0A13.289,13.289,0,0,1,6.286.085L6.234,2.129s-.668-.007-1.4-.007c-.789,0-.915.364-.915.967v1.6H6.3l-.1,2.189H3.922v6.079H1.607" transform="translate(16.911 13.941)"/>
    </g>
  </g>
</svg>
