<svg
      id="Group_8359"
      data-name="Group 8359"
      xmlns="http://www.w3.org/2000/svg"
      width="24.617"
      height="26.661"
      viewBox="0 0 24.617 26.661"
    >
      <path
        id="Path_15230"
        data-name="Path 15230"
        d="M1138.916,1098.774l15.964,8.727-4.463,4.332-13.1-12.827A1.341,1.341,0,0,1,1138.916,1098.774Z"
        transform="translate(-1136.926 -1098.608)"
        fill="#0ae577"
      />
      <path
        id="Path_15231"
        data-name="Path 15231"
        d="M1142.1,1120.24l-13.249,12.861a1.33,1.33,0,0,1-.241-.771v-23.968a1.321,1.321,0,0,1,.392-.949Z"
        transform="translate(-1128.611 -1107.016)"
        fill="#40c3ff"
      />
      <path
        id="Path_15232"
        data-name="Path 15232"
        d="M1438.285,1299.125a1.344,1.344,0,0,1,0,2.36l-5.849,3.2-4.577-4.482,4.463-4.332Z"
        transform="translate(-1414.369 -1286.974)"
        fill="#ffc826"
      />
      <path
        id="Path_15233"
        data-name="Path 15233"
        d="M1151.779,1396.444l-16.078,8.788a1.345,1.345,0,0,1-1.748-.409l13.249-12.861Z"
        transform="translate(-1133.712 -1378.738)"
        fill="#ff3945"
      />
    </svg>