
<svg xmlns="http://www.w3.org/2000/svg" xmlns:xlink="http://www.w3.org/1999/xlink" width="58.12" height="58.12" viewBox="0 0 58.12 58.12">
  <defs>
    <filter id="Path_15566" x="0" y="0" width="58.12" height="58.12" filterUnits="userSpaceOnUse">
      <feOffset dy="3" input="SourceAlpha"/>
      <feGaussianBlur stdDeviation="3" result="blur"/>
      <feFlood flood-opacity="0.161"/>
      <feComposite operator="in" in2="blur"/>
      <feComposite in="SourceGraphic"/>
    </filter>
    <linearGradient id="linear-gradient" x1="0.5" x2="0.5" y2="1" gradientUnits="objectBoundingBox">
      <stop offset="0" stop-color="#f3c65d"/>
      <stop offset="1" stop-color="#e59f00"/>
    </linearGradient>
  </defs>
  <g id="Group_13995" data-name="Group 13995" transform="translate(9 6)">
    <g id="Group_9209" data-name="Group 9209" transform="translate(0)">
      <g transform="matrix(1, 0, 0, 1, -9, -6)" filter="url(#Path_15566)">
        <path id="Path_15566-2" data-name="Path 15566" d="M24.948,38.192A7.927,7.927,0,0,1,20.06,40.12a7.927,7.927,0,0,1-4.888-1.927,58.474,58.474,0,0,1-5.207-4.856L6.783,30.155a58.479,58.479,0,0,1-4.856-5.207A7.927,7.927,0,0,1,0,20.06a7.927,7.927,0,0,1,1.927-4.888A58.468,58.468,0,0,1,6.783,9.964L9.964,6.783a58.47,58.47,0,0,1,5.207-4.856A7.927,7.927,0,0,1,20.06,0a7.927,7.927,0,0,1,4.888,1.927,58.476,58.476,0,0,1,5.207,4.856l3.181,3.181a58.475,58.475,0,0,1,4.856,5.207A7.927,7.927,0,0,1,40.12,20.06a7.927,7.927,0,0,1-1.927,4.888,58.487,58.487,0,0,1-4.856,5.207l-3.181,3.181A58.453,58.453,0,0,1,24.948,38.192Z" transform="translate(9 6)" fill="#f3c65d" fill-rule="evenodd" opacity="0.4"/>
      </g>
      <path id="Path_15567" data-name="Path 15567" d="M17.737,27.154a5.636,5.636,0,0,1-3.475,1.37,5.636,5.636,0,0,1-3.475-1.37,41.574,41.574,0,0,1-3.7-3.452L4.823,21.44a41.577,41.577,0,0,1-3.452-3.7A5.636,5.636,0,0,1,0,14.262a5.636,5.636,0,0,1,1.37-3.475,41.569,41.569,0,0,1,3.452-3.7L7.084,4.823a41.571,41.571,0,0,1,3.7-3.452A5.636,5.636,0,0,1,14.262,0a5.636,5.636,0,0,1,3.475,1.37,41.575,41.575,0,0,1,3.7,3.452L23.7,7.084a41.574,41.574,0,0,1,3.452,3.7,5.636,5.636,0,0,1,1.37,3.475,5.636,5.636,0,0,1-1.37,3.475,41.583,41.583,0,0,1-3.452,3.7L21.44,23.7A41.559,41.559,0,0,1,17.737,27.154Z" transform="translate(5.489 5.798)" fill-rule="evenodd" fill="url(#linear-gradient)"/>
      <g id="Group_13996" data-name="Group 13996" transform="translate(15.271 15.82)">
        <path id="Path_21434" data-name="Path 21434" d="M4.789.863c1.279,0,1.43,0,1.935.028a2.113,2.113,0,0,1,1.44.523,2.1,2.1,0,0,1,.523,1.44c.023.5.028.656.028,1.935s0,1.43-.028,1.935a2.123,2.123,0,0,1-.523,1.44,2.1,2.1,0,0,1-1.44.523c-.5.023-.656.028-1.935.028s-1.43,0-1.935-.028a2.138,2.138,0,0,1-1.44-.523,2.111,2.111,0,0,1-.523-1.44c-.023-.5-.028-.656-.028-1.935s0-1.43.028-1.935a2.13,2.13,0,0,1,.523-1.44A2.1,2.1,0,0,1,2.854.891c.5-.023.656-.028,1.935-.028m0-.863c-1.3,0-1.464.006-1.975.029A2.96,2.96,0,0,0,.8.8,2.955,2.955,0,0,0,.029,2.814C.006,3.325,0,3.488,0,4.789S.006,6.253.029,6.763A2.963,2.963,0,0,0,.8,8.774a2.957,2.957,0,0,0,2.011.775c.511.023.674.029,1.975.029s1.464-.006,1.975-.029a2.962,2.962,0,0,0,2.011-.775,2.953,2.953,0,0,0,.775-2.011c.023-.511.029-.674.029-1.975s-.006-1.464-.029-1.975A2.961,2.961,0,0,0,8.774.8,2.96,2.96,0,0,0,6.763.029C6.253.006,6.089,0,4.789,0Z" transform="translate(0 0)"/>
        <path id="Path_21435" data-name="Path 21435" d="M8.3,5.838A2.459,2.459,0,1,0,10.756,8.3,2.459,2.459,0,0,0,8.3,5.838Zm0,4.055a1.6,1.6,0,1,1,1.6-1.6A1.6,1.6,0,0,1,8.3,9.893Z" transform="translate(-3.508 -3.444)"/>
        <ellipse id="Ellipse_811" data-name="Ellipse 811" cx="0.575" cy="0.575" rx="0.575" ry="0.575" transform="translate(6.771 4.39)" fill="#fff"/>
      </g>
    </g>
  </g>
</svg>
