
<svg xmlns="http://www.w3.org/2000/svg" xmlns:xlink="http://www.w3.org/1999/xlink" width="58.12" height="58.12" viewBox="0 0 58.12 58.12">
  <defs>
    <filter id="Path_15566" x="0" y="0" width="58.12" height="58.12" filterUnits="userSpaceOnUse">
      <feOffset dy="3" input="SourceAlpha"/>
      <feGaussianBlur stdDeviation="3" result="blur"/>
      <feFlood flood-opacity="0.161"/>
      <feComposite operator="in" in2="blur"/>
      <feComposite in="SourceGraphic"/>
    </filter>
    <linearGradient id="linear-gradient" x1="0.5" x2="0.5" y2="1" gradientUnits="objectBoundingBox">
      <stop offset="0" stop-color="#f3c65d"/>
      <stop offset="1" stop-color="#e59f00"/>
    </linearGradient>
  </defs>
  <g id="Group_13994" data-name="Group 13994" transform="translate(9 6)">
    <g id="Group_9209" data-name="Group 9209" transform="translate(0)">
      <g transform="matrix(1, 0, 0, 1, -9, -6)" filter="url(#Path_15566)">
        <path id="Path_15566-2" data-name="Path 15566" d="M24.948,38.192A7.927,7.927,0,0,1,20.06,40.12a7.927,7.927,0,0,1-4.888-1.927,58.474,58.474,0,0,1-5.207-4.856L6.783,30.155a58.479,58.479,0,0,1-4.856-5.207A7.927,7.927,0,0,1,0,20.06a7.927,7.927,0,0,1,1.927-4.888A58.468,58.468,0,0,1,6.783,9.964L9.964,6.783a58.47,58.47,0,0,1,5.207-4.856A7.927,7.927,0,0,1,20.06,0a7.927,7.927,0,0,1,4.888,1.927,58.476,58.476,0,0,1,5.207,4.856l3.181,3.181a58.475,58.475,0,0,1,4.856,5.207A7.927,7.927,0,0,1,40.12,20.06a7.927,7.927,0,0,1-1.927,4.888,58.487,58.487,0,0,1-4.856,5.207l-3.181,3.181A58.453,58.453,0,0,1,24.948,38.192Z" transform="translate(9 6)" fill="#f3c65d" fill-rule="evenodd" opacity="0.4"/>
      </g>
      <path id="Path_15567" data-name="Path 15567" d="M17.737,27.154a5.636,5.636,0,0,1-3.475,1.37,5.636,5.636,0,0,1-3.475-1.37,41.574,41.574,0,0,1-3.7-3.452L4.823,21.44a41.577,41.577,0,0,1-3.452-3.7A5.636,5.636,0,0,1,0,14.262a5.636,5.636,0,0,1,1.37-3.475,41.569,41.569,0,0,1,3.452-3.7L7.084,4.823a41.571,41.571,0,0,1,3.7-3.452A5.636,5.636,0,0,1,14.262,0a5.636,5.636,0,0,1,3.475,1.37,41.575,41.575,0,0,1,3.7,3.452L23.7,7.084a41.574,41.574,0,0,1,3.452,3.7,5.636,5.636,0,0,1,1.37,3.475,5.636,5.636,0,0,1-1.37,3.475,41.583,41.583,0,0,1-3.452,3.7L21.44,23.7A41.559,41.559,0,0,1,17.737,27.154Z" transform="translate(5.489 5.798)" fill-rule="evenodd" fill="url(#linear-gradient)"/>
      <path id="Path_21440" data-name="Path 21440" d="M9.89,4.657A1.27,1.27,0,0,0,9,3.758,30.033,30.033,0,0,0,5.05,3.546,30.041,30.041,0,0,0,1.1,3.758a1.269,1.269,0,0,0-.893.9A13.3,13.3,0,0,0,0,7.1,13.3,13.3,0,0,0,.211,9.551a1.27,1.27,0,0,0,.893.9,30.032,30.032,0,0,0,3.946.212A30.041,30.041,0,0,0,9,10.45a1.27,1.27,0,0,0,.893-.9A13.327,13.327,0,0,0,10.1,7.1,13.3,13.3,0,0,0,9.89,4.657ZM4.018,8.606v-3l2.64,1.5Z" transform="translate(15.009 12.956)"/>
    </g>
  </g>
</svg>
