<svg xmlns="http://www.w3.org/2000/svg" width="30" height="30" viewBox="0 0 30 30">
  <g id="Group_12058" data-name="Group 12058" transform="translate(16466 18956)">
    <rect id="Rectangle_7419" data-name="Rectangle 7419" width="30" height="30" transform="translate(-16466 -18956)" fill="#fff" opacity="0"/>
    <g id="Group_4613" data-name="Group 4613" transform="translate(-16504 -19154.934)">
      <g id="apps_2_" data-name="apps (2)" transform="translate(44 204.933)">
        <path id="Path_12368" data-name="Path 12368" d="M4.987,0H2.85A2.85,2.85,0,0,0,0,2.85V4.987a2.85,2.85,0,0,0,2.85,2.85H4.987a2.85,2.85,0,0,0,2.85-2.85V2.85A2.85,2.85,0,0,0,4.987,0ZM6.412,4.987A1.425,1.425,0,0,1,4.987,6.412H2.85A1.425,1.425,0,0,1,1.425,4.987V2.85A1.425,1.425,0,0,1,2.85,1.425H4.987A1.425,1.425,0,0,1,6.412,2.85Z" transform="translate(0 0)"/>
        <path id="Path_12369" data-name="Path 12369" d="M17.987,0H15.85A2.85,2.85,0,0,0,13,2.85V4.987a2.85,2.85,0,0,0,2.85,2.85h2.137a2.85,2.85,0,0,0,2.85-2.85V2.85A2.85,2.85,0,0,0,17.987,0Zm1.425,4.987a1.425,1.425,0,0,1-1.425,1.425H15.85a1.425,1.425,0,0,1-1.425-1.425V2.85A1.425,1.425,0,0,1,15.85,1.425h2.137A1.425,1.425,0,0,1,19.412,2.85Z" transform="translate(-3.738 0)"/>
        <path id="Path_12370" data-name="Path 12370" d="M4.987,13H2.85A2.85,2.85,0,0,0,0,15.85v2.137a2.85,2.85,0,0,0,2.85,2.85H4.987a2.85,2.85,0,0,0,2.85-2.85V15.85A2.85,2.85,0,0,0,4.987,13Zm1.425,4.987a1.425,1.425,0,0,1-1.425,1.425H2.85a1.425,1.425,0,0,1-1.425-1.425V15.85A1.425,1.425,0,0,1,2.85,14.425H4.987A1.425,1.425,0,0,1,6.412,15.85Z" transform="translate(0 -3.738)"/>
        <path id="Path_12371" data-name="Path 12371" d="M17.987,13H15.85A2.85,2.85,0,0,0,13,15.85v2.137a2.85,2.85,0,0,0,2.85,2.85h2.137a2.85,2.85,0,0,0,2.85-2.85V15.85A2.85,2.85,0,0,0,17.987,13Zm1.425,4.987a1.425,1.425,0,0,1-1.425,1.425H15.85a1.425,1.425,0,0,1-1.425-1.425V15.85a1.425,1.425,0,0,1,1.425-1.425h2.137a1.425,1.425,0,0,1,1.425,1.425Z" transform="translate(-3.738 -3.738)"/>
      </g>
    </g>
  </g>
</svg>
