<svg xmlns="http://www.w3.org/2000/svg" width="30" height="30" viewBox="0 0 30 30">
  <g id="Group_12067" data-name="Group 12067" transform="translate(16467 18330)">
    <rect id="Rectangle_7428" data-name="Rectangle 7428" width="30" height="30" transform="translate(-16467 -18330)" fill="#fff" opacity="0"/>
    <path id="camera-security" d="M14.475,0H6.158A4.163,4.163,0,0,0,2,4.158v8.317a4.163,4.163,0,0,0,4.158,4.158h.027a5.16,5.16,0,0,0-.561.67,1.6,1.6,0,0,0-.112,1.687,1.846,1.846,0,0,0,1.656.97h6.294a1.844,1.844,0,0,0,1.656-.97,1.6,1.6,0,0,0-.112-1.688,5.152,5.152,0,0,0-.561-.67h.027a4.163,4.163,0,0,0,4.158-4.158V4.158A4.163,4.163,0,0,0,14.474,0Zm-.83,18.221a.2.2,0,0,1-.181.077H7.17a.444.444,0,0,1-.175-.044h0a4.076,4.076,0,0,1,3.326-1.62,4.151,4.151,0,0,1,3.328,1.587Zm3.325-5.745a2.5,2.5,0,0,1-2.5,2.5H6.158a2.5,2.5,0,0,1-2.5-2.5V4.158a2.5,2.5,0,0,1,2.5-2.5h8.317a2.5,2.5,0,0,1,2.5,2.5ZM10.317,4.158a4.158,4.158,0,1,0,4.158,4.158A4.163,4.163,0,0,0,10.317,4.158Zm0,6.654a2.5,2.5,0,1,1,2.5-2.5A2.5,2.5,0,0,1,10.317,10.812Z" transform="translate(-16462.482 -18324.98)"/>
  </g>
</svg>
