<svg xmlns="http://www.w3.org/2000/svg" width="30" height="30" viewBox="0 0 30 30">
  <g id="Group_12068" data-name="Group 12068" transform="translate(16467 18259)">
    <rect id="Rectangle_7429" data-name="Rectangle 7429" width="30" height="30" transform="translate(-16467 -18259)" fill="#fff" opacity="0"/>
    <path id="document" d="M14.456,11.625a.83.83,0,0,1-.83.83H6.982a.83.83,0,1,1,0-1.661h6.643A.83.83,0,0,1,14.456,11.625Zm-3.321,2.491H6.982a.83.83,0,0,0,0,1.661h4.152a.83.83,0,0,0,0-1.661Zm7.473-5.41v7.071a4.157,4.157,0,0,1-4.152,4.152h-8.3A4.157,4.157,0,0,1,2,15.777V4.152A4.157,4.157,0,0,1,6.152,0H9.9a5.778,5.778,0,0,1,4.11,1.7L16.9,4.6A5.772,5.772,0,0,1,18.607,8.706Zm-5.77-5.83a4.16,4.16,0,0,0-.873-.648V5.813a.83.83,0,0,0,.83.83h3.584a4.138,4.138,0,0,0-.649-.872Zm4.11,5.83c0-.137-.027-.268-.039-.4H12.795A2.491,2.491,0,0,1,10.3,5.813V1.7c-.135-.012-.267-.039-.4-.039H6.152A2.491,2.491,0,0,0,3.661,4.152V15.777a2.491,2.491,0,0,0,2.491,2.491h8.3a2.491,2.491,0,0,0,2.491-2.491Z" transform="translate(-16462 -18254)"/>
  </g>
</svg>
