<svg xmlns="http://www.w3.org/2000/svg" width="30" height="30" viewBox="0 0 30 30">
  <g id="Group_12069" data-name="Group 12069" transform="translate(16467 18187)">
    <rect id="Rectangle_7430" data-name="Rectangle 7430" width="30" height="30" transform="translate(-16467 -18187)" fill="#fff" opacity="0"/>
    <path id="discover" d="M16.521,15.417a3.905,3.905,0,1,0-1.1,1.1L17.4,18.5a.78.78,0,0,0,1.1-1.1Zm-5.6-2.151a2.341,2.341,0,1,1,2.341,2.341A2.344,2.344,0,0,1,10.925,13.267ZM4.682,3.512A1.171,1.171,0,1,1,3.512,2.341,1.171,1.171,0,0,1,4.682,3.512Zm3.122,0A1.171,1.171,0,1,1,6.633,2.341,1.171,1.171,0,0,1,7.8,3.512ZM14.827,0H3.9A3.906,3.906,0,0,0,0,3.9v9.365a3.906,3.906,0,0,0,3.9,3.9H7.8a.78.78,0,1,0,0-1.561H3.9a2.344,2.344,0,0,1-2.341-2.341V7.023H17.169V9.365a.78.78,0,1,0,1.561,0V3.9A3.906,3.906,0,0,0,14.827,0ZM1.561,5.463V3.9A2.344,2.344,0,0,1,3.9,1.561H14.827A2.344,2.344,0,0,1,17.169,3.9V5.463Z" transform="translate(-16461 -18181)"/>
  </g>
</svg>
