<svg xmlns="http://www.w3.org/2000/svg" width="30" height="30" viewBox="0 0 30 30">
  <g id="Group_12069" data-name="Group 12069" transform="translate(16467 18187)">
    <rect id="Rectangle_7430" data-name="Rectangle 7430" width="30" height="30" transform="translate(-16467 -18187)" fill="#fff" opacity="0"/>
    <path id="file-medical-alt" d="M5.318,13.091H.818a.818.818,0,0,1,0-1.636H4.88l1.393-2.09A.808.808,0,0,1,7.005,9a.819.819,0,0,1,.682.451L9.511,13.1l.854-1.281a.819.819,0,0,1,.681-.364h3.682a.818.818,0,0,1,0,1.636H11.483l-1.393,2.09a.818.818,0,0,1-.681.364c-.017,0-.034,0-.051,0a.819.819,0,0,1-.682-.451L6.853,11.446,6,12.727a.819.819,0,0,1-.681.364ZM18,8.579v6.967a4.1,4.1,0,0,1-4.091,4.091H5.727a4.1,4.1,0,0,1-4.091-4.091.818.818,0,0,1,1.636,0A2.458,2.458,0,0,0,5.727,18h8.182a2.458,2.458,0,0,0,2.455-2.455V8.579c0-.133-.007-.266-.019-.4H12.273A2.458,2.458,0,0,1,9.818,5.727V1.655c-.131-.012-.263-.019-.4-.019H5.727A2.458,2.458,0,0,0,3.273,4.091V9A.818.818,0,1,1,1.636,9V4.091A4.1,4.1,0,0,1,5.727,0H9.421a5.691,5.691,0,0,1,4.05,1.677l2.851,2.851A5.69,5.69,0,0,1,18,8.579ZM15.824,6.545a4.1,4.1,0,0,0-.659-.859L12.314,2.835a4.117,4.117,0,0,0-.859-.659V5.728a.82.82,0,0,0,.818.818h3.552Z" transform="translate(-16461 -18181.818)"/>
  </g>
</svg>
