<svg xmlns="http://www.w3.org/2000/svg" width="30" height="30" viewBox="0 0 30 30">
  <g id="Group_12069" data-name="Group 12069" transform="translate(16467 18187)">
    <rect id="Rectangle_7430" data-name="Rectangle 7430" width="30" height="30" transform="translate(-16467 -18187)" fill="#fff" opacity="0"/>
    <path id="operating-system-upgrade" d="M8.75,5.833A1.25,1.25,0,1,1,10,7.083,1.25,1.25,0,0,1,8.75,5.833Zm-3.5,1.773.432-.248a4.494,4.494,0,0,1,0-3.05L5.252,4.06a.834.834,0,1,1,.832-1.445l.432.249A4.578,4.578,0,0,1,9.167,1.33v-.5a.833.833,0,1,1,1.667,0v.5A4.581,4.581,0,0,1,13.49,2.87l.442-.254a.834.834,0,0,1,.832,1.445l-.444.256a4.491,4.491,0,0,1,0,3.035l.444.256a.834.834,0,0,1-.832,1.445L13.49,8.8a4.582,4.582,0,0,1-2.648,1.538l.006.488a.834.834,0,0,1-.823.843h-.011a.834.834,0,0,1-.833-.823l-.006-.505A4.584,4.584,0,0,1,6.514,8.8l-.432.249a.834.834,0,0,1-.832-1.445ZM7.083,5.833A2.917,2.917,0,1,0,10,2.917,2.92,2.92,0,0,0,7.083,5.833ZM20,16.667A3.337,3.337,0,0,1,16.667,20H3.333a3.333,3.333,0,0,1,0-6.667H16.667A3.337,3.337,0,0,1,20,16.667ZM3.333,18.333h8.333V15H3.333a1.667,1.667,0,0,0,0,3.333Zm15-1.667A1.668,1.668,0,0,0,16.667,15H13.333v3.333h3.333A1.668,1.668,0,0,0,18.333,16.667Z" transform="translate(-16462 -18182)"/>
  </g>
</svg>
