<svg xmlns="http://www.w3.org/2000/svg" width="30" height="30" viewBox="0 0 30 30">
  <g id="Group_12069" data-name="Group 12069" transform="translate(16467 18187)">
    <rect id="Rectangle_7430" data-name="Rectangle 7430" width="30" height="30" transform="translate(-16467 -18187)" fill="#fff" opacity="0"/>
    <g id="settings" transform="translate(-16462.203 -18183)">
      <path id="Path_12372" data-name="Path 12372" d="M11.518,8a3.518,3.518,0,1,0,3.518,3.518A3.518,3.518,0,0,0,11.518,8Zm0,5.277a1.759,1.759,0,1,1,1.759-1.759A1.759,1.759,0,0,1,11.518,13.277Z" transform="translate(-0.819 -0.963)"/>
      <path id="Path_12373" data-name="Path 12373" d="M18.874,12.226,18.484,12a8,8,0,0,0,0-2.894l.391-.225a2.64,2.64,0,1,0-2.639-4.574l-.391.226A7.9,7.9,0,0,0,13.338,3.09V2.639a2.639,2.639,0,1,0-5.277,0V3.09A7.9,7.9,0,0,0,5.556,4.538L5.163,4.31A2.64,2.64,0,1,0,2.524,8.884l.391.225a8,8,0,0,0,0,2.894l-.391.225A2.64,2.64,0,1,0,5.163,16.8l.391-.226A7.9,7.9,0,0,0,8.061,18.02v.451a2.639,2.639,0,1,0,5.277,0V18.02a7.9,7.9,0,0,0,2.505-1.448l.393.227a2.64,2.64,0,1,0,2.639-4.574ZM16.633,8.9a6.2,6.2,0,0,1,0,3.3.88.88,0,0,0,.408,1l.953.551a.88.88,0,1,1-.88,1.524l-.955-.552a.88.88,0,0,0-1.069.145,6.143,6.143,0,0,1-2.852,1.649.88.88,0,0,0-.661.852v1.1a.88.88,0,0,1-1.759,0v-1.1a.88.88,0,0,0-.661-.852,6.143,6.143,0,0,1-2.852-1.653.88.88,0,0,0-1.069-.145l-.953.551a.88.88,0,1,1-.88-1.523l.953-.551a.88.88,0,0,0,.408-1,6.2,6.2,0,0,1,0-3.3.88.88,0,0,0-.409-.993L3.4,7.358a.88.88,0,0,1,.88-1.524l.955.552a.88.88,0,0,0,1.068-.142A6.143,6.143,0,0,1,9.16,4.6.88.88,0,0,0,9.82,3.74v-1.1a.88.88,0,1,1,1.759,0v1.1a.88.88,0,0,0,.661.852,6.143,6.143,0,0,1,2.852,1.653.88.88,0,0,0,1.069.145l.953-.551a.88.88,0,1,1,.88,1.523l-.953.551a.88.88,0,0,0-.407.993Z"/>
    </g>
  </g>
</svg>
