<svg xmlns="http://www.w3.org/2000/svg" width="30" height="30" viewBox="0 0 30 30">
  <g id="Group_12059" data-name="Group 12059" transform="translate(16467 18887)">
    <rect id="Rectangle_7420" data-name="Rectangle 7420" width="30" height="30" transform="translate(-16467 -18887)" fill="#fff" opacity="0"/>
    <g id="Group_4616" data-name="Group 4616" transform="translate(-16506.795 -19160.16)">
      <path id="city" d="M12.226,10.7a.764.764,0,0,1-.764.764H10.7a.764.764,0,1,1,0-1.528h.764A.764.764,0,0,1,12.226,10.7Zm2.292-.764h-.764a.764.764,0,0,0,0,1.528h.764a.764.764,0,0,0,0-1.528Zm-3.057,3.057H10.7a.764.764,0,1,0,0,1.528h.764a.764.764,0,1,0,0-1.528Zm3.057,0h-.764a.764.764,0,0,0,0,1.528h.764a.764.764,0,0,0,0-1.528Zm-3.057-9.17H10.7a.764.764,0,1,0,0,1.528h.764a.764.764,0,1,0,0-1.528Zm3.057,0h-.764a.764.764,0,0,0,0,1.528h.764a.764.764,0,0,0,0-1.528ZM11.462,6.877H10.7a.764.764,0,1,0,0,1.528h.764a.764.764,0,1,0,0-1.528Zm3.057,0h-.764a.764.764,0,0,0,0,1.528h.764a.764.764,0,0,0,0-1.528ZM18.34,3.821v10.7a3.825,3.825,0,0,1-3.821,3.821H3.821A3.825,3.825,0,0,1,0,14.519V7.075A3.84,3.84,0,0,1,1.17,4.323L2.613,2.934a2.284,2.284,0,0,1,3.18,0L6.877,3.978V3.821A3.825,3.825,0,0,1,10.7,0h3.821A3.825,3.825,0,0,1,18.34,3.821ZM6.877,7.075a2.3,2.3,0,0,0-.7-1.651L4.732,4.034a.76.76,0,0,0-1.059,0L2.231,5.423a2.3,2.3,0,0,0-.7,1.651v7.444a2.3,2.3,0,0,0,2.292,2.292H6.877V7.075Zm9.934-3.254a2.3,2.3,0,0,0-2.292-2.292H10.7A2.3,2.3,0,0,0,8.406,3.821V16.811h6.113a2.3,2.3,0,0,0,2.292-2.292V3.821ZM4.585,9.934H3.821a.764.764,0,1,0,0,1.528h.764a.764.764,0,1,0,0-1.528Zm0-3.057H3.821a.764.764,0,0,0,0,1.528h.764a.764.764,0,1,0,0-1.528Zm0,6.113H3.821a.764.764,0,1,0,0,1.528h.764a.764.764,0,1,0,0-1.528Z" transform="translate(45.794 279.16)"/>
    </g>
  </g>
</svg>
