<svg xmlns="http://www.w3.org/2000/svg" width="30" height="30" viewBox="0 0 30 30">
  <g id="Group_12060" data-name="Group 12060" transform="translate(16467 18821)">
    <rect id="Rectangle_7421" data-name="Rectangle 7421" width="30" height="30" transform="translate(-16467 -18821)" fill="#fff" opacity="0"/>
    <path id="point-of-sale-bill" d="M8.25,7.5v.75A.75.75,0,0,1,7.5,9H3.75A.75.75,0,0,1,3,8.25V7.5a.75.75,0,0,1,.75-.75H7.5A.75.75,0,0,1,8.25,7.5ZM18,4.875V12.75a.75.75,0,0,1-1.124.649l-1.628-.937-1.325.907a.75.75,0,0,1-.846-1.238l1.714-1.173a.747.747,0,0,1,.8-.031l.912.525V4.875a3.368,3.368,0,0,0-6.7-.514A3.37,3.37,0,0,1,11.25,7.125v7.5A3.379,3.379,0,0,1,7.875,18h-4.5A3.379,3.379,0,0,1,0,14.625v-7.5a3.372,3.372,0,0,1,1.5-2.8V3.75A3.754,3.754,0,0,1,5.25,0h7.875A4.881,4.881,0,0,1,18,4.875ZM9.75,7.125A1.877,1.877,0,0,0,7.875,5.25h-4.5A1.877,1.877,0,0,0,1.5,7.125v7.5A1.877,1.877,0,0,0,3.375,16.5h4.5A1.877,1.877,0,0,0,9.75,14.625ZM8.373,3.8A4.835,4.835,0,0,1,9.6,1.5H5.25A2.253,2.253,0,0,0,3,3.75v.038a3.256,3.256,0,0,1,.375-.038h4.5A3.305,3.305,0,0,1,8.373,3.8ZM7.5,10.5H6.75a.75.75,0,1,0,0,1.5H7.5a.75.75,0,1,0,0-1.5Zm0,3H6.75a.75.75,0,1,0,0,1.5H7.5a.75.75,0,1,0,0-1.5Zm-3-3H3.75a.75.75,0,0,0,0,1.5H4.5a.75.75,0,1,0,0-1.5Zm0,3H3.75a.75.75,0,0,0,0,1.5H4.5a.75.75,0,1,0,0-1.5Z" transform="translate(-16461 -18815)"/>
  </g>
</svg>
