<svg xmlns="http://www.w3.org/2000/svg" width="30" height="30" viewBox="0 0 30 30">
  <g id="Group_12061" data-name="Group 12061" transform="translate(16467 18752)">
    <rect id="Rectangle_7422" data-name="Rectangle 7422" width="30" height="30" transform="translate(-16467 -18752)" fill="#fff" opacity="0"/>
    <g id="file-plus_outline" transform="translate(-16471.52 -18748)">
      <g id="Group_9205" data-name="Group 9205" transform="translate(11.52)">
        <path id="Path_15580" data-name="Path 15580" d="M19.966,0c-3.981,0-5.972,0-7.209,1.237S11.52,4.464,11.52,8.446v4.223c0,3.981,0,5.972,1.237,7.209s3.228,1.237,7.209,1.237,5.972,0,7.209-1.237,1.237-3.228,1.237-7.209V8.446c-.608,0-1.17,0-1.689,0v4.227a37.377,37.377,0,0,1-.14,4.409,2.571,2.571,0,0,1-.6,1.606,2.571,2.571,0,0,1-1.606.6,37.377,37.377,0,0,1-4.409.14,37.376,37.376,0,0,1-4.409-.14,2.571,2.571,0,0,1-1.606-.6,2.57,2.57,0,0,1-.6-1.606,37.383,37.383,0,0,1-.14-4.409V8.446a37.383,37.383,0,0,1,.14-4.409,2.57,2.57,0,0,1,.6-1.606,2.57,2.57,0,0,1,1.606-.6,37.383,37.383,0,0,1,4.409-.14h0C19.966,1.17,19.966.608,19.966,0Z" transform="translate(-11.52)" fill-rule="evenodd"/>
        <path id="Path_15581" data-name="Path 15581" d="M43.54,46.08a.792.792,0,0,1,.792.792v1.636h1.531a.792.792,0,1,1,0,1.584H44.332v1.531a.792.792,0,1,1-1.584,0V50.092H41.112a.792.792,0,0,1,0-1.584h1.636V46.872A.792.792,0,0,1,43.54,46.08Z" transform="translate(-35.041 -37.634)" fill-rule="evenodd"/>
        <path id="Path_15582" data-name="Path 15582" d="M66.816,2.262a.564.564,0,0,1,.8-.513,11.273,11.273,0,0,1,5.6,5.6.564.564,0,0,1-.513.8H69.561A2.745,2.745,0,0,1,66.816,5.4Z" transform="translate(-56.681 -1.386)"/>
      </g>
    </g>
  </g>
</svg>
