<svg xmlns="http://www.w3.org/2000/svg" width="30" height="30" viewBox="0 0 30 30">
  <g id="Group_12063" data-name="Group 12063" transform="translate(16467 18607)">
    <rect id="Rectangle_7424" data-name="Rectangle 7424" width="30" height="30" transform="translate(-16467 -18607)" fill="#fff" opacity="0"/>
    <g id="Icon_ionic-ios-notifications-outline" data-name="Icon ionic-ios-notifications-outline" transform="translate(-16467.775 -18606.93)">
      <path id="Path_11489" data-name="Path 11489" d="M19.3,28.336a.739.739,0,0,0-.725.582,1.431,1.431,0,0,1-.285.622,1.079,1.079,0,0,1-.919.337,1.1,1.1,0,0,1-.919-.337,1.431,1.431,0,0,1-.285-.622.739.739,0,0,0-.725-.582h0a.744.744,0,0,0-.725.908,2.551,2.551,0,0,0,2.654,2.118,2.546,2.546,0,0,0,2.654-2.118.747.747,0,0,0-.725-.908Z" transform="translate(-1.491 -4.591)"/>
      <path id="Path_11490" data-name="Path 11490" d="M24.794,20.845c-.879-1.159-2.609-1.838-2.609-7.027,0-5.326-2.352-7.467-4.544-7.981-.206-.051-.354-.12-.354-.337V5.335a1.4,1.4,0,0,0-1.37-1.4h-.034a1.4,1.4,0,0,0-1.37,1.4V5.5c0,.211-.148.285-.354.337-2.2.519-4.544,2.654-4.544,7.981,0,5.189-1.73,5.863-2.609,7.027a1.133,1.133,0,0,0,.908,1.815H23.9A1.134,1.134,0,0,0,24.794,20.845Zm-2.226.331H9.255a.25.25,0,0,1-.188-.417,6.916,6.916,0,0,0,1.2-1.907,12.937,12.937,0,0,0,.816-5.035,8.755,8.755,0,0,1,1.193-4.955,3.663,3.663,0,0,1,2.209-1.576,2,2,0,0,0,1.062-.6.451.451,0,0,1,.679-.011,2.068,2.068,0,0,0,1.073.611,3.663,3.663,0,0,1,2.209,1.576A8.755,8.755,0,0,1,20.7,13.818a12.937,12.937,0,0,0,.816,5.035,7,7,0,0,0,1.227,1.935A.236.236,0,0,1,22.567,21.176Z" transform="translate(0)"/>
    </g>
  </g>
</svg>
