<svg xmlns="http://www.w3.org/2000/svg" width="30" height="30" viewBox="0 0 30 30">
  <g id="Group_12064" data-name="Group 12064" transform="translate(16467 18540)">
    <rect id="Rectangle_7425" data-name="Rectangle 7425" width="30" height="30" transform="translate(-16467 -18540)" fill="#fff" opacity="0"/>
    <g id="monitor_outline" transform="translate(-16462.24 -18535.24)">
      <path id="Path_15588" data-name="Path 15588" d="M.24,7.459v.073c0,1.129,0,2.028.062,2.751a4.892,4.892,0,0,0,.5,1.946,4.77,4.77,0,0,0,1.959,1.958,4.892,4.892,0,0,0,1.946.5c.724.062,1.622.062,2.751.062h1.8a.746.746,0,0,0-.027.2v3.479H4.762a.745.745,0,1,0,0,1.491H15.2a.745.745,0,1,0,0-1.491H10.726V14.95a.745.745,0,0,0-.027-.2h1.8c1.129,0,2.028,0,2.751-.062a4.892,4.892,0,0,0,1.946-.5,4.77,4.77,0,0,0,1.958-1.958,4.893,4.893,0,0,0,.5-1.946c.062-.724.062-1.622.062-2.751V7.459c0-1.129,0-2.028-.062-2.751a4.892,4.892,0,0,0-.5-1.946A4.77,4.77,0,0,0,17.2.8,4.892,4.892,0,0,0,15.253.3C14.529.24,13.631.24,12.5.24H7.459C6.33.24,5.432.24,4.708.3A4.892,4.892,0,0,0,2.762.8,4.771,4.771,0,0,0,.8,2.762,4.892,4.892,0,0,0,.3,4.708C.24,5.432.24,6.33.24,7.459Zm1.966,4.02a3.352,3.352,0,0,1-.32-1.331C1.831,9.5,1.83,8.67,1.83,7.5s0-2,.056-2.653a3.351,3.351,0,0,1,.32-1.331A3.181,3.181,0,0,1,3.511,2.206a3.351,3.351,0,0,1,1.331-.32C5.491,1.831,6.322,1.83,7.5,1.83h4.97c1.174,0,2,0,2.653.056a3.352,3.352,0,0,1,1.331.32,3.18,3.18,0,0,1,1.306,1.306,3.35,3.35,0,0,1,.32,1.331c.055.648.056,1.479.056,2.653s0,2-.056,2.653a3.35,3.35,0,0,1-.32,1.331,3.18,3.18,0,0,1-1.306,1.306,3.35,3.35,0,0,1-1.331.32c-.648.055-1.479.056-2.653.056H7.5c-1.174,0-2,0-2.653-.056a3.35,3.35,0,0,1-1.331-.32A3.18,3.18,0,0,1,2.206,11.48Z" transform="translate(0)" fill-rule="evenodd"/>
    </g>
  </g>
</svg>
