<svg xmlns="http://www.w3.org/2000/svg" width="30" height="30" viewBox="0 0 30 30">
  <g id="Group_12065" data-name="Group 12065" transform="translate(16467 18468)">
    <rect id="Rectangle_7426" data-name="Rectangle 7426" width="30" height="30" transform="translate(-16467 -18468)" fill="#fff" opacity="0"/>
    <g id="user_1_" data-name="user (1)" transform="translate(-16463 -18463)">
      <path id="Path_11495" data-name="Path 11495" d="M11.092,10.184A5.092,5.092,0,1,0,6,5.092,5.092,5.092,0,0,0,11.092,10.184Zm0-8.487A3.395,3.395,0,1,1,7.7,5.092,3.395,3.395,0,0,1,11.092,1.7Z" transform="translate(-0.454)"/>
      <path id="Path_11496" data-name="Path 11496" d="M10.638,14A7.646,7.646,0,0,0,3,21.638a.849.849,0,0,0,1.7,0,5.941,5.941,0,1,1,11.881,0,.849.849,0,0,0,1.7,0A7.646,7.646,0,0,0,10.638,14Z" transform="translate(0 -2.119)"/>
    </g>
  </g>
</svg>
