<svg xmlns="http://www.w3.org/2000/svg" width="30" height="30" viewBox="0 0 30 30">
  <g id="Group_12065" data-name="Group 12065" transform="translate(16467 18468)">
    <rect id="Rectangle_7426" data-name="Rectangle 7426" width="30" height="30" transform="translate(-16467 -18468)" fill="#fff" opacity="0"/>
    <path id="file-upload" d="M16.36,4.429,13.572,1.641A5.564,5.564,0,0,0,9.612,0H6A4,4,0,0,0,2,4V15.2a4,4,0,0,0,4,4h8a4,4,0,0,0,4-4V8.388a5.565,5.565,0,0,0-1.64-3.96ZM15.229,5.56a4.025,4.025,0,0,1,.644.84H12.4a.8.8,0,0,1-.8-.8V2.127a4,4,0,0,1,.84.644l2.788,2.788ZM16.4,15.2A2.4,2.4,0,0,1,14,17.6H6a2.4,2.4,0,0,1-2.4-2.4V4A2.4,2.4,0,0,1,6,1.6H9.612c.13,0,.26.006.388.018V5.6A2.4,2.4,0,0,0,12.4,8h3.982c.012.128.018.258.018.388V15.2Zm-3.434-3.615a.8.8,0,1,1-1.131,1.131L10.8,11.682V15.2a.8.8,0,0,1-1.6,0V11.682L8.166,12.716a.8.8,0,0,1-1.131-1.131l1.291-1.291a2.372,2.372,0,0,1,3.35,0l1.291,1.291Z" transform="translate(-16462 -18462.602)"/>
  </g>
</svg>
