<svg xmlns="http://www.w3.org/2000/svg" width="30" height="30" viewBox="0 0 30 30">
  <g id="Group_12066" data-name="Group 12066" transform="translate(16467 18398)">
    <rect id="Rectangle_7427" data-name="Rectangle 7427" width="30" height="30" transform="translate(-16467 -18398)" fill="#fff" opacity="0"/>
    <path id="feedback-review" d="M19.8,5.5,18.487,6.568l.543,1.656a.556.556,0,0,1-.831.641l-1.53-1-1.5,1.007a.555.555,0,0,1-.839-.628l.522-1.676L13.528,5.5a.556.556,0,0,1,.36-.979h1.667l.59-1.656a.556.556,0,0,1,1.042,0l.59,1.656h1.667A.556.556,0,0,1,19.8,5.5ZM6.863,3,8.184,4.07,7.661,5.746a.555.555,0,0,0,.839.628L10,5.368l1.53,1a.556.556,0,0,0,.831-.641l-.543-1.656L13.136,3a.556.556,0,0,0-.357-.981H11.111L10.521.361a.556.556,0,0,0-1.042,0l-.59,1.656H7.222A.556.556,0,0,0,6.862,3ZM4.868,8.863A.556.556,0,0,0,5.7,8.223L5.155,6.567,6.47,5.5a.556.556,0,0,0-.357-.981H4.445L3.855,2.86a.556.556,0,0,0-1.042,0l-.59,1.656H.556a.556.556,0,0,0-.36.979L1.517,6.569.994,8.245a.555.555,0,0,0,.839.628l1.5-1.007,1.53,1Zm11.749,5.792-.532,2.663A3.333,3.333,0,0,1,12.817,20H5.833a2.5,2.5,0,0,1-2.5-2.5V14.166a2.5,2.5,0,0,1,2.5-2.5H7.046L8.874,8.208a1.244,1.244,0,0,1,.568-.6,1.386,1.386,0,0,1,.533-.11,1.227,1.227,0,0,1,1.193.947,1.192,1.192,0,0,1-.006.5l-.483,2.721h3.486a2.5,2.5,0,0,1,2.452,2.99ZM5.834,18.332h.833v-5H5.834A.835.835,0,0,0,5,14.166V17.5A.835.835,0,0,0,5.834,18.332Zm8.976-4.695a.821.821,0,0,0-.644-.3H8.334v5h4.482a1.671,1.671,0,0,0,1.634-1.34l.532-2.663a.821.821,0,0,0-.172-.692Z" transform="translate(-16462 -18392.998)"/>
  </g>
</svg>
