<svg xmlns="http://www.w3.org/2000/svg" width="38.355" height="37.87" viewBox="0 0 38.355 37.87">
  <g id="Group_8267" data-name="Group 8267" transform="translate(20049.5 -4164.5)">
    <g id="Group_7463" data-name="Group 7463" transform="translate(-20049.5 4164.5)">
      <path id="Path_13635" data-name="Path 13635" d="M30.718,5.957a1.457,1.457,0,0,1-1.457,1.457H23.435c-3.674,0-6.312,0-8.355.223a8.477,8.477,0,0,0-4.265,1.353,8.254,8.254,0,0,0-1.826,1.826A8.477,8.477,0,0,0,7.636,15.08c-.221,2.043-.223,4.681-.223,8.355s0,6.312.223,8.355a8.476,8.476,0,0,0,1.353,4.265,8.252,8.252,0,0,0,1.826,1.826,8.477,8.477,0,0,0,4.265,1.353c2.043.221,4.681.223,8.355.223s6.312,0,8.355-.223a8.477,8.477,0,0,0,4.265-1.353,8.25,8.25,0,0,0,1.826-1.826,8.477,8.477,0,0,0,1.353-4.265c.221-2.043.223-4.681.223-8.355V17.609a1.457,1.457,0,1,1,2.913,0v5.914c0,3.567,0,6.362-.24,8.58a11.309,11.309,0,0,1-1.893,5.664,11.164,11.164,0,0,1-2.47,2.47A11.309,11.309,0,0,1,32.1,42.13c-2.218.24-5.014.24-8.58.24h-.176c-3.567,0-6.362,0-8.58-.24A11.308,11.308,0,0,1,9.1,40.237a11.165,11.165,0,0,1-2.47-2.47A11.31,11.31,0,0,1,4.74,32.1c-.24-2.218-.24-5.014-.24-8.581v-.176c0-3.567,0-6.363.24-8.581A11.309,11.309,0,0,1,6.633,9.1,11.167,11.167,0,0,1,9.1,6.633,11.309,11.309,0,0,1,14.767,4.74c2.218-.24,5.014-.24,8.581-.24h5.914A1.457,1.457,0,0,1,30.718,5.957Z" transform="translate(-4.5 -4.5)" fill="#063354" fill-rule="evenodd"/>
      <path id="Path_13636" data-name="Path 13636" d="M13.315,30.248a1.457,1.457,0,0,1-.666-1.949l2.836-5.781a5.227,5.227,0,0,1,9.53.323,2.313,2.313,0,0,0,4.218.143L32.069,17.2a1.457,1.457,0,0,1,2.616,1.283l-2.836,5.782a5.227,5.227,0,0,1-9.53-.323A2.313,2.313,0,0,0,18.1,23.8l-2.836,5.781A1.457,1.457,0,0,1,13.315,30.248ZM39.2,12.71a4.855,4.855,0,1,1,4.855-4.855A4.855,4.855,0,0,1,39.2,12.71Zm0-2.913a1.942,1.942,0,1,1,1.942-1.942A1.942,1.942,0,0,1,39.2,9.8Z" transform="translate(-5.703 -3)" fill="#063354" fill-rule="evenodd"/>
    </g>
  </g>
</svg>
