<svg xmlns="http://www.w3.org/2000/svg" xmlns:xlink="http://www.w3.org/1999/xlink" width="21.638" height="20.731" viewBox="0 0 21.638 20.731">
  <defs>
    <linearGradient id="linear-gradient" x1="0.5" x2="0.5" y2="1" gradientUnits="objectBoundingBox">
      <stop offset="0" stop-color="#f3c65d"/>
      <stop offset="1" stop-color="#e59f00"/>
    </linearGradient>
  </defs>
  <g id="Group_5054" data-name="Group 5054" transform="translate(5.8 4.8)">
    <g id="Group_4200" data-name="Group 4200" transform="translate(6.462 6.556)">
      <ellipse id="Ellipse_144" data-name="Ellipse 144" cx="4.688" cy="4.688" rx="4.688" ry="4.688" transform="translate(0 0)" fill="url(#linear-gradient)"/>
    </g>
    <g id="calendar_1_" data-name="calendar (1)" transform="translate(-5.8 -4.8)">
      <path id="Path_11875" data-name="Path 11875" d="M15.144,1.594h-.8V.8a.8.8,0,0,0-1.594,0v.8H6.376V.8A.8.8,0,0,0,4.782.8v.8h-.8A3.99,3.99,0,0,0,0,5.579v9.564a3.99,3.99,0,0,0,3.985,3.985H15.144a3.99,3.99,0,0,0,3.985-3.985V5.579A3.99,3.99,0,0,0,15.144,1.594ZM1.594,5.579A2.391,2.391,0,0,1,3.985,3.188H15.144a2.391,2.391,0,0,1,2.391,2.391v.8H1.594Zm13.55,11.955H3.985a2.391,2.391,0,0,1-2.391-2.391V7.97H17.535v7.173A2.391,2.391,0,0,1,15.144,17.534Z" fill="#063354"/>
      <ellipse id="Ellipse_146" data-name="Ellipse 146" cx="1.196" cy="1.196" rx="1.196" ry="1.196" transform="translate(8.369 10.76)" fill="#063354"/>
      <ellipse id="Ellipse_147" data-name="Ellipse 147" cx="1.196" cy="1.196" rx="1.196" ry="1.196" transform="translate(4.384 10.76)" fill="#063354"/>
      <ellipse id="Ellipse_148" data-name="Ellipse 148" cx="1.196" cy="1.196" rx="1.196" ry="1.196" transform="translate(12.354 10.76)" fill="#063354"/>
    </g>
  </g>
</svg>
