<svg xmlns="http://www.w3.org/2000/svg" width="18.734" height="20.823" viewBox="0 0 18.734 20.823">
  <g id="Component_78_55" data-name="Component 78 – 55" transform="translate(0.75 0.75)">
    <g id="calendar-clock_broken">
      <path id="Path_15635" data-name="Path 15635" d="M20.534,18.743v1.763l.94,1.058m-8.251-7.207H8M13.222,6v4.178M19.489,6v4.178M13.222,8.089h3.133m3.133,0h3.133a2.089,2.089,0,0,1,2.089,2.089v2.089M10.089,8.089A2.089,2.089,0,0,0,8,10.178V22.712A2.089,2.089,0,0,0,10.089,24.8h3.133m12.012-4.178a4.7,4.7,0,1,1-4.7-4.7A4.7,4.7,0,0,1,25.234,20.623Z" transform="translate(-8 -6)" fill="none" stroke="#063354" stroke-linecap="round" stroke-linejoin="round" strokeWidth="1.5"/>
    </g>
  </g>
</svg>
