<svg xmlns="http://www.w3.org/2000/svg" width="12.599" height="15.119" viewBox="0 0 12.599 15.119">
  <path id="Path_12912" data-name="Path 12912" d="M13.97,2.52H12.017A3.156,3.156,0,0,0,8.93,0H7.67A3.156,3.156,0,0,0,4.583,2.52H2.63a.63.63,0,1,0,0,1.26h.63v8.189a3.154,3.154,0,0,0,3.15,3.15h3.78a3.154,3.154,0,0,0,3.15-3.15V3.78h.63a.63.63,0,1,0,0-1.26ZM7.67,1.26H8.93a1.894,1.894,0,0,1,1.782,1.26H5.888A1.894,1.894,0,0,1,7.67,1.26Zm4.41,10.709a1.89,1.89,0,0,1-1.89,1.89H6.41a1.89,1.89,0,0,1-1.89-1.89V3.78h7.56Z" transform="translate(-2)" fill="#8198a8"/>
</svg>
