<svg xmlns="http://www.w3.org/2000/svg" xmlns:xlink="http://www.w3.org/1999/xlink" width="40.119" height="29.941" viewBox="0 0 40.119 29.941">
  <defs>
    <linearGradient id="linear-gradient" x1="0.5" x2="0.5" y2="1" gradientUnits="objectBoundingBox">
      <stop offset="0" stop-color="#f3c65d"/>
      <stop offset="1" stop-color="#e59f00"/>
    </linearGradient>
  </defs>
  <path id="Path_15559" data-name="Path 15559" d="M13,20a8.946,8.946,0,0,0-1.3.13,7.165,7.165,0,0,1,.508-1.36,8.425,8.425,0,0,1,.938-1.688,9.965,9.965,0,0,1,1.2-1.474A13.6,13.6,0,0,1,15.732,14.4a8.5,8.5,0,0,1,1.428-.926,7.591,7.591,0,0,1,1.3-.7l1.078-.444.948-.394-.97-3.876-1.194.288c-.382.1-.848.208-1.378.342a10.849,10.849,0,0,0-1.764.624,12.421,12.421,0,0,0-2.056.932,18.782,18.782,0,0,0-2.182,1.384,15.552,15.552,0,0,0-2.1,1.89,14.021,14.021,0,0,0-1.818,2.324,16.244,16.244,0,0,0-1.4,2.6,22.154,22.154,0,0,0-.936,2.672,24.143,24.143,0,0,0-.768,4.874,24.913,24.913,0,0,0,.056,3.494c.03.408.086.8.126,1.078l.05.336.052-.012A9,9,0,1,0,13,20Zm22,0a8.946,8.946,0,0,0-1.3.13,7.165,7.165,0,0,1,.508-1.36,8.425,8.425,0,0,1,.938-1.688,9.965,9.965,0,0,1,1.2-1.474A13.6,13.6,0,0,1,37.732,14.4a8.5,8.5,0,0,1,1.428-.926,7.591,7.591,0,0,1,1.3-.7l1.078-.444.948-.394-.97-3.876-1.194.288c-.382.1-.848.208-1.378.342a10.849,10.849,0,0,0-1.764.624,12.513,12.513,0,0,0-2.056.934,18.782,18.782,0,0,0-2.182,1.384,15.67,15.67,0,0,0-2.1,1.888,14.021,14.021,0,0,0-1.818,2.324,16.244,16.244,0,0,0-1.4,2.6,22.154,22.154,0,0,0-.936,2.672,24.142,24.142,0,0,0-.768,4.874,24.913,24.913,0,0,0,.056,3.494c.03.408.086.8.126,1.078l.05.336.052-.012A9,9,0,1,0,35,20Z" transform="translate(-3.882 -8.06)" fill="url(#linear-gradient)"/>
</svg>
