<svg xmlns="http://www.w3.org/2000/svg" width="229.521" height="62.969" viewBox="0 0 229.521 62.969">
  <g id="Group_4278" data-name="Group 4278" transform="translate(3780.153 3855.719)">
    <g id="Group_4230" data-name="Group 4230" transform="translate(-3693.156 -3837.644)">
      <path id="Path_11877" data-name="Path 11877" d="M-3644.662-3825.282v-1.831h6.867v1.831l-4.334,6.439v.275h4.334v1.831h-6.867v-1.816l4.333-6.455v-.274Z" transform="translate(3644.723 3827.418)" fill="#063354"/>
      <path id="Path_11878" data-name="Path 11878" d="M-3627.261-3822.838h2.045v7.629h-2.03v-.427a4.074,4.074,0,0,1-1.908.609,2.326,2.326,0,0,1-2.136-.876,5.811,5.811,0,0,1-.549-2.937v-4h2.044v4.028a4.341,4.341,0,0,0,.183,1.542q.183.411.885.411a3.713,3.713,0,0,0,1.267-.213l.2-.061Z" transform="translate(3640.139 3825.89)" fill="#063354"/>
      <path id="Path_11879" data-name="Path 11879" d="M-3614.895-3824.719a2.9,2.9,0,0,1,2.342.877,4.974,4.974,0,0,1,.74,3.136,4.411,4.411,0,0,1-.855,3.121,4.064,4.064,0,0,1-2.944.861q-.657,0-2.4-.152l-.58-.061v-10.651h2.045v3.281A4.394,4.394,0,0,1-3614.895-3824.719Zm-.717,6.165a1.586,1.586,0,0,0,1.373-.5,3.251,3.251,0,0,0,.351-1.778q0-2.059-1.281-2.06a4.325,4.325,0,0,0-1.16.153l-.213.045v4.074C-3616.075-3818.575-3615.764-3818.555-3615.611-3818.555Z" transform="translate(3635.402 3827.588)" fill="#063354"/>
      <path id="Path_11880" data-name="Path 11880" d="M-3605.668-3825.512v-2.076h2.044v2.076Zm0,8.606v-7.629h2.044v7.629Z" transform="translate(3630.785 3827.588)" fill="#063354"/>
      <path id="Path_11881" data-name="Path 11881" d="M-3599.35-3822.079a3.208,3.208,0,0,1,2.7-1.044,3.21,3.21,0,0,1,2.7,1.044,4.709,4.709,0,0,1,.809,2.938q0,4.013-3.51,4.013t-3.509-4.013A4.7,4.7,0,0,1-3599.35-3822.079Zm1.58,4.662a1.176,1.176,0,0,0,1.121.55,1.179,1.179,0,0,0,1.122-.55,3.628,3.628,0,0,0,.312-1.724,3.533,3.533,0,0,0-.312-1.709,1.19,1.19,0,0,0-1.122-.534,1.187,1.187,0,0,0-1.121.534,3.519,3.519,0,0,0-.313,1.709A3.613,3.613,0,0,0-3597.77-3817.417Z" transform="translate(3628.815 3825.992)" fill="#063354"/>
      <path id="Path_11882" data-name="Path 11882" d="M-3584.863-3815.311h-2.045v-7.629h2.03v.427a3.82,3.82,0,0,1,1.907-.61,2.314,2.314,0,0,1,2.106.9,5.236,5.236,0,0,1,.58,2.777v4.135h-2.044v-4.074a3.445,3.445,0,0,0-.229-1.442.92.92,0,0,0-.916-.466,3.445,3.445,0,0,0-1.206.214l-.183.061Z" transform="translate(3624.078 3825.992)" fill="#063354"/>
      <path id="Path_11883" data-name="Path 11883" d="M-3564.772-3816.737h-3.494v-10.376h3.494a7.3,7.3,0,0,1,2.213.282,2.644,2.644,0,0,1,1.351.931,3.861,3.861,0,0,1,.664,1.526,11.582,11.582,0,0,1,.183,2.281,13.418,13.418,0,0,1-.168,2.328,4.51,4.51,0,0,1-.633,1.647,2.64,2.64,0,0,1-1.351,1.053A6.574,6.574,0,0,1-3564.772-3816.737Zm2.213-4.12q.03-.489.031-1.351a12.286,12.286,0,0,0-.061-1.381,2.657,2.657,0,0,0-.29-.947,1.2,1.2,0,0,0-.679-.586,3.716,3.716,0,0,0-1.213-.161h-1.389v6.714h1.389a2.127,2.127,0,0,0,1.664-.58A2.9,2.9,0,0,0-3562.559-3820.857Z" transform="translate(3617.414 3827.418)" fill="#063354"/>
      <path id="Path_11884" data-name="Path 11884" d="M-3551.56-3817.241a1.521,1.521,0,0,0,1.03.313q1.419,0,2.533-.092l.427-.045.03,1.511a13.541,13.541,0,0,1-3.173.427,3.113,3.113,0,0,1-2.5-.915,4.576,4.576,0,0,1-.778-2.976q0-4.1,3.372-4.1,3.327,0,3.327,3.448l-.152,1.419h-4.486A1.318,1.318,0,0,0-3551.56-3817.241Zm2.251-2.571a2.082,2.082,0,0,0-.291-1.273,1.236,1.236,0,0,0-1.015-.359,1.236,1.236,0,0,0-1.022.374,2.108,2.108,0,0,0-.313,1.258Z" transform="translate(3612.313 3825.992)" fill="#063354"/>
      <path id="Path_11885" data-name="Path 11885" d="M-3542.547-3822.838h2.136l1.221,5.89h.427l1.282-5.89h2.075l-1.831,7.629h-3.479Z" transform="translate(3608.221 3825.89)" fill="#063354"/>
      <path id="Path_11886" data-name="Path 11886" d="M-3527.931-3817.241a1.521,1.521,0,0,0,1.03.313q1.419,0,2.533-.092l.427-.045.03,1.511a13.538,13.538,0,0,1-3.173.427,3.115,3.115,0,0,1-2.5-.915,4.579,4.579,0,0,1-.778-2.976q0-4.1,3.373-4.1,3.327,0,3.326,3.448l-.152,1.419h-4.487A1.324,1.324,0,0,0-3527.931-3817.241Zm2.25-2.571a2.082,2.082,0,0,0-.29-1.273,1.237,1.237,0,0,0-1.015-.359,1.237,1.237,0,0,0-1.022.374,2.116,2.116,0,0,0-.312,1.258Z" transform="translate(3603.866 3825.992)" fill="#063354"/>
      <path id="Path_11887" data-name="Path 11887" d="M-3517.518-3816.906v-10.682h2.045v10.682Z" transform="translate(3599.274 3827.588)" fill="#063354"/>
      <path id="Path_11888" data-name="Path 11888" d="M-3511.057-3822.079a3.21,3.21,0,0,1,2.7-1.044,3.208,3.208,0,0,1,2.7,1.044,4.7,4.7,0,0,1,.809,2.938q0,4.013-3.509,4.013t-3.51-4.013A4.7,4.7,0,0,1-3511.057-3822.079Zm1.58,4.662a1.177,1.177,0,0,0,1.122.55,1.179,1.179,0,0,0,1.122-.55,3.628,3.628,0,0,0,.312-1.724,3.533,3.533,0,0,0-.312-1.709,1.19,1.19,0,0,0-1.122-.534,1.188,1.188,0,0,0-1.122.534,3.52,3.52,0,0,0-.313,1.709A3.614,3.614,0,0,0-3509.478-3817.417Z" transform="translate(3597.253 3825.992)" fill="#063354"/>
      <path id="Path_11889" data-name="Path 11889" d="M-3498.614-3812.106v-10.833h2.029v.412a3.5,3.5,0,0,1,1.739-.6,2.729,2.729,0,0,1,2.274.922,5.14,5.14,0,0,1,.732,3.137,4.505,4.505,0,0,1-.809,3.074,3.507,3.507,0,0,1-2.655.862,7.014,7.014,0,0,1-1.083-.091l-.184-.032v3.144Zm3.372-9.186a3.08,3.08,0,0,0-1.144.229l-.184.076v4a8.8,8.8,0,0,0,1.114.092,1.321,1.321,0,0,0,1.213-.52,3.484,3.484,0,0,0,.328-1.77Q-3493.915-3821.292-3495.242-3821.292Z" transform="translate(3592.516 3825.992)" fill="#063354"/>
      <path id="Path_11890" data-name="Path 11890" d="M-3483.651-3815.311h-2.045v-7.629h2.029v.427a3.765,3.765,0,0,1,1.8-.61,2.488,2.488,0,0,1,1.907.717,5.72,5.72,0,0,1,2.563-.717,2.34,2.34,0,0,1,2.1.877,5.16,5.16,0,0,1,.588,2.8v4.135h-2.045v-4.074a3.64,3.64,0,0,0-.214-1.442.845.845,0,0,0-.854-.466,4.187,4.187,0,0,0-1.19.214l-.23.076q.062,1.144.061,1.739v3.952h-2.044v-3.922a4.513,4.513,0,0,0-.2-1.594.841.841,0,0,0-.87-.466,3.358,3.358,0,0,0-1.174.214l-.184.061Z" transform="translate(3587.899 3825.992)" fill="#063354"/>
      <path id="Path_11891" data-name="Path 11891" d="M-3463.932-3817.241a1.519,1.519,0,0,0,1.03.313q1.42,0,2.533-.092l.427-.045.031,1.511a13.546,13.546,0,0,1-3.174.427,3.112,3.112,0,0,1-2.5-.915,4.573,4.573,0,0,1-.779-2.976q0-4.1,3.373-4.1,3.326,0,3.326,3.448l-.153,1.419h-4.486A1.322,1.322,0,0,0-3463.932-3817.241Zm2.25-2.571a2.09,2.09,0,0,0-.29-1.273,1.238,1.238,0,0,0-1.015-.359,1.234,1.234,0,0,0-1.022.374,2.108,2.108,0,0,0-.313,1.258Z" transform="translate(3580.989 3825.992)" fill="#063354"/>
      <path id="Path_11892" data-name="Path 11892" d="M-3451.616-3815.311h-2.045v-7.629h2.029v.427a3.82,3.82,0,0,1,1.907-.61,2.314,2.314,0,0,1,2.106.9,5.235,5.235,0,0,1,.58,2.777v4.135h-2.044v-4.074a3.436,3.436,0,0,0-.229-1.442.919.919,0,0,0-.916-.466,3.44,3.44,0,0,0-1.205.214l-.183.061Z" transform="translate(3576.447 3825.992)" fill="#063354"/>
      <path id="Path_11893" data-name="Path 11893" d="M-3436.633-3822.279h-1.877v3.128a6.277,6.277,0,0,0,.023.648.53.53,0,0,0,.168.328.637.637,0,0,0,.45.137l1.16-.03.091,1.633a7.731,7.731,0,0,1-1.556.228,2.329,2.329,0,0,1-1.877-.617,3.758,3.758,0,0,1-.5-2.282v-3.174h-.9v-1.739h.9v-2.121h2.044v2.121h1.877Z" transform="translate(3572.084 3827.07)" fill="#063354"/>
      <path id="Path_11894" data-name="Path 11894" d="M-3641-3801.362q-1.663,0-1.664,1.1a.833.833,0,0,0,.413.748,10.692,10.692,0,0,0,1.931.748,5.33,5.33,0,0,1,2.128,1.106,2.612,2.612,0,0,1,.61,1.9,3.058,3.058,0,0,1-.992,2.472,3.882,3.882,0,0,1-2.594.839,14.405,14.405,0,0,1-2.915-.367l-.549-.106.213-1.632a25.372,25.372,0,0,0,3.128.274q1.617,0,1.617-1.342a.894.894,0,0,0-.374-.764,5.282,5.282,0,0,0-1.488-.595,6.069,6.069,0,0,1-2.495-1.2,2.547,2.547,0,0,1-.725-1.931,2.8,2.8,0,0,1,.946-2.319,4.021,4.021,0,0,1,2.594-.763,17.226,17.226,0,0,1,2.869.305l.549.107-.168,1.663Q-3640.117-3801.362-3641-3801.362Z" transform="translate(3644.757 3818.868)" fill="#063354"/>
      <path id="Path_11895" data-name="Path 11895" d="M-3631.053-3797.874a3.21,3.21,0,0,1,2.7-1.045,3.208,3.208,0,0,1,2.7,1.045,4.7,4.7,0,0,1,.809,2.938q0,4.013-3.509,4.013t-3.51-4.013A4.7,4.7,0,0,1-3631.053-3797.874Zm1.579,4.662a1.179,1.179,0,0,0,1.122.55,1.176,1.176,0,0,0,1.121-.55,3.614,3.614,0,0,0,.313-1.724,3.52,3.52,0,0,0-.313-1.709,1.187,1.187,0,0,0-1.121-.534,1.19,1.19,0,0,0-1.122.534,3.533,3.533,0,0,0-.312,1.709A3.627,3.627,0,0,0-3629.474-3793.212Z" transform="translate(3640.147 3817.34)" fill="#063354"/>
      <path id="Path_11896" data-name="Path 11896" d="M-3618.469-3792.7v-10.681h2.046v10.681Z" transform="translate(3635.361 3818.935)" fill="#063354"/>
      <path id="Path_11897" data-name="Path 11897" d="M-3607.74-3798.634h2.044V-3791h-2.03v-.427a4.071,4.071,0,0,1-1.907.61,2.327,2.327,0,0,1-2.137-.877,5.813,5.813,0,0,1-.549-2.938v-4h2.045v4.029a4.317,4.317,0,0,0,.184,1.541q.183.412.885.412a3.7,3.7,0,0,0,1.266-.214l.2-.061Z" transform="translate(3633.161 3817.238)" fill="#063354"/>
      <path id="Path_11898" data-name="Path 11898" d="M-3595.171-3798.074h-1.876v3.128q0,.458.022.648a.528.528,0,0,0,.168.328.634.634,0,0,0,.45.137l1.16-.031.091,1.633a7.775,7.775,0,0,1-1.556.229,2.323,2.323,0,0,1-1.877-.618,3.755,3.755,0,0,1-.5-2.281v-3.173h-.9v-1.74h.9v-2.121h2.046v2.121h1.876Z" transform="translate(3628.756 3818.418)" fill="#063354"/>
      <path id="Path_11899" data-name="Path 11899" d="M-3590.422-3801.309v-2.074h2.044v2.074Zm0,8.606v-7.629h2.044v7.629Z" transform="translate(3625.334 3818.935)" fill="#063354"/>
      <path id="Path_11900" data-name="Path 11900" d="M-3584.1-3797.874a3.211,3.211,0,0,1,2.7-1.045,3.209,3.209,0,0,1,2.7,1.045,4.7,4.7,0,0,1,.81,2.938q0,4.013-3.51,4.013t-3.51-4.013A4.7,4.7,0,0,1-3584.1-3797.874Zm1.58,4.662a1.178,1.178,0,0,0,1.122.55,1.178,1.178,0,0,0,1.121-.55,3.614,3.614,0,0,0,.313-1.724,3.52,3.52,0,0,0-.313-1.709,1.189,1.189,0,0,0-1.121-.534,1.189,1.189,0,0,0-1.122.534,3.519,3.519,0,0,0-.313,1.709A3.613,3.613,0,0,0-3582.525-3793.212Z" transform="translate(3623.365 3817.34)" fill="#063354"/>
      <path id="Path_11901" data-name="Path 11901" d="M-3569.618-3791.107h-2.044v-7.629h2.03v.427a3.819,3.819,0,0,1,1.907-.611,2.312,2.312,0,0,1,2.105.9,5.232,5.232,0,0,1,.58,2.777v4.135h-2.044v-4.074a3.436,3.436,0,0,0-.229-1.441.92.92,0,0,0-.917-.465,3.459,3.459,0,0,0-1.205.214l-.183.06Z" transform="translate(3618.629 3817.34)" fill="#063354"/>
      <path id="Path_11902" data-name="Path 11902" d="M-3553.272-3796.82a24.3,24.3,0,0,0-2.647-.244,2.176,2.176,0,0,0-.977.137.472.472,0,0,0-.221.434.414.414,0,0,0,.3.412,11.56,11.56,0,0,0,1.526.336,3.362,3.362,0,0,1,1.747.725,2.2,2.2,0,0,1,.519,1.633q0,2.472-3.067,2.472a13.321,13.321,0,0,1-2.442-.274l-.488-.091.061-1.709a24.239,24.239,0,0,0,2.633.244,2.367,2.367,0,0,0,1.007-.145.467.467,0,0,0,.267-.435.45.45,0,0,0-.282-.427,7.328,7.328,0,0,0-1.464-.335,3.774,3.774,0,0,1-1.763-.671,2.078,2.078,0,0,1-.58-1.686,2.143,2.143,0,0,1,.825-1.831,3.438,3.438,0,0,1,2.121-.618,14.326,14.326,0,0,1,2.457.289l.5.093Z" transform="translate(3614.155 3817.332)" fill="#063354"/>
      <path id="Path_11903" data-name="Path 11903" d="M-3535.906-3792.533h-5.906v-10.375h2.106v8.515h3.8Z" transform="translate(3607.958 3818.766)" fill="#063354"/>
      <path id="Path_11904" data-name="Path 11904" d="M-3530.888-3801.309v-2.074h2.044v2.074Zm0,8.606v-7.629h2.044v7.629Z" transform="translate(3604.053 3818.935)" fill="#063354"/>
      <path id="Path_11905" data-name="Path 11905" d="M-3522.717-3791.107h-2.044v-7.629h2.029v.427a3.763,3.763,0,0,1,1.8-.611,2.487,2.487,0,0,1,1.907.717,5.713,5.713,0,0,1,2.563-.717,2.342,2.342,0,0,1,2.1.877,5.162,5.162,0,0,1,.587,2.8v4.135h-2.044v-4.074a3.658,3.658,0,0,0-.213-1.441.845.845,0,0,0-.854-.465,4.213,4.213,0,0,0-1.19.214l-.229.076q.062,1.146.061,1.74v3.952h-2.044v-3.921a4.5,4.5,0,0,0-.2-1.594.841.841,0,0,0-.87-.465,3.374,3.374,0,0,0-1.175.214l-.183.06Z" transform="translate(3601.863 3817.34)" fill="#063354"/>
      <path id="Path_11906" data-name="Path 11906" d="M-3504.837-3801.309v-2.074h2.044v2.074Zm0,8.606v-7.629h2.044v7.629Z" transform="translate(3594.741 3818.935)" fill="#063354"/>
      <path id="Path_11907" data-name="Path 11907" d="M-3494.815-3798.074h-1.876v3.128a6.283,6.283,0,0,0,.023.648.53.53,0,0,0,.167.328.637.637,0,0,0,.451.137l1.159-.031.092,1.633a7.8,7.8,0,0,1-1.557.229,2.325,2.325,0,0,1-1.877-.618,3.756,3.756,0,0,1-.5-2.281v-3.173h-.9v-1.74h.9v-2.121h2.045v2.121h1.876Z" transform="translate(3592.882 3818.418)" fill="#063354"/>
      <path id="Path_11908" data-name="Path 11908" d="M-3488.226-3793.037a1.52,1.52,0,0,0,1.03.313q1.42,0,2.533-.092l.427-.045.031,1.511a13.578,13.578,0,0,1-3.174.427,3.113,3.113,0,0,1-2.5-.916,4.57,4.57,0,0,1-.779-2.975q0-4.105,3.373-4.105,3.327,0,3.327,3.449l-.153,1.419h-4.486A1.323,1.323,0,0,0-3488.226-3793.037Zm2.251-2.571a2.092,2.092,0,0,0-.29-1.273,1.24,1.24,0,0,0-1.015-.358,1.233,1.233,0,0,0-1.022.374,2.1,2.1,0,0,0-.313,1.258Z" transform="translate(3589.673 3817.34)" fill="#063354"/>
      <path id="Path_11909" data-name="Path 11909" d="M-3471.674-3803.383v10.681h-2.029v-.321a4.468,4.468,0,0,1-1.847.5,2.606,2.606,0,0,1-2.319-.961,5.506,5.506,0,0,1-.657-3.044,4.754,4.754,0,0,1,.786-3.037,2.9,2.9,0,0,1,2.373-.954,8.438,8.438,0,0,1,1.358.153l.29.061v-3.082Zm-2.258,8.849.213-.045v-4.013a8.443,8.443,0,0,0-1.5-.153q-1.236,0-1.236,2.2a3.782,3.782,0,0,0,.275,1.694.952.952,0,0,0,.907.5A5.3,5.3,0,0,0-3473.931-3794.534Z" transform="translate(3585.336 3818.935)" fill="#063354"/>
    </g>
    <g id="Group_4242" data-name="Group 4242" transform="translate(-3780.153 -3855.719)">
      <g id="Group_4239" data-name="Group 4239" transform="translate(0 13.639)">
        <g id="Group_4232" data-name="Group 4232" transform="translate(0 8.002)">
          <g id="Group_4231" data-name="Group 4231">
            <path id="Path_11910" data-name="Path 11910" d="M-3780.153-3816.7v-5.336h16.5v5.336l-9.337,11.561h9.337v5.335h-16.5v-5.335l9.338-11.561Z" transform="translate(3780.153 3822.038)" fill="#063354"/>
          </g>
        </g>
        <g id="Group_4234" data-name="Group 4234" transform="translate(20.054)">
          <g id="Group_4233" data-name="Group 4233">
            <path id="Path_11911" data-name="Path 11911" d="M-3728.979-3834.491v30.234h-5.914v-.934a13.034,13.034,0,0,1-5.38,1.468q-4.847,0-6.758-2.8t-1.913-8.871q0-6.07,2.29-8.849t6.914-2.779a24.631,24.631,0,0,1,3.957.444l.846.179v-8.091Zm-6.58,24.9.622-.133v-11.694a24.767,24.767,0,0,0-4.357-.445q-3.6,0-3.6,6.4a11.022,11.022,0,0,0,.8,4.936,2.778,2.778,0,0,0,2.646,1.467A15.427,15.427,0,0,0-3735.559-3809.593Z" transform="translate(3748.943 3834.491)" fill="#063354"/>
          </g>
        </g>
        <g id="Group_4236" data-name="Group 4236" transform="translate(44.376 7.513)">
          <g id="Group_4235" data-name="Group 4235">
            <path id="Path_11912" data-name="Path 11912" d="M-3693.971-3816.752a70.9,70.9,0,0,0-7.714-.712,6.372,6.372,0,0,0-2.846.4,1.381,1.381,0,0,0-.646,1.267,1.207,1.207,0,0,0,.867,1.2,34.027,34.027,0,0,0,4.447.978,9.793,9.793,0,0,1,5.091,2.112q1.512,1.468,1.511,4.758,0,7.2-8.937,7.2a38.828,38.828,0,0,1-7.114-.8l-1.423-.266.178-4.981a70.7,70.7,0,0,0,7.67.712,6.883,6.883,0,0,0,2.935-.422,1.362,1.362,0,0,0,.778-1.268,1.312,1.312,0,0,0-.823-1.245,21.326,21.326,0,0,0-4.268-.978,11.009,11.009,0,0,1-5.136-1.957q-1.689-1.378-1.689-4.913a6.247,6.247,0,0,1,2.4-5.336,10.023,10.023,0,0,1,6.18-1.8,41.6,41.6,0,0,1,7.159.845l1.468.267Z" transform="translate(3711.091 3822.799)" fill="#063354"/>
          </g>
        </g>
        <g id="Group_4238" data-name="Group 4238" transform="translate(66.785 0)">
          <g id="Group_4237" data-name="Group 4237">
            <path id="Path_11913" data-name="Path 11913" d="M-3666.252-3809.925v5.668h-9.962v-30.234h5.959v24.566Z" transform="translate(3676.215 3834.491)" fill="#063354"/>
          </g>
        </g>
      </g>
      <g id="Group_4241" data-name="Group 4241" transform="translate(28.117)">
        <g id="Group_4240" data-name="Group 4240">
          <path id="Path_11914" data-name="Path 11914" d="M-3686.922-3841.995a1.009,1.009,0,0,1-.44-.1l-23.787-11.477-23.786,11.477a1.017,1.017,0,0,1-1.358-.474,1.018,1.018,0,0,1,.475-1.357l24.228-11.69a1.013,1.013,0,0,1,.884,0l24.228,11.69a1.017,1.017,0,0,1,.474,1.357A1.017,1.017,0,0,1-3686.922-3841.995Z" transform="translate(3736.395 3855.719)" fill="#f4b644"/>
        </g>
      </g>
    </g>
    <g id="Group_4243" data-name="Group 4243" transform="translate(-3690.621 -3800.717)">
      <path id="Path_11915" data-name="Path 11915" d="M-3637.427-3763.936v-1.2h-1.872l-.576,1.2h-.936l2.7-5.739h1.664l-.051,5.739Zm-.142-4.926-1.37,2.907h1.537l.042-2.907Z" transform="translate(3640.811 3769.959)" fill="#063354"/>
      <path id="Path_11916" data-name="Path 11916" d="M-3632.957-3763.125l.961-4.188h.894l-.141.611a4.356,4.356,0,0,1,.689-.44,2.431,2.431,0,0,1,.706-.263l-.259.938a7.683,7.683,0,0,0-1.078.444l-.217.1-.651,2.8Z" transform="translate(3638.004 3769.148)" fill="#063354"/>
      <path id="Path_11917" data-name="Path 11917" d="M-3627.067-3764.7q0,.31.326.31l.6-.05-.075.662a2.524,2.524,0,0,1-.873.159.923.923,0,0,1-.677-.234.8.8,0,0,1-.239-.6,3.9,3.9,0,0,1,.125-.883l.418-1.785h-.485l.2-.778h.476l.259-1.148h.911l-.267,1.148h1l-.192.778h-.995l-.435,1.86A2.573,2.573,0,0,0-3627.067-3764.7Z" transform="translate(3636.232 3769.736)" fill="#063354"/>
      <path id="Path_11918" data-name="Path 11918" d="M-3618.822-3767.393a1.358,1.358,0,0,1,1.563,1.508,3.945,3.945,0,0,1-.234,1.361,2.531,2.531,0,0,1-.731,1.069,1.724,1.724,0,0,1-1.157.427q-1.548,0-1.546-1.491a3.762,3.762,0,0,1,.25-1.37,2.663,2.663,0,0,1,.743-1.076A1.653,1.653,0,0,1-3618.822-3767.393Zm-.56,3.594a1,1,0,0,0,.881-.637,3.056,3.056,0,0,0,.338-1.458.791.791,0,0,0-.167-.536.617.617,0,0,0-.493-.193.991.991,0,0,0-.87.646,3.138,3.138,0,0,0-.334,1.466Q-3620.026-3763.8-3619.382-3763.8Z" transform="translate(3633.703 3769.144)" fill="#063354"/>
      <path id="Path_11919" data-name="Path 11919" d="M-3612.23-3770.118a1.747,1.747,0,0,1,.644.118l.109.042-.167.678a3.082,3.082,0,0,0-.56-.059.409.409,0,0,0-.372.193,2.319,2.319,0,0,0-.23.621l-.059.243h.987l-.192.779h-.961l-.793,3.41-.519,1.81h-.811l1.212-5.211h-.418l.184-.788h.41l.058-.251a2.8,2.8,0,0,1,.522-1.227A1.219,1.219,0,0,1-3612.23-3770.118Z" transform="translate(3631.64 3770.118)" fill="#063354"/>
      <path id="Path_11920" data-name="Path 11920" d="M-3607.456-3764.043l1.37-5.932h.9l-1.361,5.932Z" transform="translate(3628.888 3770.067)" fill="#063354"/>
      <path id="Path_11921" data-name="Path 11921" d="M-3604.335-3763.964l.961-4.188h.9l-.961,4.188Zm1.1-4.809.225-.979h.919l-.225.979Z" transform="translate(3627.772 3769.987)" fill="#063354"/>
      <path id="Path_11922" data-name="Path 11922" d="M-3600.33-3767.262h.895l-.042,3.435h.2l1.6-3.435h.919l-2.031,4.188h-1.5Z" transform="translate(3626.341 3769.097)" fill="#063354"/>
      <path id="Path_11923" data-name="Path 11923" d="M-3595.154-3763.964l.961-4.188h.9l-.96,4.188Zm1.095-4.809.226-.979h.919l-.226.979Z" transform="translate(3624.49 3769.987)" fill="#063354"/>
      <path id="Path_11924" data-name="Path 11924" d="M-3589.147-3767.4a.914.914,0,0,1,.756.305,1.153,1.153,0,0,1,.246.746,4.98,4.98,0,0,1-.175,1.144l-.477,2.085h-.9l.468-2.019a5.633,5.633,0,0,0,.15-.956.653.653,0,0,0-.1-.385.355.355,0,0,0-.31-.134.836.836,0,0,0-.463.171,2.654,2.654,0,0,0-.418.348l-.158.176-.644,2.8h-.9l.961-4.188h.869l-.091.552q.066-.075.175-.179a2.36,2.36,0,0,1,.421-.285A1.191,1.191,0,0,1-3589.147-3767.4Z" transform="translate(3623.388 3769.148)" fill="#063354"/>
      <path id="Path_11925" data-name="Path 11925" d="M-3582.805-3761.633a2.164,2.164,0,0,1-1.42.453q-1.747,0-1.747-1.123a.908.908,0,0,1,.292-.687,3.169,3.169,0,0,1,.76-.511.5.5,0,0,1-.15-.364.8.8,0,0,1,.12-.415,1.719,1.719,0,0,1,.239-.318l.125-.117a1.065,1.065,0,0,1-.577-1.014,1.648,1.648,0,0,1,.468-1.189,1.648,1.648,0,0,1,1.245-.485,3.293,3.293,0,0,1,.777.108l.142.033,1.228-.05-.175.745h-.593a1.379,1.379,0,0,1,.076.495,1.521,1.521,0,0,1-.485,1.115,1.734,1.734,0,0,1-1.27.478l-.318-.042a.73.73,0,0,0-.184.385.2.2,0,0,0,.155.2,4.357,4.357,0,0,0,.681.126,1.842,1.842,0,0,1,.844.3.835.835,0,0,1,.318.725A1.43,1.43,0,0,1-3582.805-3761.633Zm-2.135-1.282a.606.606,0,0,0-.2.428.473.473,0,0,0,.205.385,1.092,1.092,0,0,0,.664.16,1.692,1.692,0,0,0,.806-.185.6.6,0,0,0,.347-.562.288.288,0,0,0-.15-.28,2.3,2.3,0,0,0-.623-.151c-.315-.048-.522-.085-.623-.114A1.644,1.644,0,0,0-3584.94-3762.915Zm1.257-2.312a.78.78,0,0,0,.618-.268.882.882,0,0,0,.234-.595q0-.571-.66-.57a.754.754,0,0,0-.6.264.894.894,0,0,0-.23.607Q-3584.318-3765.227-3583.683-3765.227Z" transform="translate(3621.209 3769.148)" fill="#063354"/>
      <path id="Path_11926" data-name="Path 11926" d="M-3579.483-3761.372l.25-1.131h.919l-.25,1.131Z" transform="translate(3618.888 3767.396)" fill="#063354"/>
      <path id="Path_11927" data-name="Path 11927" d="M-3577.286-3761.372l.25-1.131h.92l-.251,1.131Z" transform="translate(3618.103 3767.396)" fill="#063354"/>
      <path id="Path_11928" data-name="Path 11928" d="M-3575.088-3761.372l.251-1.131h.919l-.251,1.131Z" transform="translate(3617.318 3767.396)" fill="#063354"/>
    </g>
    <g id="Group_4244" data-name="Group 4244" transform="translate(-3647.109 -3801.165)">
      <path id="Path_11929" data-name="Path 11929" d="M-3572.448-3770.362h-.646v-.454h1.838v.454h-.653v1.938h-.539Z" transform="translate(3573.093 3770.816)" fill="#063354"/>
      <path id="Path_11930" data-name="Path 11930" d="M-3567.755-3769.34c-.011-.287-.021-.635-.021-.982h-.008c-.077.3-.176.646-.269.926l-.291.934h-.422l-.256-.923c-.078-.284-.156-.625-.216-.937h-.007c-.011.323-.025.692-.039.99l-.046.909h-.5l.153-2.392h.721l.234.8c.078.277.149.575.2.855h.014c.063-.276.146-.593.228-.858l.252-.8h.709l.128,2.392h-.525Z" transform="translate(3571.927 3770.816)" fill="#063354"/>
    </g>
    <g id="Group_4245" data-name="Group 4245" transform="translate(-3555.368 -3836.889)">
      <path id="Path_11931" data-name="Path 11931" d="M-3429.669-3825.96h-.646v-.455h1.838v.455h-.653v1.938h-.54Z" transform="translate(3430.314 3826.414)" fill="#063354"/>
      <path id="Path_11932" data-name="Path 11932" d="M-3424.976-3824.938c-.011-.288-.021-.635-.021-.983H-3425c-.079.305-.178.646-.27.926l-.291.934h-.422l-.256-.922c-.078-.284-.156-.625-.216-.937h-.007c-.011.323-.025.692-.04.99l-.045.909h-.5l.152-2.393h.721l.234.8c.078.276.149.575.2.855h.014c.063-.276.145-.592.228-.859l.251-.795h.709l.128,2.393h-.525Z" transform="translate(3429.148 3826.414)" fill="#063354"/>
    </g>
  </g>
</svg>
