<svg xmlns="http://www.w3.org/2000/svg" width="35.67" height="29.73" viewBox="0 0 35.67 29.73">
  <g id="Group_10307" data-name="Group 10307" transform="translate(-0.165 27.848)">
    <g id="Group_5302" data-name="Group 5302" transform="translate(0.165 -27.848)">
      <g id="cloud-upload-alt">
        <path id="cloud-upload-alt-2" data-name="cloud-upload-alt" d="M26.714,9.649a1.533,1.533,0,0,1-1.1-.846A11.965,11.965,0,0,0,12.63,2.2,11.812,11.812,0,0,0,3.142,11.87a12.091,12.091,0,0,0,.049,4.3,1.478,1.478,0,0,1-.514,1.34,8.177,8.177,0,0,0,5.5,14.228H24.523A11.151,11.151,0,0,0,26.714,9.65ZM24.523,28.76H8.174a5.2,5.2,0,0,1-3.5-9.054A4.467,4.467,0,0,0,6.107,15.6a9.135,9.135,0,0,1-.036-3.243,8.947,8.947,0,0,1,7.091-7.229,9.511,9.511,0,0,1,1.7-.155,8.844,8.844,0,0,1,8.058,5.106,4.479,4.479,0,0,0,3.207,2.487,8.179,8.179,0,0,1-1.61,16.2ZM22.474,17.3a1.486,1.486,0,1,1-2.1,2.1l-2.537-2.538V24.3a1.486,1.486,0,1,1-2.972,0V16.865L12.325,19.4a1.486,1.486,0,0,1-2.1-2.1l4.023-4.025a2.958,2.958,0,0,1,2.081-.867l.021,0,.021,0a2.955,2.955,0,0,1,2.081.867L22.474,17.3Z" transform="translate(0 -2.004)" fill="#063354"/>
      </g>
    </g>
  </g>
</svg>
