<svg xmlns="http://www.w3.org/2000/svg" width="19.149" height="19.13" viewBox="0 0 19.149 19.13">
  <path id="Path_15678" data-name="Path 15678" d="M16.475,6a1.575,1.575,0,0,0-.281-.037,1.7,1.7,0,0,0-1.2.468,21.622,21.622,0,0,0-2.132-.823,28.292,28.292,0,0,0-3.4-.86A1.852,1.852,0,0,0,8.957,4,20.652,20.652,0,0,1,10.21,0a9.629,9.629,0,0,1,7.518,4.507A18.976,18.976,0,0,0,16.475,6ZM7.8,3.572a1.733,1.733,0,0,0-.916.262A21.921,21.921,0,0,0,3.834,1.926,9.329,9.329,0,0,1,9.032,0,19.356,19.356,0,0,0,7.854,3.572ZM1.309,4.731a10.038,10.038,0,0,1,1.608-2.02A23.061,23.061,0,0,1,5.554,4.32,15.772,15.772,0,0,0,1.309,4.731ZM6,5.479A1.731,1.731,0,0,0,6.4,6.5a1.763,1.763,0,0,0,.907.589Q7.2,8.4,7.2,9.575q0,.823.056,1.889a1.786,1.786,0,0,0-.729.449,17.236,17.236,0,0,1-1.945-.9,1.862,1.862,0,0,0,.206-.842A1.731,1.731,0,0,0,4.264,8.9a1.731,1.731,0,0,0-1.272-.524,1.719,1.719,0,0,0-1.365.636,12.928,12.928,0,0,1-1.4-1.477,8.4,8.4,0,0,1,.5-1.59A16.275,16.275,0,0,1,6,5.479ZM1.216,10.323a1.734,1.734,0,0,0,.57,1.169,1.717,1.717,0,0,0,1.206.477,1.534,1.534,0,0,0,.449-.075A16.64,16.64,0,0,0,6,13.09v.075a1.727,1.727,0,0,0,.5,1.244,1.766,1.766,0,0,0,1.225.552,20.174,20.174,0,0,0,1.309,4.17A9.435,9.435,0,0,1,5.5,18.224,9.457,9.457,0,0,1,.711,13.165,9.315,9.315,0,0,1,0,9.575q0-.019.019-.5A10.231,10.231,0,0,0,1.216,10.323Zm8.153,3.684a22.03,22.03,0,0,0,2.712.318,2.079,2.079,0,0,0,.411.692,23.327,23.327,0,0,0-.524,3.815,9.978,9.978,0,0,1-1.758.3A21.222,21.222,0,0,1,8.845,14.6,1.524,1.524,0,0,0,9.369,14.007Zm5.8.9a1.746,1.746,0,0,0,.337-.636,24.9,24.9,0,0,0,2.637-.355,9.512,9.512,0,0,1-2.468,3.048A16.405,16.405,0,0,0,15.166,14.9Zm-3.048-1.777a17.822,17.822,0,0,1-2.581-.337A1.712,1.712,0,0,0,8.471,11.5Q8.4,10.4,8.4,9.575q0-1.234.112-2.562A.182.182,0,0,0,8.6,6.975a.193.193,0,0,1,.075-.037q.729.711,1.272,1.309a18.056,18.056,0,0,1,2.768,4.077A1.826,1.826,0,0,0,12.118,13.128Zm1.664,2.431q.037,0,.206-.019a16.594,16.594,0,0,1,.468,2.263,10.761,10.761,0,0,1-1.309.636,22.945,22.945,0,0,1,.449-2.9Q13.745,15.559,13.782,15.559Zm-.094-4.469q-.019.037-.047.112t-.047.112a20.177,20.177,0,0,0-2.768-3.871q-.58-.655-1.384-1.421.019,0,.028-.028l.009-.028a27.243,27.243,0,0,1,3.011.785,18.785,18.785,0,0,1,1.926.748,1.575,1.575,0,0,0-.037.281,1.721,1.721,0,0,0,.337,1.029A19.974,19.974,0,0,0,13.689,11.089Zm.879,1.085q.224-.655.224-.673a21.366,21.366,0,0,1,.935-2,1.588,1.588,0,0,0,.468.075,1.712,1.712,0,0,0,1.141-.43,18.67,18.67,0,0,1,1.8,1.421,9.453,9.453,0,0,1-.449,2.057,25.614,25.614,0,0,1-3.235.449A1.671,1.671,0,0,0,14.568,12.174ZM17.99,7.761a1.733,1.733,0,0,0-.411-1.122,11.965,11.965,0,0,1,.785-.916,9.422,9.422,0,0,1,.785,3.16q-.617-.468-1.2-.842A1.338,1.338,0,0,0,17.99,7.761Z"/>
</svg>
