<svg id="Group_10371" data-name="Group 10371" xmlns="http://www.w3.org/2000/svg" width="130.762" height="103.671" viewBox="0 0 130.762 103.671">
  <g id="Group_4242" data-name="Group 4242" transform="translate(0)">
    <g id="Group_4239" data-name="Group 4239" transform="translate(0 22.688)">
      <g id="Group_4232" data-name="Group 4232" transform="translate(0 13.312)">
        <g id="Group_4231" data-name="Group 4231">
          <path id="Path_11910" data-name="Path 11910" d="M-3780.154-3813.161v-8.877h27.444v8.877l-15.534,19.23h15.534v8.877h-27.444v-8.877l15.537-19.23Z" transform="translate(3780.154 3822.038)" fill="#063354"/>
        </g>
      </g>
      <g id="Group_4234" data-name="Group 4234" transform="translate(33.359)">
        <g id="Group_4233" data-name="Group 4233">
          <path id="Path_11911" data-name="Path 11911" d="M-3715.733-3834.492v50.3h-9.837v-1.556a21.68,21.68,0,0,1-8.951,2.443q-8.058,0-11.24-4.662t-3.182-14.758q0-10.093,3.809-14.714t11.5-4.625a40.9,40.9,0,0,1,6.581.738l1.409.3v-13.459Zm-10.944,41.417,1.036-.221v-19.452a41.137,41.137,0,0,0-7.25-.744q-5.988,0-5.992,10.656,0,5.767,1.331,8.208a4.624,4.624,0,0,0,4.4,2.441A25.616,25.616,0,0,0-3726.677-3793.075Z" transform="translate(3748.944 3834.492)" fill="#063354"/>
        </g>
      </g>
      <g id="Group_4236" data-name="Group 4236" transform="translate(73.819 12.498)">
        <g id="Group_4235" data-name="Group 4235">
          <path id="Path_11912" data-name="Path 11912" d="M-3682.613-3812.74a118.38,118.38,0,0,0-12.832-1.183q-3.665,0-4.737.666a2.3,2.3,0,0,0-1.073,2.107,2.01,2.01,0,0,0,1.443,2,56.169,56.169,0,0,0,7.4,1.626q5.953,1.077,8.468,3.514t2.517,7.916q0,11.986-14.869,11.982a64.643,64.643,0,0,1-11.834-1.332l-2.366-.442.3-8.287a117.4,117.4,0,0,0,12.759,1.186,11.438,11.438,0,0,0,4.88-.7,2.263,2.263,0,0,0,1.3-2.106,2.177,2.177,0,0,0-1.368-2.07,35.432,35.432,0,0,0-7.1-1.627q-5.733-.962-8.543-3.257t-2.809-8.173q0-5.88,4-8.875a16.657,16.657,0,0,1,10.28-3,69.088,69.088,0,0,1,11.909,1.406l2.442.444Z" transform="translate(3711.09 3822.799)" fill="#063354"/>
        </g>
      </g>
      <g id="Group_4238" data-name="Group 4238" transform="translate(111.097 0)">
        <g id="Group_4237" data-name="Group 4237">
          <path id="Path_11913" data-name="Path 11913" d="M-3659.641-3793.626v9.429h-16.574v-50.3h9.912v40.866Z" transform="translate(3676.215 3834.492)" fill="#063354"/>
        </g>
      </g>
    </g>
    <g id="Group_4241" data-name="Group 4241" transform="translate(46.773)">
      <g id="Group_4240" data-name="Group 4240">
        <path id="Path_11914" data-name="Path 11914" d="M-3654.1-3832.889a1.67,1.67,0,0,1-.734-.169l-39.57-19.091-39.568,19.091a1.691,1.691,0,0,1-2.259-.788,1.694,1.694,0,0,1,.786-2.258l40.3-19.448a1.7,1.7,0,0,1,1.473,0l40.3,19.448a1.7,1.7,0,0,1,.789,2.258A1.694,1.694,0,0,1-3654.1-3832.889Z" transform="translate(3736.394 3855.719)" fill="#f4b644"/>
      </g>
    </g>
  </g>
  <g id="Group_7505" data-name="Group 7505" transform="translate(50.494 89.671)">
    <g id="Group_4243" data-name="Group 4243" transform="translate(0 0.745)">
      <path id="Path_11915" data-name="Path 11915" d="M-3635.182-3760.128v-1.993h-3.113l-.961,1.993h-1.555l4.489-9.547h2.766l-.083,9.547Zm-.235-8.194-2.281,4.836h2.557l.069-4.836Z" transform="translate(3640.812 3770.149)" fill="#063354"/>
      <path id="Path_11916" data-name="Path 11916" d="M-3632.957-3760.283l1.6-6.969h1.49l-.24,1.017a7.6,7.6,0,0,1,1.148-.732,4.138,4.138,0,0,1,1.174-.437l-.428,1.56a12.745,12.745,0,0,0-1.8.739l-.36.166-1.084,4.658Z" transform="translate(3641.351 3770.305)" fill="#063354"/>
      <path id="Path_11917" data-name="Path 11917" d="M-3626.446-3761.814c0,.345.179.517.541.517l1-.086-.125,1.1a4.175,4.175,0,0,1-1.45.266,1.539,1.539,0,0,1-1.128-.392,1.342,1.342,0,0,1-.4-1,6.5,6.5,0,0,1,.209-1.469l.7-2.969h-.808l.334-1.294h.795l.429-1.912h1.514l-.443,1.912h1.667l-.319,1.294h-1.655l-.721,3.094A4.145,4.145,0,0,0-3626.446-3761.814Z" transform="translate(3641.693 3770.193)" fill="#063354"/>
      <path id="Path_11918" data-name="Path 11918" d="M-3617.426-3767.393q2.6,0,2.6,2.51a6.508,6.508,0,0,1-.39,2.264,4.213,4.213,0,0,1-1.215,1.78,2.874,2.874,0,0,1-1.925.708q-2.576,0-2.572-2.482a6.313,6.313,0,0,1,.415-2.276,4.456,4.456,0,0,1,1.237-1.792A2.751,2.751,0,0,1-3617.426-3767.393Zm-.93,5.98a1.666,1.666,0,0,0,1.465-1.06,5.073,5.073,0,0,0,.562-2.424,1.305,1.305,0,0,0-.278-.894,1.021,1.021,0,0,0-.818-.319,1.645,1.645,0,0,0-1.445,1.073,5.207,5.207,0,0,0-.558,2.438C-3619.429-3761.807-3619.069-3761.413-3618.356-3761.413Z" transform="translate(3642.18 3770.306)" fill="#063354"/>
      <path id="Path_11919" data-name="Path 11919" d="M-3610.288-3770.118a2.9,2.9,0,0,1,1.071.2l.181.069-.279,1.128a5.09,5.09,0,0,0-.93-.1.672.672,0,0,0-.619.321,3.735,3.735,0,0,0-.386,1.029l-.1.405h1.641l-.318,1.295h-1.6l-1.321,5.674-.862,3.012h-1.348l2.016-8.67h-.7l.307-1.31h.683l.1-.417a4.674,4.674,0,0,1,.871-2.042A2.022,2.022,0,0,1-3610.288-3770.118Z" transform="translate(3642.579 3770.118)" fill="#063354"/>
      <path id="Path_11920" data-name="Path 11920" d="M-3607.456-3760.108l2.281-9.867h1.5l-2.264,9.867Z" transform="translate(3643.109 3770.13)" fill="#063354"/>
      <path id="Path_11921" data-name="Path 11921" d="M-3604.335-3760.123l1.6-6.969h1.5l-1.6,6.969Zm1.82-8,.375-1.629h1.527l-.373,1.629Z" transform="translate(3643.323 3770.143)" fill="#063354"/>
      <path id="Path_11922" data-name="Path 11922" d="M-3600.331-3767.261h1.491l-.071,5.713h.333l2.655-5.713h1.529l-3.378,6.966h-2.5Z" transform="translate(3643.6 3770.314)" fill="#063354"/>
      <path id="Path_11923" data-name="Path 11923" d="M-3595.154-3760.123l1.6-6.969h1.5l-1.6,6.969Zm1.821-8,.374-1.629h1.53l-.375,1.629Z" transform="translate(3643.954 3770.143)" fill="#063354"/>
      <path id="Path_11924" data-name="Path 11924" d="M-3587.208-3767.405a1.523,1.523,0,0,1,1.261.506,1.926,1.926,0,0,1,.409,1.244,8.428,8.428,0,0,1-.291,1.9l-.793,3.471h-1.5l.779-3.358a9.421,9.421,0,0,0,.248-1.59,1.088,1.088,0,0,0-.16-.642.591.591,0,0,0-.515-.219,1.4,1.4,0,0,0-.771.281,4.429,4.429,0,0,0-.7.58l-.262.291-1.073,4.658h-1.5l1.6-6.969h1.446l-.153.92c.076-.086.172-.183.293-.3a3.913,3.913,0,0,1,.7-.474A1.957,1.957,0,0,1-3587.208-3767.405Z" transform="translate(3644.169 3770.305)" fill="#063354"/>
      <path id="Path_11925" data-name="Path 11925" d="M-3580.7-3757.8a3.614,3.614,0,0,1-2.366.754q-2.9,0-2.9-1.868a1.5,1.5,0,0,1,.487-1.141,5.207,5.207,0,0,1,1.267-.852.817.817,0,0,1-.252-.607,1.306,1.306,0,0,1,.2-.689,2.678,2.678,0,0,1,.4-.528l.209-.2a1.766,1.766,0,0,1-.961-1.687,2.747,2.747,0,0,1,.778-1.978,2.75,2.75,0,0,1,2.072-.808,5.589,5.589,0,0,1,1.292.179l.237.057,2.042-.083-.292,1.239h-.985a2.346,2.346,0,0,1,.124.825,2.533,2.533,0,0,1-.8,1.853,2.881,2.881,0,0,1-2.115.8l-.526-.071a1.208,1.208,0,0,0-.306.641.326.326,0,0,0,.256.326,6.638,6.638,0,0,0,1.13.213,3.052,3.052,0,0,1,1.4.5,1.4,1.4,0,0,1,.53,1.207A2.382,2.382,0,0,1-3580.7-3757.8Zm-3.55-2.131a.988.988,0,0,0-.33.711.8.8,0,0,0,.341.642,1.827,1.827,0,0,0,1.1.263,2.818,2.818,0,0,0,1.339-.307.994.994,0,0,0,.58-.934.483.483,0,0,0-.25-.465,3.747,3.747,0,0,0-1.037-.25c-.523-.08-.87-.144-1.036-.189A2.64,2.64,0,0,0-3584.253-3759.935Zm2.089-3.845a1.3,1.3,0,0,0,1.029-.449,1.483,1.483,0,0,0,.388-.991c0-.63-.367-.947-1.1-.947a1.247,1.247,0,0,0-.99.441,1.468,1.468,0,0,0-.384,1.009C-3583.219-3764.092-3582.869-3763.779-3582.164-3763.779Z" transform="translate(3644.588 3770.305)" fill="#063354"/>
      <path id="Path_11926" data-name="Path 11926" d="M-3579.483-3760.623l.416-1.88h1.527l-.413,1.88Z" transform="translate(3645.035 3770.644)" fill="#063354"/>
      <path id="Path_11927" data-name="Path 11927" d="M-3577.286-3760.623l.417-1.88h1.529l-.418,1.88Z" transform="translate(3645.187 3770.644)" fill="#063354"/>
      <path id="Path_11928" data-name="Path 11928" d="M-3575.088-3760.623l.417-1.88h1.53l-.418,1.88Z" transform="translate(3645.338 3770.644)" fill="#063354"/>
    </g>
    <g id="Group_4244" data-name="Group 4244" transform="translate(72.387)">
      <path id="Path_11929" data-name="Path 11929" d="M-3572.021-3770.062h-1.071v-.754h3.056v.754h-1.088v3.223h-.9Z" transform="translate(3573.092 3770.816)" fill="#063354"/>
      <path id="Path_11930" data-name="Path 11930" d="M-3566.379-3768.361c-.015-.479-.032-1.058-.032-1.635h-.015c-.128.506-.292,1.075-.447,1.542l-.483,1.551h-.7l-.426-1.536c-.129-.472-.26-1.039-.36-1.558h-.013c-.017.536-.038,1.15-.062,1.646l-.077,1.51h-.833l.256-3.977h1.2l.39,1.326c.129.461.25.959.338,1.425h.024c.106-.461.244-.987.377-1.429l.42-1.322h1.178l.216,3.977h-.876Z" transform="translate(3573.318 3770.816)" fill="#063354"/>
    </g>
  </g>
</svg>
