<svg id="Group_13929" data-name="Group 13929" xmlns="http://www.w3.org/2000/svg" xmlns:xlink="http://www.w3.org/1999/xlink" width="20" height="20" viewBox="0 0 20 20">
  <defs>
    <linearGradient id="linear-gradient" x1="0.5" x2="0.5" y2="1" gradientUnits="objectBoundingBox">
      <stop offset="0" stop-color="#f3c65d"/>
      <stop offset="1" stop-color="#e59f00"/>
    </linearGradient>
  </defs>
  <g id="Group_13928" data-name="Group 13928" transform="translate(6 14)">
    <g id="Group_13928-2" data-name="Group 13928">
      <rect id="Rectangle_9307" data-name="Rectangle 9307" width="8" height="6" rx="2" fill="url(#linear-gradient)"/>
    </g>
  </g>
  <path id="humanitarian-mission" d="M10.417,16.25h1.25v.833h-1.25v1.25H9.583v-1.25H8.333V16.25h1.25V15h.833Zm3.727-1.059a2.012,2.012,0,0,1,.023.226v2.5A2.086,2.086,0,0,1,12.083,20H7.917a2.086,2.086,0,0,1-2.083-2.083v-2.5a2.228,2.228,0,0,1,.023-.226L0,9.067C0,3.825,4.392,0,10,0S20,3.974,20,9.067ZM10.988.88A12.465,12.465,0,0,1,13.864,7.7a4.748,4.748,0,0,1,2.8-1.032,3.746,3.746,0,0,1,2.368.9C18.38,3.978,15.142,1.255,10.988.879ZM10,1.019a11.931,11.931,0,0,0-3.03,6.7A5.708,5.708,0,0,1,10,6.668a5.708,5.708,0,0,1,3.03,1.054A11.934,11.934,0,0,0,10,1.019ZM10,7.5A5.4,5.4,0,0,0,6.951,8.765l1.673,4.569h2.751l1.673-4.568A5.426,5.426,0,0,0,10,7.5ZM.965,7.562a3.75,3.75,0,0,1,2.368-.895A4.751,4.751,0,0,1,6.136,7.7,12.462,12.462,0,0,1,9.012.88C4.858,1.256,1.62,3.978.965,7.562Zm6.778,5.789L6.041,8.7A4.247,4.247,0,0,0,3.333,7.5,3.28,3.28,0,0,0,.9,8.8l5.262,5.5a2.074,2.074,0,0,1,1.582-.953Zm5.59,2.066a1.252,1.252,0,0,0-1.25-1.25H7.917a1.252,1.252,0,0,0-1.25,1.25v2.5a1.252,1.252,0,0,0,1.25,1.25h4.167a1.252,1.252,0,0,0,1.25-1.25Zm.505-1.112L19.1,8.8a3.3,3.3,0,0,0-2.433-1.3,4.218,4.218,0,0,0-2.707,1.2l-1.7,4.649a2.073,2.073,0,0,1,1.582.953Z"/>
</svg>
