<svg id="Component_16_1" data-name="Component 16 – 1" xmlns="http://www.w3.org/2000/svg" width="17.762" height="20.817" viewBox="0 0 17.762 20.817">
  <circle id="Ellipse_155" data-name="Ellipse 155" cx="5.995" cy="5.995" r="5.995" transform="translate(5.772 8.828)" fill="#f3c65d"/>
  <g id="lock">
    <path id="Path_11937" data-name="Path 11937" d="M14.506,6.2V5.149a5.149,5.149,0,1,0-10.3,0V6.2A3.678,3.678,0,0,0,2,9.563v4.414a3.683,3.683,0,0,0,3.678,3.678h7.356a3.683,3.683,0,0,0,3.678-3.678V9.563A3.678,3.678,0,0,0,14.506,6.2ZM5.678,5.149a3.678,3.678,0,1,1,7.356,0v.736H5.678Zm9.563,8.828a2.207,2.207,0,0,1-2.207,2.207H5.678a2.207,2.207,0,0,1-2.207-2.207V9.563A2.207,2.207,0,0,1,5.678,7.356h7.356a2.207,2.207,0,0,1,2.207,2.207Z" transform="translate(-2)" fill="#7e7e7e"/>
    <path id="Path_11938" data-name="Path 11938" d="M11.736,14a.736.736,0,0,0-.736.736v1.471a.736.736,0,0,0,1.471,0V14.736A.736.736,0,0,0,11.736,14Z" transform="translate(-4.379 -3.701)" fill="#7e7e7e"/>
  </g>
</svg>
