<svg id="Icon_ionic-ios-notifications-outline" data-name="Icon ionic-ios-notifications-outline" xmlns="http://www.w3.org/2000/svg" xmlns:xlink="http://www.w3.org/1999/xlink" width="38.991" height="48.804" viewBox="0 0 38.991 48.804">
  <defs>
    <linearGradient id="linear-gradient" x1="0.5" x2="0.5" y2="1" gradientUnits="objectBoundingBox">
      <stop offset="0" stop-color="#f3c65d"/>
      <stop offset="1" stop-color="#e59f00"/>
    </linearGradient>
  </defs>
  <path id="Path_11489" data-name="Path 11489" d="M24.535,28.336a1.58,1.58,0,0,0-1.549,1.244,3.057,3.057,0,0,1-.61,1.33,2.305,2.305,0,0,1-1.964.72,2.344,2.344,0,0,1-1.964-.72,3.057,3.057,0,0,1-.61-1.33,1.58,1.58,0,0,0-1.549-1.244h0a1.591,1.591,0,0,0-1.549,1.939A5.45,5.45,0,0,0,20.412,34.8a5.44,5.44,0,0,0,5.672-4.525,1.6,1.6,0,0,0-1.549-1.939Z" transform="translate(-0.951 14.003)" fill="url(#linear-gradient)"/>
  <path id="Path_11490" data-name="Path 11490" d="M45.277,40.073C43.4,37.6,39.7,36.145,39.7,25.057,39.7,13.677,34.677,9.1,29.993,8c-.439-.11-.756-.256-.756-.72V6.931a2.992,2.992,0,0,0-2.927-3h-.073a2.992,2.992,0,0,0-2.927,3v.354c0,.451-.317.61-.756.72-4.7,1.11-9.709,5.672-9.709,17.053,0,11.088-3.7,12.527-5.574,15.016a2.421,2.421,0,0,0,1.939,3.879H43.374A2.423,2.423,0,0,0,45.277,40.073Zm-4.757.707H12.074a.535.535,0,0,1-.4-.89,14.777,14.777,0,0,0,2.562-4.074,27.643,27.643,0,0,0,1.744-10.759c0-4.55.854-8.112,2.549-10.588A7.827,7.827,0,0,1,23.248,11.1a4.275,4.275,0,0,0,2.269-1.281A.965.965,0,0,1,26.968,9.8,4.419,4.419,0,0,0,29.261,11.1a7.827,7.827,0,0,1,4.721,3.367c1.7,2.476,2.549,6.038,2.549,10.588a27.642,27.642,0,0,0,1.744,10.759A14.946,14.946,0,0,0,40.9,39.951.5.5,0,0,1,40.52,40.78Z" transform="translate(-6.775 -3.93)" fill="#063354"/>
</svg>
