<svg xmlns="http://www.w3.org/2000/svg" xmlns:xlink="http://www.w3.org/1999/xlink" width="21.967" height="21.341" viewBox="0 0 21.967 21.341">
  <defs>
    <linearGradient id="linear-gradient" x1="0.5" x2="0.5" y2="1" gradientUnits="objectBoundingBox">
      <stop offset="0" stop-color="#f3c65d"/>
      <stop offset="1" stop-color="#e59f00"/>
    </linearGradient>
  </defs>
  <g id="Group_11066" data-name="Group 11066" transform="translate(-1061.362)">
    <circle id="Ellipse_139" data-name="Ellipse 139" cx="6.881" cy="6.881" r="6.881" transform="translate(1069.568 7.579)" fill="url(#linear-gradient)"/>
    <g id="address-book_outline" transform="translate(1061.362)">
      <path id="Path_15192" data-name="Path 15192" d="M22.9,10.2a.7.7,0,1,0,0,1.407h3.752a.7.7,0,1,0,0-1.407Z" transform="translate(-14.978 -6.214)" fill="url(#linear-gradient)"/>
      <path id="Path_15193" data-name="Path 15193" d="M3.807.377A5.277,5.277,0,0,1,6.386,0h7.269c2.653,0,3.979,0,4.8.824s.824,2.15.824,4.8v7.5c0,2.653,0,3.979-.824,4.8s-2.15.824-4.8.824H6.386a5.278,5.278,0,0,1-2.579-.376,2.813,2.813,0,0,1-1.03-1.03C2.4,16.7,2.4,15.821,2.4,14.068V4.689c0-1.753,0-2.63.377-3.283A2.814,2.814,0,0,1,3.807.377ZM17.875,13.13v-7.5a24.714,24.714,0,0,0-.091-2.9c-.082-.61-.214-.8-.322-.909s-.3-.24-.909-.322a24.721,24.721,0,0,0-2.9-.09H7.793V17.351h5.862a24.713,24.713,0,0,0,2.9-.091c.61-.082.8-.214.909-.322s.24-.3.322-.909A24.713,24.713,0,0,0,17.875,13.13ZM6.386,17.35V1.408c-.523,0-.909.012-1.223.04A1.582,1.582,0,0,0,4.51,1.6,1.407,1.407,0,0,0,4,2.11a1.582,1.582,0,0,0-.147.652c-.04.442-.041,1.024-.041,1.927v9.379c0,.9,0,1.485.041,1.927A1.582,1.582,0,0,0,4,16.647a1.407,1.407,0,0,0,.515.515,1.581,1.581,0,0,0,.652.147C5.477,17.338,5.863,17.347,6.386,17.35Z" transform="translate(-2.4)" fill="#063354" fill-rule="evenodd"/>
    </g>
  </g>
</svg>
