<svg xmlns="http://www.w3.org/2000/svg" xmlns:xlink="http://www.w3.org/1999/xlink" width="52.361" height="49.658" viewBox="0 0 52.361 49.658">
  <defs>
    <linearGradient id="linear-gradient" x1="0.5" x2="0.5" y2="1" gradientUnits="objectBoundingBox">
      <stop offset="0" stop-color="#f3c65d"/>
      <stop offset="1" stop-color="#e59f00"/>
    </linearGradient>
  </defs>
  <g id="Group_7593" data-name="Group 7593" transform="translate(0 0)">
    <path id="Path_13704" data-name="Path 13704" d="M0,20.726C0,13.372,0,9.7,1.765,7.054A10.472,10.472,0,0,1,4.654,4.165C7.3,2.4,10.972,2.4,18.326,2.4H34.035c7.354,0,11.031,0,13.672,1.765A10.477,10.477,0,0,1,50.6,7.054c1.765,2.641,1.765,6.318,1.765,13.672v2.618c0,4.88,0,7.319-.8,9.244A10.473,10.473,0,0,1,45.9,38.256c-1.925.8-4.364.8-9.244.8a22.148,22.148,0,0,0-3.423.135,10.469,10.469,0,0,0-3.183,1.061,22.121,22.121,0,0,0-2.819,1.945L18.85,48.478c-3.656,2.742-5.483,4.112-6.931,3.389s-1.447-3.008-1.447-7.578V41.147a2.094,2.094,0,0,0-2.094-2.094" transform="translate(0 -2.4)" fill="#fff"/>
    <path id="Path_13705" data-name="Path 13705" d="M34.035,6.327H18.326c-3.759,0-6.282,0-8.206.2a6.965,6.965,0,0,0-3.285.9A6.545,6.545,0,0,0,5.03,9.236a6.965,6.965,0,0,0-.9,3.285c-.2,1.924-.2,4.447-.2,8.206v9.949a4.451,4.451,0,0,0,4.451,4.451A6.021,6.021,0,0,1,14.4,41.147v3.142c0,1.044,0,1.892.015,2.589.565-.408,1.244-.915,2.08-1.542l8.378-6.283.2-.153a23.637,23.637,0,0,1,3.15-2.13A14.406,14.406,0,0,1,32.6,35.312a23.658,23.658,0,0,1,3.8-.186h.254c2.493,0,4.167,0,5.463-.091a7.221,7.221,0,0,0,2.278-.408,6.544,6.544,0,0,0,3.542-3.542,7.221,7.221,0,0,0,.408-2.278c.088-1.3.091-2.969.091-5.463V20.726c0-3.759,0-6.282-.2-8.206a6.966,6.966,0,0,0-.9-3.285A6.545,6.545,0,0,0,45.525,7.43a6.964,6.964,0,0,0-3.285-.9C40.317,6.332,37.793,6.327,34.035,6.327Zm-32.27.727C0,9.7,0,13.372,0,20.726v9.949a8.378,8.378,0,0,0,8.378,8.378,2.094,2.094,0,0,1,2.094,2.094v3.142c0,4.57,0,6.854,1.447,7.578s3.275-.647,6.931-3.389l8.378-6.283a22.121,22.121,0,0,1,2.819-1.945,10.461,10.461,0,0,1,3.183-1.061,22.105,22.105,0,0,1,3.423-.135c4.88,0,7.319,0,9.244-.8a10.473,10.473,0,0,0,5.668-5.668c.8-1.925.8-4.364.8-9.244V20.726c0-7.354,0-11.031-1.765-13.672a10.477,10.477,0,0,0-2.889-2.889C45.066,2.4,41.389,2.4,34.035,2.4H18.326C10.972,2.4,7.3,2.4,4.654,4.165A10.472,10.472,0,0,0,1.765,7.054Z" transform="translate(0 -2.4)" fill="#063354" fill-rule="evenodd"/>
    <path id="Path_13706" data-name="Path 13706" d="M17.454,19.527A3.927,3.927,0,1,1,13.527,15.6,3.927,3.927,0,0,1,17.454,19.527Z" transform="translate(0.872 -1.201)" fill="url(#linear-gradient)"/>
    <path id="Path_13707" data-name="Path 13707" d="M28.254,19.527A3.927,3.927,0,1,1,24.327,15.6,3.927,3.927,0,0,1,28.254,19.527Z" transform="translate(1.853 -1.201)" fill="url(#linear-gradient)"/>
    <path id="Path_13708" data-name="Path 13708" d="M35.127,23.454A3.927,3.927,0,1,0,31.2,19.527,3.927,3.927,0,0,0,35.127,23.454Z" transform="translate(2.835 -1.201)" fill="url(#linear-gradient)"/>
  </g>
</svg>
