<svg xmlns="http://www.w3.org/2000/svg" xmlns:xlink="http://www.w3.org/1999/xlink" width="24" height="24" viewBox="0 0 24 24">
  <defs>
    <linearGradient id="linear-gradient" x1="0.5" x2="0.5" y2="1" gradientUnits="objectBoundingBox">
      <stop offset="0" stop-color="#f3c65d"/>
      <stop offset="1" stop-color="#e59f00"/>
    </linearGradient>
  </defs>
  <g id="Group_13883" data-name="Group 13883" transform="translate(-161 -479)">
    <path id="Polygon_12" data-name="Polygon 12" d="M5.566.757a.5.5,0,0,1,.868,0l1.431,2.5a.5.5,0,0,0,.342.243l2.876.535a.5.5,0,0,1,.267.84L9.372,6.911a.5.5,0,0,0-.137.412l.359,2.789a.5.5,0,0,1-.7.52L6.206,9.42a.5.5,0,0,0-.411,0L3.108,10.632a.5.5,0,0,1-.7-.52l.359-2.789a.5.5,0,0,0-.137-.412L.649,4.871a.5.5,0,0,1,.267-.84L3.793,3.5a.5.5,0,0,0,.342-.243Z" transform="translate(173 480)" fill="url(#linear-gradient)"/>
    <path id="features" d="M4,6.5A.5.5,0,0,1,4.5,6h5a.5.5,0,0,1,0,1h-5A.5.5,0,0,1,4,6.5Zm7.5,3.5h-7a.5.5,0,0,0,0,1h7a.5.5,0,0,0,0-1Zm0,4h-7a.5.5,0,0,0,0,1h7a.5.5,0,0,0,0-1Zm12-7.5-1.9,1.55.781,2.228a1.415,1.415,0,0,1-2.114,1.639l-2.247-1.464-2.207,1.479a1.416,1.416,0,0,1-2.138-1.6l.756-2.271L12.515,6.5A1.417,1.417,0,0,1,13.423,4h2.4l.855-2.4A1.416,1.416,0,0,1,19.331,1.6L20.187,4h2.4A1.418,1.418,0,0,1,23.5,6.5Zm-.521-1.227A.418.418,0,0,0,22.584,5H19.835a.5.5,0,0,1-.471-.332L18.39,1.937a.437.437,0,0,0-.778.006l-.97,2.726A.5.5,0,0,1,16.172,5H13.423a.416.416,0,0,0-.269.734L15.324,7.5a.5.5,0,0,1,.159.546l-.862,2.591a.414.414,0,0,0,.149.45.426.426,0,0,0,.482.014l2.482-1.662a.5.5,0,0,1,.551,0l2.523,1.644a.417.417,0,0,0,.623-.48l-.893-2.551a.5.5,0,0,1,.156-.553l2.167-1.767a.415.415,0,0,0,.117-.456ZM20.989,21a3,3,0,0,1-3,3H3a3,3,0,0,1-3-3V4.5A4.5,4.5,0,0,1,4.5,0h9.994a.5.5,0,0,1,0,1H4.5A3.5,3.5,0,0,0,1,4.5V21a2,2,0,1,0,4,0,3,3,0,0,1,3-3H16.99V13.5a.5.5,0,1,1,1,0V18a3,3,0,0,1,3,3Zm-1,0a2,2,0,0,0-2-2H8a2,2,0,0,0-2,2,2.988,2.988,0,0,1-.766,2H17.991A2,2,0,0,0,19.99,21Z" transform="translate(161 479)"/>
  </g>
</svg>
