<svg xmlns="http://www.w3.org/2000/svg" xmlns:xlink="http://www.w3.org/1999/xlink" width="24" height="23.996" viewBox="0 0 24 23.996">
  <defs>
    <linearGradient id="linear-gradient" x1="0.5" x2="0.5" y2="1" gradientUnits="objectBoundingBox">
      <stop offset="0" stop-color="#f3c65d"/>
      <stop offset="1" stop-color="#e59f00"/>
    </linearGradient>
  </defs>
  <g id="Group_13885" data-name="Group 13885" transform="translate(-193 -587)">
    <path id="Path_21428" data-name="Path 21428" d="M-20012.812-13005.8l-3.59-2.2.418.416.516.422.516.359.422.266.516.266.625.281.578.188.766.172.516.078.547.063h5.266l.516-.062.484-.156.438-.281.344-.375.281-.437.2-.641v-5.641l-.078-.562-.172-.828-.2-.7-.406-1-.5-.828-.8-1.047-.609-.609,2.313,3.484Z" transform="translate(20219.998 13615.998)" fill="url(#linear-gradient)"/>
    <path id="comments-question" d="M8.684,18H3.5C1.21,18,0,16.789,0,14.5V9.311A9.43,9.43,0,0,1,8.347.022a9.018,9.018,0,0,1,9.629,9.65A9.419,9.419,0,0,1,8.684,18Zm.3-17c-.188,0-.377.007-.566.021A8.4,8.4,0,0,0,1,9.311V14.5c0,1.729.771,2.5,2.5,2.5H8.684a8.391,8.391,0,0,0,8.294-7.4A8.018,8.018,0,0,0,8.984,1ZM24,21V16.274a8.558,8.558,0,0,0-3.717-6.929.5.5,0,0,0-.566.824A7.545,7.545,0,0,1,23,16.273V21a1.792,1.792,0,0,1-2,2H16.278a7.548,7.548,0,0,1-6.106-3.283.5.5,0,0,0-.824.566A8.563,8.563,0,0,0,16.279,24H21a2.782,2.782,0,0,0,3-3ZM9.5,10.749c0-.454.23-.727.947-1.121a3,3,0,0,0-.907-5.581A3.059,3.059,0,0,0,6.01,6.4a.5.5,0,0,0,.981.2A2.052,2.052,0,0,1,9.367,5.033a2,2,0,0,1,.6,3.721,2.3,2.3,0,0,0-1.464,2,.5.5,0,1,0,1,0ZM9,13a1,1,0,1,0,1,1A1,1,0,0,0,9,13Z" transform="translate(193 586.999)"/>
  </g>
</svg>
