<svg id="Group_11868" data-name="Group 11868" xmlns="http://www.w3.org/2000/svg" width="13.204" height="15.845" viewBox="0 0 13.204 15.845">
  <path id="Path_15916" data-name="Path 15916" d="M14.544,2.641H12.5A3.307,3.307,0,0,0,9.262,0H7.942A3.307,3.307,0,0,0,4.707,2.641H2.66a.66.66,0,1,0,0,1.32h.66v8.583a3.3,3.3,0,0,0,3.3,3.3h3.961a3.3,3.3,0,0,0,3.3-3.3V3.961h.66a.66.66,0,0,0,0-1.32Zm-6.6-1.32h1.32a1.985,1.985,0,0,1,1.868,1.32H6.074A1.985,1.985,0,0,1,7.942,1.32Zm4.621,11.223a1.981,1.981,0,0,1-1.981,1.981H6.621a1.981,1.981,0,0,1-1.981-1.981V3.961h7.922Z" transform="translate(-2)" fill="#063354"/>
  <path id="Path_15917" data-name="Path 15917" d="M9.66,15.282a.66.66,0,0,0,.66-.66V10.66a.66.66,0,0,0-1.32,0v3.961A.66.66,0,0,0,9.66,15.282Z" transform="translate(-4.379 -3.398)" fill="#063354"/>
  <path id="Path_15918" data-name="Path 15918" d="M13.66,15.282a.66.66,0,0,0,.66-.66V10.66a.66.66,0,1,0-1.32,0v3.961A.66.66,0,0,0,13.66,15.282Z" transform="translate(-5.738 -3.398)" fill="#063354"/>
</svg>
