<svg xmlns="http://www.w3.org/2000/svg" width="12.963" height="8.646" viewBox="0 0 12.963 8.646">
  <path id="Icon_ionic-ios-arrow-round-forward" data-name="Icon ionic-ios-arrow-round-forward" d="M16.142,11.417a.588.588,0,0,0,0,.829l2.738,2.742H8.456a.585.585,0,0,0,0,1.171H18.871L16.133,18.9a.593.593,0,0,0,0,.829.583.583,0,0,0,.824,0l3.71-3.737h0a.657.657,0,0,0,.122-.185.559.559,0,0,0,.045-.225.587.587,0,0,0-.167-.41l-3.71-3.737A.574.574,0,0,0,16.142,11.417Z" transform="translate(-7.875 -11.252)" fill="#063354"/>
</svg>
