
<svg id="Group_9174" data-name="Group 9174" xmlns="http://www.w3.org/2000/svg" width="52.492" height="50.358" viewBox="0 0 52.492 50.358">
  <defs>
    <linearGradient id="linear-gradient" x1="0.5" x2="0.5" y2="1" gradientUnits="objectBoundingBox">
      <stop offset="0" stop-color="#f3c65d"/>
      <stop offset="1" stop-color="#e59f00"/>
    </linearGradient>
  </defs>
  <g id="star" transform="translate(0 0)">
    <path id="Path_15558" data-name="Path 15558" d="M53.773,21.324a4.433,4.433,0,0,0-3.518-3.017l-12.676-2.06L31.7,4.828a4.451,4.451,0,0,0-7.914,0L17.913,16.247,5.237,18.307a4.451,4.451,0,0,0-2.446,7.527l9.044,9.117L9.878,47.642a4.448,4.448,0,0,0,6.4,4.652L27.746,46.51l11.465,5.784a4.45,4.45,0,0,0,6.4-4.652L43.656,34.951,52.7,25.834A4.433,4.433,0,0,0,53.773,21.324Zm-3.557,2.045L39.928,33.74l2.227,14.436a.948.948,0,0,1-1.368.994L27.746,42.591,14.7,49.17a.948.948,0,0,1-1.368-.994L15.563,33.74,5.276,23.369A.951.951,0,0,1,5.8,21.761l14.418-2.343L26.9,6.43a.951.951,0,0,1,1.691,0l6.684,12.988,14.418,2.343a.951.951,0,0,1,.523,1.608Z" transform="translate(-1.501 -2.415)" fill="#063354"/>
  </g>
  <path id="Path_15182" data-name="Path 15182" d="M13.673,6.54C14.948,3.912,15.586,2.6,16.607,2.6s1.659,1.314,2.934,3.941l2.206,4.545,5.113.855c2.663.445,3.994.668,4.3,1.6s-.619,1.908-2.478,3.866l-3.763,3.962.8,5.321c.421,2.8.631,4.206-.191,4.786s-2.072-.089-4.573-1.426l-4.351-2.327-4.351,2.327c-2.5,1.338-3.751,2.006-4.573,1.426s-.612-1.982-.191-4.786l.8-5.321L4.527,17.4c-1.859-1.957-2.789-2.936-2.478-3.866s1.642-1.152,4.3-1.6l5.113-.855Z" transform="translate(9.675 7.9)" fill="url(#linear-gradient)"/>
</svg>