<svg xmlns="http://www.w3.org/2000/svg" xmlns:xlink="http://www.w3.org/1999/xlink" width="20" height="20" viewBox="0 0 20 20">
  <defs>
    <linearGradient id="linear-gradient" x1="0.5" x2="0.5" y2="1" gradientUnits="objectBoundingBox">
      <stop offset="0" stop-color="#f3c65d"/>
      <stop offset="1" stop-color="#e59f00"/>
    </linearGradient>
  </defs>
  <g id="Group_13948" data-name="Group 13948" transform="translate(-694 -128)">
    <circle id="Ellipse_812" data-name="Ellipse 812" cx="4.671" cy="4.671" r="4.671" transform="translate(704 137.924)" fill="url(#linear-gradient)"/>
    <path id="calendar-clock" d="M14.583,9.2A5.4,5.4,0,1,0,20,14.583,5.423,5.423,0,0,0,14.583,9.2Zm0,9.967a4.567,4.567,0,1,1,4.583-4.583A4.573,4.573,0,0,1,14.583,19.167Zm1.128-4.045a.417.417,0,0,1-.59.589l-.833-.833a.416.416,0,0,1-.122-.3V12.916a.417.417,0,1,1,.833,0V14.41ZM16.25,1.667H15V.417a.417.417,0,0,0-.833,0v1.25H5.833V.417A.417.417,0,1,0,5,.417v1.25H3.75A3.755,3.755,0,0,0,0,5.417V16.25A3.755,3.755,0,0,0,3.75,20h5a.417.417,0,0,0,0-.833h-5A2.92,2.92,0,0,1,.833,16.25V7.5H19.167V8.75a.417.417,0,0,0,.833,0V5.417A3.755,3.755,0,0,0,16.25,1.667Zm-15.417,5V5.417A2.92,2.92,0,0,1,3.75,2.5h12.5a2.92,2.92,0,0,1,2.917,2.917v1.25Z" transform="translate(694 128)"/>
  </g>
</svg>
