<svg xmlns="http://www.w3.org/2000/svg" xmlns:xlink="http://www.w3.org/1999/xlink" width="20" height="20" viewBox="0 0 20 20">
  <defs>
    <linearGradient id="linear-gradient" x1="0.5" x2="0.5" y2="1" gradientUnits="objectBoundingBox">
      <stop offset="0" stop-color="#f3c65d"/>
      <stop offset="1" stop-color="#e59f00"/>
    </linearGradient>
  </defs>
  <g id="Group_13947" data-name="Group 13947" transform="translate(-599 -118)">
    <rect id="Rectangle_9305" data-name="Rectangle 9305" width="3" height="3" transform="translate(606.316 121)" fill="url(#linear-gradient)"/>
    <path id="Path_21436" data-name="Path 21436" d="M3.332.128c1.381,0,1.24.969,1.24,2.35L4.758,11.5a1.975,1.975,0,0,1-2.244,2.095A1.916,1.916,0,0,1,.348,11.5V2.795A3.1,3.1,0,0,1,3.332.128Z" transform="translate(599 124)" fill="url(#linear-gradient)"/>
    <path id="newspaper" d="M16.25,0H7.917a3.755,3.755,0,0,0-3.75,3.75V5.833H3.333A3.337,3.337,0,0,0,0,9.167V17.5A2.5,2.5,0,0,0,2.5,20H16.25A3.755,3.755,0,0,0,20,16.25V3.75A3.755,3.755,0,0,0,16.25,0ZM4.167,17.5a1.667,1.667,0,0,1-3.333,0V9.167a2.5,2.5,0,0,1,2.5-2.5h.833Zm15-1.25a2.92,2.92,0,0,1-2.917,2.917H4.362A2.489,2.489,0,0,0,5,17.5V3.75A2.92,2.92,0,0,1,7.917.833H16.25A2.92,2.92,0,0,1,19.167,3.75ZM17.5,6.25a.417.417,0,0,1-.417.417H12.917a.417.417,0,0,1,0-.833h4.167A.417.417,0,0,1,17.5,6.25Zm0,3.333a.417.417,0,0,1-.417.417h-10a.417.417,0,0,1,0-.833h10A.417.417,0,0,1,17.5,9.583Zm0,3.333a.417.417,0,0,1-.417.417h-10a.417.417,0,1,1,0-.833h10A.417.417,0,0,1,17.5,12.917Zm0,3.333a.417.417,0,0,1-.417.417h-10a.417.417,0,1,1,0-.833h10A.417.417,0,0,1,17.5,16.25ZM7.917,6.667H9.583a1.252,1.252,0,0,0,1.25-1.25V3.75A1.252,1.252,0,0,0,9.583,2.5H7.917a1.252,1.252,0,0,0-1.25,1.25V5.417A1.252,1.252,0,0,0,7.917,6.667ZM7.5,3.75a.417.417,0,0,1,.417-.417H9.583A.417.417,0,0,1,10,3.75V5.417a.417.417,0,0,1-.417.417H7.917A.417.417,0,0,1,7.5,5.417Z" transform="translate(599 118)"/>
  </g>
</svg>
