<svg xmlns="http://www.w3.org/2000/svg" width="24" height="24" viewBox="0 0 24 24">
  <path id="calculator-money_1_" data-name="calculator-money (1)" d="M5.5,10C2.416,10,0,11.318,0,13v8c0,1.682,2.416,3,5.5,3S11,22.682,11,21V13C11,11.318,8.584,10,5.5,10ZM10,17c0,.946-1.848,2-4.5,2S1,17.946,1,17V14.746A7.56,7.56,0,0,0,5.5,16,7.56,7.56,0,0,0,10,14.746ZM5.5,11c2.652,0,4.5,1.054,4.5,2s-1.848,2-4.5,2S1,13.946,1,13,2.848,11,5.5,11Zm0,12C2.848,23,1,21.946,1,21V18.746A7.56,7.56,0,0,0,5.5,20,7.56,7.56,0,0,0,10,18.746V21C10,21.946,8.152,23,5.5,23ZM20,5.5A1.5,1.5,0,0,0,18.5,4h-9A1.5,1.5,0,0,0,8,5.5v2A1.5,1.5,0,0,0,9.5,9h9A1.5,1.5,0,0,0,20,7.5Zm-1,2a.5.5,0,0,1-.5.5h-9A.5.5,0,0,1,9,7.5v-2A.5.5,0,0,1,9.5,5h9a.5.5,0,0,1,.5.5Zm1,5a.5.5,0,0,1-1,0v-1a.5.5,0,0,1,1,0Zm-4,0v-1a.5.5,0,0,1,1,0v1a.5.5,0,0,1-1,0Zm-3,0v-1a.5.5,0,0,1,1,0v1a.5.5,0,0,1-1,0Zm0,3a.5.5,0,0,1,1,0v1a.5.5,0,0,1-1,0Zm3,0a.5.5,0,0,1,1,0v1a.5.5,0,0,1-1,0Zm4,1a.5.5,0,0,1-1,0v-1a.5.5,0,0,1,1,0Zm-7,3a.5.5,0,0,1,.5-.5h6a.5.5,0,0,1,0,1h-6A.5.5,0,0,1,13,19.5Zm11-15v15A4.505,4.505,0,0,1,19.5,24h-7a.5.5,0,0,1,0-1h7A3.5,3.5,0,0,0,23,19.5V4.5A3.5,3.5,0,0,0,19.5,1H8.5A3.5,3.5,0,0,0,5,4.5v3a.5.5,0,0,1-1,0v-3A4.505,4.505,0,0,1,8.5,0h11A4.505,4.505,0,0,1,24,4.5Z"/>
</svg>
