<svg xmlns="http://www.w3.org/2000/svg" width="24" height="24" viewBox="0 0 24 24">
  <path id="calculator-bill" d="M8.5,11h-6A2.5,2.5,0,0,0,0,13.5v8A2.5,2.5,0,0,0,2.5,24h6A2.5,2.5,0,0,0,11,21.5v-8A2.5,2.5,0,0,0,8.5,11ZM10,21.5A1.5,1.5,0,0,1,8.5,23h-6A1.5,1.5,0,0,1,1,21.5v-8A1.5,1.5,0,0,1,2.5,12h6A1.5,1.5,0,0,1,10,13.5Zm-2-7a.5.5,0,0,1-.5.5h-4a.5.5,0,0,1,0-1h4A.5.5,0,0,1,8,14.5Zm0,3a.5.5,0,0,1-.5.5h-1a.5.5,0,0,1,0-1h1A.5.5,0,0,1,8,17.5Zm-3,0a.5.5,0,0,1-.5.5h-1a.5.5,0,0,1,0-1h1A.5.5,0,0,1,5,17.5Zm3,3a.5.5,0,0,1-.5.5h-1a.5.5,0,0,1,0-1h1A.5.5,0,0,1,8,20.5Zm-3,0a.5.5,0,0,1-.5.5h-1a.5.5,0,0,1,0-1h1A.5.5,0,0,1,5,20.5ZM21,0H6A3,3,0,0,0,3,3V8.5a.5.5,0,0,0,1,0V3A2,2,0,0,1,8,3a2,2,0,0,0,2,2H20V19.5A3.5,3.5,0,0,1,16.5,23h-3a.5.5,0,0,0,0,1h3A4.505,4.505,0,0,0,21,19.5V5h1a2,2,0,0,0,2-2A3,3,0,0,0,21,0Zm1,4H10A1,1,0,0,1,9,3a2.987,2.987,0,0,0-.766-2H21a2,2,0,0,1,2,2A1,1,0,0,1,22,4Z"/>
</svg>
