<svg xmlns="http://www.w3.org/2000/svg" width="12.3" height="8.339" viewBox="0 0 12.3 8.339">
  <path id="Icon_ionic-ios-arrow-round-forward" data-name="Icon ionic-ios-arrow-round-forward" d="M12.222,11.4a.544.544,0,0,1,0,.767L9.692,14.709h9.645a.542.542,0,0,1,0,1.083H9.7l2.534,2.537a.548.548,0,0,1,0,.767.54.54,0,0,1-.763,0L8.029,15.634h0a.608.608,0,0,1-.113-.171.517.517,0,0,1-.042-.208.543.543,0,0,1,.154-.379l3.435-3.458A.531.531,0,0,1,12.222,11.4Z" transform="translate(-7.725 -11.102)" fill="#063354" stroke="#063354" strokeWidth="0.3"/>
</svg>
